<?xml version="1.0" encoding="UTF-8" standalone="no"?>
<svg
   width="260.74429pt"
   height="303.59906pt"
   viewBox="0 0 260.74431 303.59905"
   version="1.1"
   id="svg2"
   sodipodi:docname="Aeroporto.svg"
   inkscape:version="1.4.3 (0d15f75, 2025-12-25)"
   inkscape:export-filename="Aeroporto.svg"
   inkscape:export-xdpi="96"
   inkscape:export-ydpi="96"
   xmlns:inkscape="http://www.inkscape.org/namespaces/inkscape"
   xmlns:sodipodi="http://sodipodi.sourceforge.net/DTD/sodipodi-0.dtd"
   xmlns="http://www.w3.org/2000/svg"
   xmlns:svg="http://www.w3.org/2000/svg"
   xmlns:rdf="http://www.w3.org/1999/02/22-rdf-syntax-ns#"
   xmlns:cc="http://creativecommons.org/ns#"
   xmlns:dc="http://purl.org/dc/elements/1.1/">
  <sodipodi:namedview
     id="namedview2"
     pagecolor="#ffffff"
     bordercolor="#000000"
     borderopacity="0.25"
     inkscape:showpageshadow="2"
     inkscape:pageopacity="0.0"
     inkscape:pagecheckerboard="0"
     inkscape:deskcolor="#d1d1d1"
     inkscape:document-units="pt"
     inkscape:zoom="0.86445364"
     inkscape:cx="180.4608"
     inkscape:cy="257.96641"
     inkscape:window-width="1920"
     inkscape:window-height="1009"
     inkscape:window-x="-8"
     inkscape:window-y="-8"
     inkscape:window-maximized="1"
     inkscape:current-layer="svg2">
    <inkscape:page
       x="-3.7240182e-20"
       y="0"
       width="260.74432"
       height="303.59906"
       id="page2"
       margin="0"
       bleed="0" />
  </sodipodi:namedview>
  <metadata
     id="metadata1">
    <rdf:RDF>
      <cc:Work>
        <dc:type
           rdf:resource="http://purl.org/dc/dcmitype/StillImage" />
        <dc:date>2026-01-20T15:33:11.407986</dc:date>
        <dc:format>image/svg+xml</dc:format>
        <dc:creator>
          <cc:Agent>
            <dc:title>Matplotlib v3.10.0, https://matplotlib.org/</dc:title>
          </cc:Agent>
        </dc:creator>
      </cc:Work>
    </rdf:RDF>
  </metadata>
  <defs
     id="defs1">
    <style
       type="text/css"
       id="style1">*{stroke-linejoin: round; stroke-linecap: butt}</style>
  </defs>
  <g
     id="axes_1"
     transform="matrix(1.0014485,0,0,1,-15.249185,105.81675)"
     style="stroke-width:0.999277">
    <g
       id="PatchCollection_1"
       style="fill:#aca793;stroke-width:0.999277"
       transform="translate(-4.3317257,-127.5372)"
       inkscape:export-filename="PatchCollection_1.svg"
       inkscape:export-xdpi="96"
       inkscape:export-ydpi="96">
      <path
         d="m 20.158406,236.45231 3.958194,-5.2331 4.920274,-5.75581 12.887141,-12.7115 7.732285,-11.93336 5.065775,-7.81698 12.887141,-27.92075 4.424387,-10.71864 2.286428,-5.55386 7.646173,-13.72426 0.489948,-1.03652 11.948815,-25.36062 1.921194,-4.07481 1.748969,-3.7095 6.94837,-14.552885 15.11418,-31.749044 9.44265,-23.136114 2.46459,-3.80157 18.35081,-5.342987 12.6199,30.112588 13.83735,32.194541 14.40152,32.699441 13.98582,30.82835 16.76219,39.6967 4.91434,13.16887 14.85584,35.06354 37.55384,88.63597 -23.28593,-6.86659 -50.14702,-22.09068 -22.95336,-9.23662 -45.99581,-7.03885 -15.05479,-0.74249 -48.608874,-16.81007 -12.65256,-3.87878 -12.319988,-5.26874 -6.235713,-3.74217 -10.957039,-5.61326 z"
         clip-path="url(#pf44b6eecce)"
         style="fill:#aca793;stroke:#000000;stroke-width:1.19913"
         id="path2" />
    </g>
  </g>
  <defs
     id="defs2">
    <clipPath
       id="pf44b6eecce">
      <rect
         x="7.1999998"
         y="7.1999998"
         width="285.08493"
         height="332.64001"
         id="rect2" />
    </clipPath>
  </defs>
</svg>
