<?xml version="1.0" encoding="utf-8" standalone="no"?>
<!DOCTYPE svg PUBLIC "-//W3C//DTD SVG 1.1//EN"
  "http://www.w3.org/Graphics/SVG/1.1/DTD/svg11.dtd">
<svg xmlns:xlink="http://www.w3.org/1999/xlink" width="349.2pt" height="230.923077pt" viewBox="0 0 349.2 230.923077" xmlns="http://www.w3.org/2000/svg" version="1.1">
 <metadata>
  <rdf:RDF xmlns:dc="http://purl.org/dc/elements/1.1/" xmlns:cc="http://creativecommons.org/ns#" xmlns:rdf="http://www.w3.org/1999/02/22-rdf-syntax-ns#">
   <cc:Work>
    <dc:type rdf:resource="http://purl.org/dc/dcmitype/StillImage"/>
    <dc:date>2026-01-20T15:33:10.582587</dc:date>
    <dc:format>image/svg+xml</dc:format>
    <dc:creator>
     <cc:Agent>
      <dc:title>Matplotlib v3.10.0, https://matplotlib.org/</dc:title>
     </cc:Agent>
    </dc:creator>
   </cc:Work>
  </rdf:RDF>
 </metadata>
 <defs>
  <style type="text/css">*{stroke-linejoin: round; stroke-linecap: butt}</style>
 </defs>
 <g id="figure_1">
  <g id="patch_1">
   <path d="M 0 230.923077 
L 349.2 230.923077 
L 349.2 0 
L 0 0 
z
" style="fill: #ffffff"/>
  </g>
  <g id="axes_1">
   <g id="PatchCollection_1">
    <path d="M 22.418182 57.888099 
L 26.016688 55.56319 
L 32.761804 49.992673 
L 37.497461 46.080157 
L 51.908155 33.66459 
L 64.011212 26.838066 
L 74.428916 22.166019 
L 86.628278 18.857424 
L 92.147346 18.005267 
L 110.019496 17.041958 
L 117.242438 18.635122 
L 123.798646 20.339438 
L 132.558777 23.970371 
L 138.364911 26.437923 
L 139.466872 26.878822 
L 145.356348 30.250402 
L 153.301583 34.863169 
L 163.413701 41.0691 
L 170.155113 45.126111 
L 175.414896 47.960462 
L 179.387514 50.113086 
L 185.480713 53.527274 
L 198.057891 61.59128 
L 218.419178 73.710444 
L 235.680155 84.584717 
L 245.699671 90.346044 
L 247.922115 91.62428 
L 253.996794 96.014745 
L 262.145753 101.201791 
L 272.257871 107.407722 
L 275.313731 109.426966 
L 280.147546 112.891172 
L 282.94412 115.132717 
L 286.648193 117.411313 
L 296.112098 123.265265 
L 306.298297 129.600872 
L 314.350951 134.610078 
L 316.484497 135.93648 
L 322.392492 139.974966 
L 326.781818 142.994568 
L 320.984945 144.884135 
L 318.280972 148.478018 
L 312.613741 150.552836 
L 302.523847 151.705102 
L 293.945216 152.68323 
L 280.666116 154.202294 
L 272.609758 155.276754 
L 264.5534 156.221537 
L 256.3674 157.036645 
L 251.602111 157.655385 
L 246.959056 158.259306 
L 247.551708 164.780164 
L 182.452634 170.578542 
L 184.573215 188.888817 
L 184.712118 190.085542 
L 185.160311 195.974693 
L 163.393329 198.153253 
L 160.833815 198.405195 
L 144.682207 199.998359 
L 112.866076 203.323627 
L 82.979767 206.448822 
L 81.911142 206.565531 
L 63.074081 208.614414 
L 52.739719 211.765545 
L 42.801693 212.428746 
L 28.766962 213.881119 
L 29.141073 205.424381 
L 29.259604 203.151343 
L 29.326277 201.849023 
L 31.085711 180.415405 
L 30.872727 177.484724 
L 30.159693 167.67009 
L 29.943005 164.919103 
L 29.889296 163.251838 
L 29.572598 153.557618 
L 28.233576 141.0309 
L 27.183471 139.259894 
L 24.46283 100.321846 
L 24.029453 87.765488 
L 23.455322 78.693714 
L 22.733028 66.189226 
L 22.547824 62.465667 
L 22.418182 57.888099 
z
" clip-path="url(#p79dcd747d4)" style="fill: none; stroke: #000000; stroke-width: 1.2"/>
   </g>
  </g>
 </g>
 <defs>
  <clipPath id="p79dcd747d4">
   <rect x="7.2" y="7.2" width="334.8" height="216.523077"/>
  </clipPath>
 </defs>
</svg>
