<?xml version="1.0" encoding="utf-8" standalone="no"?>
<!DOCTYPE svg PUBLIC "-//W3C//DTD SVG 1.1//EN"
  "http://www.w3.org/Graphics/SVG/1.1/DTD/svg11.dtd">
<svg xmlns:xlink="http://www.w3.org/1999/xlink" width="318.483069pt" height="347.04pt" viewBox="0 0 318.483069 347.04" xmlns="http://www.w3.org/2000/svg" version="1.1">
 <metadata>
  <rdf:RDF xmlns:dc="http://purl.org/dc/elements/1.1/" xmlns:cc="http://creativecommons.org/ns#" xmlns:rdf="http://www.w3.org/1999/02/22-rdf-syntax-ns#">
   <cc:Work>
    <dc:type rdf:resource="http://purl.org/dc/dcmitype/StillImage"/>
    <dc:date>2026-01-20T15:33:11.463935</dc:date>
    <dc:format>image/svg+xml</dc:format>
    <dc:creator>
     <cc:Agent>
      <dc:title>Matplotlib v3.10.0, https://matplotlib.org/</dc:title>
     </cc:Agent>
    </dc:creator>
   </cc:Work>
  </rdf:RDF>
 </metadata>
 <defs>
  <style type="text/css">*{stroke-linejoin: round; stroke-linecap: butt}</style>
 </defs>
 <g id="figure_1">
  <g id="patch_1">
   <path d="M 0 347.04 
L 318.483069 347.04 
L 318.483069 -0 
L 0 -0 
z
" style="fill: #ffffff"/>
  </g>
  <g id="axes_1">
   <g id="PatchCollection_1">
    <path d="M 21.021958 114.350322 
L 47.504474 108.935284 
L 55.311081 104.935298 
L 89.838665 87.244488 
L 103.953171 80.012002 
L 127.631436 57.890827 
L 125.057654 37.311286 
L 105.866189 27.720381 
L 105.309336 22.32 
L 136.543758 34.914226 
L 137.10594 35.140741 
L 156.302733 41.936187 
L 209.563511 66.892794 
L 212.520962 68.931428 
L 212.96458 69.285857 
L 208.986674 72.755532 
L 209.141208 73.135277 
L 229.831381 91.327085 
L 254.250342 110.055867 
L 263.286556 113.352324 
L 281.418933 119.963893 
L 283.870155 123.498857 
L 285.010506 125.664073 
L 285.636633 128.913895 
L 286.264092 133.189696 
L 287.632247 137.750639 
L 289.080332 139.542771 
L 289.008394 140.17568 
L 290.206029 146.94581 
L 291.074614 150.061055 
L 292.983636 153.278899 
L 294.876672 158.458094 
L 294.596913 164.560671 
L 294.010751 173.554643 
L 292.292232 185.173523 
L 292.806455 194.156836 
L 292.903705 195.839708 
L 293.158152 200.283397 
L 295.169752 215.39327 
L 297.461112 227.585099 
L 293.730992 238.044756 
L 291.146552 245.013419 
L 290.573712 251.982082 
L 290.853471 259.537019 
L 294.303832 273.487669 
L 251.968308 285.287761 
L 228.067568 291.342369 
L 184.891435 302.081839 
L 183.143607 302.550858 
L 182.357618 302.762716 
L 174.180663 304.95991 
L 165.987722 307.105139 
L 156.915539 309.516856 
L 156.358685 309.664757 
L 156.022974 309.755363 
L 155.022503 310.020518 
L 149.015679 311.622111 
L 141.395577 313.647421 
L 135.174271 315.299647 
L 133.056096 315.859272 
L 120.387012 319.510158 
L 106.425707 323.067774 
L 104.986947 323.440857 
L 100.12447 324.72 
L 99.897998 324.121734 
L 95.155418 311.596795 
L 94.60789 310.149765 
L 88.561099 294.180467 
L 83.32561 281.988638 
L 73.427472 263.467718 
L 60.292123 237.17867 
L 44.705552 207.478575 
L 53.444689 203.348009 
L 56.002485 202.122164 
L 24.934587 124.167742 
L 24.486972 123.044495 
L 21.021958 114.350322 
z
" clip-path="url(#p226211fdfe)" style="fill: none; stroke: #000000; stroke-width: 1.2"/>
   </g>
  </g>
 </g>
 <defs>
  <clipPath id="p226211fdfe">
   <rect x="7.2" y="7.2" width="304.083069" height="332.64"/>
  </clipPath>
 </defs>
</svg>
