<?xml version="1.0" encoding="utf-8" standalone="no"?>
<!DOCTYPE svg PUBLIC "-//W3C//DTD SVG 1.1//EN"
  "http://www.w3.org/Graphics/SVG/1.1/DTD/svg11.dtd">
<svg xmlns:xlink="http://www.w3.org/1999/xlink" width="252.349148pt" height="347.04pt" viewBox="0 0 252.349148 347.04" xmlns="http://www.w3.org/2000/svg" version="1.1">
 <metadata>
  <rdf:RDF xmlns:dc="http://purl.org/dc/elements/1.1/" xmlns:cc="http://creativecommons.org/ns#" xmlns:rdf="http://www.w3.org/1999/02/22-rdf-syntax-ns#">
   <cc:Work>
    <dc:type rdf:resource="http://purl.org/dc/dcmitype/StillImage"/>
    <dc:date>2026-01-20T15:33:09.790099</dc:date>
    <dc:format>image/svg+xml</dc:format>
    <dc:creator>
     <cc:Agent>
      <dc:title>Matplotlib v3.10.0, https://matplotlib.org/</dc:title>
     </cc:Agent>
    </dc:creator>
   </cc:Work>
  </rdf:RDF>
 </metadata>
 <defs>
  <style type="text/css">*{stroke-linejoin: round; stroke-linecap: butt}</style>
 </defs>
 <g id="figure_1">
  <g id="patch_1">
   <path d="M 0 347.04 
L 252.349148 347.04 
L 252.349148 -0 
L 0 -0 
z
" style="fill: #ffffff"/>
  </g>
  <g id="axes_1">
   <g id="PatchCollection_1">
    <path d="M 18.01587 204.344641 
L 24.105961 201.374322 
L 24.437084 201.196574 
L 39.596658 193.066567 
L 41.977317 192.266344 
L 49.829353 192.550456 
L 49.638814 192.272769 
L 42.171424 181.420148 
L 35.532554 179.916072 
L 35.165749 179.925352 
L 34.400742 177.391908 
L 33.983983 174.453712 
L 34.021806 172.610559 
L 32.855026 168.526638 
L 30.237443 157.853193 
L 32.942802 138.058207 
L 33.026296 137.448581 
L 33.129059 136.692617 
L 34.586284 127.516824 
L 35.142913 125.14685 
L 37.105387 115.509912 
L 38.625412 105.366141 
L 40.183259 98.159139 
L 42.811547 98.351164 
L 44.310163 98.461096 
L 43.602959 106.294857 
L 42.207105 113.992986 
L 44.806134 114.324925 
L 45.514052 114.457701 
L 46.610182 114.716113 
L 46.696531 115.084459 
L 47.670632 115.228656 
L 47.639946 116.737729 
L 47.598555 118.366729 
L 47.326664 120.324812 
L 47.111148 120.666031 
L 46.608041 120.683877 
L 46.157029 120.789526 
L 46.381822 122.030907 
L 45.035208 130.285123 
L 51.342242 149.217782 
L 57.375242 150.279273 
L 70.644419 152.614268 
L 88.097589 155.685239 
L 92.001128 156.37196 
L 91.925484 157.575506 
L 91.906216 157.881033 
L 92.376496 161.099057 
L 92.377209 161.278946 
L 92.377209 161.42814 
L 92.387914 166.674918 
L 93.192885 167.737123 
L 95.088991 169.19123 
L 96.673956 169.480338 
L 99.532745 168.822171 
L 101.477378 168.019093 
L 104.650876 168.632287 
L 104.510292 165.519199 
L 105.894014 164.878164 
L 116.14455 166.979731 
L 117.835845 164.929561 
L 120.501241 163.494728 
L 123.473497 164.160748 
L 131.170675 166.727029 
L 135.749305 164.437721 
L 138.356183 162.393262 
L 139.975403 160.388065 
L 141.20855 157.746116 
L 140.783228 154.699416 
L 139.456596 149.531875 
L 139.548654 142.042903 
L 139.517968 132.328154 
L 139.36097 93.573384 
L 144.977213 86.841804 
L 145.419661 83.429613 
L 145.419661 76.155509 
L 146.939686 72.379257 
L 146.261741 65.661954 
L 152.3397 61.79647 
L 176.983374 46.123953 
L 190.675732 37.40288 
L 201.460773 30.533527 
L 211.181797 24.774207 
L 212.082395 24.203129 
L 215.050368 22.32 
L 214.984715 26.842937 
L 214.697123 46.806391 
L 212.930897 64.376315 
L 212.070976 68.405269 
L 211.847611 69.451055 
L 210.724363 74.71211 
L 210.106362 87.177312 
L 216.070855 111.44812 
L 231.928356 124.271674 
L 234.333278 134.930842 
L 234.10349 143.341391 
L 231.545852 148.93724 
L 230.920001 155.170555 
L 233.309223 164.801069 
L 232.74189 168.850011 
L 228.399471 173.486449 
L 227.778616 179.327862 
L 225.985985 183.059142 
L 221.626439 183.648066 
L 217.06351 179.624108 
L 212.896643 180.070977 
L 209.961496 183.618798 
L 206.394075 185.818162 
L 203.821451 187.405044 
L 207.535878 190.563105 
L 207.152661 193.898199 
L 203.564545 195.250226 
L 202.033816 198.478958 
L 199.607485 200.219317 
L 196.473236 200.798961 
L 194.85473 197.211165 
L 191.449303 197.097663 
L 186.909923 200.109385 
L 183.376757 200.008732 
L 179.611662 202.395124 
L 180.592185 212.794452 
L 179.959912 216.464341 
L 171.642591 218.810757 
L 162.932063 228.462686 
L 160.380847 236.975316 
L 157.407878 253.718604 
L 145.695121 278.418435 
L 144.310685 297.182626 
L 141.142182 315.179431 
L 138.590253 317.755706 
L 132.445926 320.0907 
L 126.868933 320.804547 
L 119.952462 324.547963 
L 119.819728 324.72 
L 121.295508 316.477919 
L 118.527349 303.613676 
L 115.186862 297.792252 
L 110.469076 294.204455 
L 103.967222 291.79522 
L 93.938625 288.250968 
L 85.221673 282.574454 
L 78.734806 282.510922 
L 79.63683 203.967016 
L 39.112819 224.499406 
L 18.01587 204.344641 
z
" clip-path="url(#p2076a5a84c)" style="fill: none; stroke: #000000; stroke-width: 1.2"/>
   </g>
  </g>
 </g>
 <defs>
  <clipPath id="p2076a5a84c">
   <rect x="7.2" y="7.2" width="237.949148" height="332.64"/>
  </clipPath>
 </defs>
</svg>
