<?xml version="1.0" encoding="utf-8" standalone="no"?>
<!DOCTYPE svg PUBLIC "-//W3C//DTD SVG 1.1//EN"
  "http://www.w3.org/Graphics/SVG/1.1/DTD/svg11.dtd">
<svg xmlns:xlink="http://www.w3.org/1999/xlink" width="349.2pt" height="216.996029pt" viewBox="0 0 349.2 216.996029" xmlns="http://www.w3.org/2000/svg" version="1.1">
 <metadata>
  <rdf:RDF xmlns:dc="http://purl.org/dc/elements/1.1/" xmlns:cc="http://creativecommons.org/ns#" xmlns:rdf="http://www.w3.org/1999/02/22-rdf-syntax-ns#">
   <cc:Work>
    <dc:type rdf:resource="http://purl.org/dc/dcmitype/StillImage"/>
    <dc:date>2026-01-20T15:33:09.156949</dc:date>
    <dc:format>image/svg+xml</dc:format>
    <dc:creator>
     <cc:Agent>
      <dc:title>Matplotlib v3.10.0, https://matplotlib.org/</dc:title>
     </cc:Agent>
    </dc:creator>
   </cc:Work>
  </rdf:RDF>
 </metadata>
 <defs>
  <style type="text/css">*{stroke-linejoin: round; stroke-linecap: butt}</style>
 </defs>
 <g id="figure_1">
  <g id="patch_1">
   <path d="M 0 216.996029 
L 349.2 216.996029 
L 349.2 0 
L 0 0 
z
" style="fill: #ffffff"/>
  </g>
  <g id="axes_1">
   <g id="PatchCollection_1">
    <path d="M 22.418182 117.036082 
L 22.76222 112.27175 
L 48.73713 115.114879 
L 55.460085 117.51441 
L 57.933059 120.144422 
L 62.426076 124.776148 
L 63.287751 126.354787 
L 64.218864 130.88548 
L 96.38489 131.595868 
L 101.206164 133.510757 
L 107.555095 136.031843 
L 112.235913 136.349149 
L 136.151326 138.226151 
L 144.136808 138.510306 
L 150.023339 114.736006 
L 158.567488 86.833565 
L 164.984281 66.619096 
L 171.020737 45.386404 
L 172.848244 38.961344 
L 173.62312 38.972395 
L 184.835936 39.116051 
L 197.355467 38.806637 
L 197.904666 38.794008 
L 205.601344 37.737899 
L 209.205858 33.620809 
L 214.074477 33.093544 
L 215.949329 32.893057 
L 230.160646 33.041449 
L 234.454815 33.120381 
L 248.831838 33.372963 
L 265.176825 33.440844 
L 267.832866 33.451895 
L 272.693594 33.578186 
L 287.255262 34.114923 
L 287.455688 32.758872 
L 292.076536 32.792024 
L 292.024457 23.995848 
L 295.300714 23.683278 
L 305.549275 20.998013 
L 310.359501 19.708265 
L 312.422155 19.119433 
L 320.508638 16.40891 
L 324.253608 25.050379 
L 324.648148 25.650262 
L 326.781818 29.298496 
L 301.335592 54.057867 
L 288.206891 66.761173 
L 281.625971 73.233592 
L 273.230168 81.095213 
L 264.597641 89.162057 
L 255.791517 97.702493 
L 246.985393 106.227143 
L 225.127899 126.117991 
L 216.361229 134.816291 
L 209.519912 141.604438 
L 204.138391 146.624509 
L 196.858347 153.679446 
L 188.38837 161.921519 
L 185.017424 165.056695 
L 179.093017 171.188128 
L 174.200726 176.081909 
L 168.66139 180.549456 
L 165.331475 182.380677 
L 141.848478 193.257499 
L 123.920598 191.489423 
L 94.661541 182.854269 
L 85.003211 181.259844 
L 74.887215 179.665419 
L 60.226124 182.885842 
L 52.256423 186.516711 
L 44.823297 193.683731 
L 38.652698 200.061432 
L 37.786289 200.587118 
L 37.311263 198.514366 
L 26.548222 174.471697 
L 24.160469 155.832709 
L 23.565503 149.022461 
L 22.418182 117.036082 
z
" clip-path="url(#p3dc788ffbe)" style="fill: none; stroke: #000000; stroke-width: 1.2"/>
   </g>
  </g>
 </g>
 <defs>
  <clipPath id="p3dc788ffbe">
   <rect x="7.2" y="7.2" width="334.8" height="202.596029"/>
  </clipPath>
 </defs>
</svg>
