<?xml version="1.0" encoding="utf-8" standalone="no"?>
<!DOCTYPE svg PUBLIC "-//W3C//DTD SVG 1.1//EN"
  "http://www.w3.org/Graphics/SVG/1.1/DTD/svg11.dtd">
<svg xmlns:xlink="http://www.w3.org/1999/xlink" width="349.2pt" height="328.249051pt" viewBox="0 0 349.2 328.249051" xmlns="http://www.w3.org/2000/svg" version="1.1">
 <metadata>
  <rdf:RDF xmlns:dc="http://purl.org/dc/elements/1.1/" xmlns:cc="http://creativecommons.org/ns#" xmlns:rdf="http://www.w3.org/1999/02/22-rdf-syntax-ns#">
   <cc:Work>
    <dc:type rdf:resource="http://purl.org/dc/dcmitype/StillImage"/>
    <dc:date>2026-01-20T15:33:07.737013</dc:date>
    <dc:format>image/svg+xml</dc:format>
    <dc:creator>
     <cc:Agent>
      <dc:title>Matplotlib v3.10.0, https://matplotlib.org/</dc:title>
     </cc:Agent>
    </dc:creator>
   </cc:Work>
  </rdf:RDF>
 </metadata>
 <defs>
  <style type="text/css">*{stroke-linejoin: round; stroke-linecap: butt}</style>
 </defs>
 <g id="figure_1">
  <g id="patch_1">
   <path d="M 0 328.249051 
L 349.2 328.249051 
L 349.2 0 
L 0 0 
z
" style="fill: #ffffff"/>
  </g>
  <g id="axes_1">
   <g id="PatchCollection_1">
    <path d="M 22.418182 110.00282 
L 44.968624 95.323557 
L 66.923158 82.700204 
L 87.696944 70.612051 
L 100.998809 62.178027 
L 112.34506 54.94359 
L 118.525538 49.056383 
L 130.628205 34.144585 
L 131.864301 32.372886 
L 133.524728 30.010621 
L 141.753065 21.465866 
L 158.947709 45.99282 
L 170.404655 62.344123 
L 180.570157 76.794541 
L 205.181374 60.59088 
L 214.793401 58.505443 
L 229.257565 55.958626 
L 250.400334 53.448719 
L 275.159145 50.68044 
L 279.660747 73.878621 
L 282.944702 90.285289 
L 284.309942 95.305102 
L 286.044166 100.841661 
L 291.671168 125.054877 
L 293.719028 136.423277 
L 295.361006 144.562018 
L 300.761083 165.185699 
L 306.522765 190.681551 
L 298.589614 191.345938 
L 312.592548 211.092997 
L 313.116505 211.810904 
L 313.640461 212.530657 
L 314.688375 213.968317 
L 317.136583 217.325317 
L 325.49591 232.286944 
L 326.781818 231.685304 
L 321.86142 245.248027 
L 320.986928 247.51248 
L 312.374847 273.770532 
L 302.962071 306.783185 
L 289.512613 294.362838 
L 283.295237 288.641728 
L 275.878663 282.957528 
L 264.052734 273.065543 
L 254.920385 265.498913 
L 243.186702 255.736115 
L 223.243129 240.492123 
L 209.203297 229.548193 
L 202.856777 224.805207 
L 197.026833 219.176373 
L 195.034321 217.681502 
L 193.336995 216.0759 
L 190.975499 214.119649 
L 182.876306 208.232442 
L 162.711343 191.881139 
L 142.361889 175.843574 
L 123.525268 159.769099 
L 112.289712 150.726054 
L 108.162629 155.387836 
L 99.15389 163.963965 
L 88.748548 175.529836 
L 79.623579 183.096466 
L 70.375001 171.296214 
L 64.696341 164.462255 
L 54.829716 150.96228 
L 51.610332 146.994413 
L 32.264514 121.863974 
L 22.418182 110.00282 
z
" clip-path="url(#p9a29479de0)" style="fill: none; stroke: #000000; stroke-width: 1.2"/>
   </g>
  </g>
 </g>
 <defs>
  <clipPath id="p9a29479de0">
   <rect x="7.2" y="7.2" width="334.8" height="313.849051"/>
  </clipPath>
 </defs>
</svg>
