<?xml version="1.0" encoding="utf-8" standalone="no"?>
<!DOCTYPE svg PUBLIC "-//W3C//DTD SVG 1.1//EN"
  "http://www.w3.org/Graphics/SVG/1.1/DTD/svg11.dtd">
<svg xmlns:xlink="http://www.w3.org/1999/xlink" width="349.2pt" height="286.040367pt" viewBox="0 0 349.2 286.040367" xmlns="http://www.w3.org/2000/svg" version="1.1">
 <metadata>
  <rdf:RDF xmlns:dc="http://purl.org/dc/elements/1.1/" xmlns:cc="http://creativecommons.org/ns#" xmlns:rdf="http://www.w3.org/1999/02/22-rdf-syntax-ns#">
   <cc:Work>
    <dc:type rdf:resource="http://purl.org/dc/dcmitype/StillImage"/>
    <dc:date>2026-01-20T15:33:12.675303</dc:date>
    <dc:format>image/svg+xml</dc:format>
    <dc:creator>
     <cc:Agent>
      <dc:title>Matplotlib v3.10.0, https://matplotlib.org/</dc:title>
     </cc:Agent>
    </dc:creator>
   </cc:Work>
  </rdf:RDF>
 </metadata>
 <defs>
  <style type="text/css">*{stroke-linejoin: round; stroke-linecap: butt}</style>
 </defs>
 <g id="figure_1">
  <g id="patch_1">
   <path d="M 0 286.040367 
L 349.2 286.040367 
L 349.2 0 
L 0 0 
z
" style="fill: #ffffff"/>
  </g>
  <g id="axes_1">
   <g id="PatchCollection_1">
    <path d="M 26.946491 25.161405 
L 27.884265 23.112868 
L 29.54384 20.929324 
L 33.195473 19.826539 
L 35.963326 19.547289 
L 35.92141 23.533518 
L 33.017864 30.477087 
L 28.488134 31.441314 
L 27.016114 28.77246 
L 26.946491 25.161405 
z
" clip-path="url(#p7024587bcf)" style="fill: none; stroke: #000000; stroke-width: 1.2"/>
    <path d="M 22.418182 164.973573 
L 36.015188 129.010829 
L 34.95593 117.76199 
L 50.058346 102.315177 
L 38.884633 84.163271 
L 46.713621 66.287062 
L 56.867151 61.470902 
L 57.768692 61.680516 
L 67.515853 63.951459 
L 76.337318 61.211548 
L 80.583585 68.264544 
L 77.291432 73.579515 
L 85.174413 78.786482 
L 86.386414 87.255618 
L 91.214527 93.605872 
L 113.436208 98.129282 
L 117.873582 99.033112 
L 155.087561 101.186812 
L 163.077818 105.456553 
L 195.012559 107.768707 
L 227.358642 105.553189 
L 233.724135 106.885484 
L 247.397868 109.748321 
L 276.684819 109.457703 
L 288.684058 115.334015 
L 302.359922 125.190871 
L 308.172697 129.380319 
L 309.013851 149.13169 
L 309.073528 150.538594 
L 314.159528 160.097726 
L 315.107959 161.879805 
L 323.980575 185.495189 
L 326.781818 199.153528 
L 321.474872 207.621244 
L 320.248663 228.465453 
L 316.530248 227.41738 
L 315.725326 227.190002 
L 311.724869 223.020449 
L 309.956598 221.92548 
L 306.46126 221.546753 
L 300.187413 223.526366 
L 293.408447 222.683645 
L 286.586855 220.915067 
L 281.154873 218.640572 
L 276.859586 219.188412 
L 272.606925 218.851608 
L 268.227807 219.9885 
L 267.555026 219.948709 
L 263.93252 219.735541 
L 259.553402 218.640572 
L 254.921369 216.998473 
L 251.468657 214.008447 
L 247.342454 210.007296 
L 245.616098 207.648955 
L 243.442879 206.064412 
L 243.184281 204.516107 
L 240.068315 198.295174 
L 238.935172 196.540097 
L 238.802321 193.886164 
L 236.337113 190.384536 
L 235.452622 187.339796 
L 235.581211 184.880556 
L 233.963551 184.491171 
L 232.085162 181.319952 
L 225.405657 183.146796 
L 220.006355 180.304565 
L 217.825321 180.738005 
L 211.481141 179.792964 
L 209.378255 178.073414 
L 207.793986 175.181444 
L 206.074735 174.925644 
L 203.204579 173.333994 
L 197.677399 174.072974 
L 193.308227 175.067755 
L 189.883933 179.99192 
L 188.519898 182.450449 
L 186.296238 185.520058 
L 183.212953 191.048197 
L 181.586058 194.195967 
L 178.978763 198.040084 
L 178.509876 200.413347 
L 177.138738 205.031972 
L 174.062556 207.931047 
L 171.703914 208.790822 
L 170.636131 208.633078 
L 169.487358 208.463255 
L 169.0817 208.403568 
L 152.891608 206.012541 
L 148.522436 202.992671 
L 146.590054 200.448875 
L 144.978078 198.492709 
L 143.062037 196.07184 
L 141.854298 196.686472 
L 139.234216 195.042952 
L 138.663737 194.678436 
L 138.605481 194.764413 
L 130.960495 204.229041 
L 101.782951 240.339582 
L 101.221707 241.026691 
L 92.533094 251.658765 
L 87.346922 258.444591 
L 84.192593 260.142824 
L 81.279811 261.777106 
L 78.033125 262.49477 
L 73.42951 263.326122 
L 69.294781 264.16458 
L 60.911654 265.955185 
L 59.819006 266.224487 
L 58.725647 266.493078 
L 58.739145 266.061769 
L 58.751933 265.630461 
L 60.226085 262.661751 
L 61.217141 256.796097 
L 61.543941 254.209667 
L 61.973043 252.322426 
L 63.847169 250.659011 
L 66.114166 250.166594 
L 67.699856 248.763243 
L 68.121143 246.110021 
L 67.679253 242.972908 
L 65.594838 240.256447 
L 63.362653 237.61104 
L 58.389612 235.792013 
L 55.741112 237.666464 
L 52.919976 240.298369 
L 50.89879 238.403312 
L 50.183383 236.697263 
L 49.780566 235.705325 
L 49.08292 233.986486 
L 48.730544 233.117474 
L 47.425476 229.222197 
L 45.84618 227.095498 
L 43.922324 225.286418 
L 42.540528 223.325989 
L 42.561842 220.462442 
L 43.889644 219.470503 
L 47.115016 217.893065 
L 48.877604 216.398052 
L 49.637059 213.658142 
L 47.719596 206.585251 
L 45.319748 203.215786 
L 42.456697 201.278806 
L 37.190957 199.901035 
L 31.677275 195.993678 
L 29.781835 193.340456 
L 23.905121 167.130826 
L 22.418182 164.973573 
z
" clip-path="url(#p7024587bcf)" style="fill: none; stroke: #000000; stroke-width: 1.2"/>
   </g>
  </g>
 </g>
 <defs>
  <clipPath id="p7024587bcf">
   <rect x="7.2" y="7.2" width="334.8" height="271.640367"/>
  </clipPath>
 </defs>
</svg>
