<?xml version="1.0" encoding="utf-8" standalone="no"?>
<!DOCTYPE svg PUBLIC "-//W3C//DTD SVG 1.1//EN"
  "http://www.w3.org/Graphics/SVG/1.1/DTD/svg11.dtd">
<svg xmlns:xlink="http://www.w3.org/1999/xlink" width="349.2pt" height="153.503172pt" viewBox="0 0 349.2 153.503172" xmlns="http://www.w3.org/2000/svg" version="1.1">
 <metadata>
  <rdf:RDF xmlns:dc="http://purl.org/dc/elements/1.1/" xmlns:cc="http://creativecommons.org/ns#" xmlns:rdf="http://www.w3.org/1999/02/22-rdf-syntax-ns#">
   <cc:Work>
    <dc:type rdf:resource="http://purl.org/dc/dcmitype/StillImage"/>
    <dc:date>2026-01-20T15:33:09.844790</dc:date>
    <dc:format>image/svg+xml</dc:format>
    <dc:creator>
     <cc:Agent>
      <dc:title>Matplotlib v3.10.0, https://matplotlib.org/</dc:title>
     </cc:Agent>
    </dc:creator>
   </cc:Work>
  </rdf:RDF>
 </metadata>
 <defs>
  <style type="text/css">*{stroke-linejoin: round; stroke-linecap: butt}</style>
 </defs>
 <g id="figure_1">
  <g id="patch_1">
   <path d="M 0 153.503172 
L 349.2 153.503172 
L 349.2 0 
L 0 0 
z
" style="fill: #ffffff"/>
  </g>
  <g id="axes_1">
   <g id="PatchCollection_1">
    <path d="M 22.418182 41.471709 
L 61.207386 41.257859 
L 81.276757 40.669772 
L 83.254298 54.650205 
L 84.166906 60.739579 
L 89.770831 56.716529 
L 88.830162 53.475367 
L 93.941038 51.640269 
L 93.460014 48.49133 
L 99.126738 44.690149 
L 105.253108 38.632852 
L 110.953237 31.506306 
L 118.320914 25.23115 
L 119.264255 23.382686 
L 120.949173 20.078706 
L 124.003673 18.450774 
L 128.479864 16.289554 
L 130.441371 14.163084 
L 150.556172 13.522871 
L 147.523051 22.892167 
L 168.451584 22.511247 
L 191.885447 21.810889 
L 224.395958 20.434231 
L 236.700807 19.912972 
L 240.108057 19.779316 
L 246.655322 19.525369 
L 249.381122 19.495965 
L 268.100955 19.298154 
L 274.426414 21.065088 
L 274.996962 21.516846 
L 277.013252 28.293212 
L 297.042538 55.465508 
L 309.602597 72.386376 
L 315.521859 79.296399 
L 326.781818 89.372736 
L 326.212607 90.232145 
L 319.104148 100.939339 
L 318.898377 101.250758 
L 318.416017 101.754642 
L 308.365297 112.265361 
L 292.658543 122.693214 
L 285.288193 128.484535 
L 275.698454 139.9803 
L 275.004979 127.876399 
L 274.900757 123.088836 
L 273.960089 123.072797 
L 267.072099 123.088836 
L 255.22823 123.660884 
L 251.291854 122.400507 
L 249.96904 123.88409 
L 242.579984 125.394405 
L 230.487586 125.608254 
L 220.933924 126.076051 
L 199.955953 125.19392 
L 192.045788 125.367673 
L 189.092838 125.434502 
L 187.729938 125.461233 
L 177.120697 125.888932 
L 175.517285 125.661717 
L 167.059288 125.982492 
L 155.434552 126.423557 
L 148.032135 126.704235 
L 134.029005 126.757697 
L 123.232699 126.797794 
L 114.440657 127.078472 
L 93.957072 127.720022 
L 63.345268 127.158666 
L 48.416168 126.879324 
L 35.266855 125.259412 
L 31.01915 125.568158 
L 28.527181 125.386385 
L 23.810478 126.513107 
L 24.168573 81.568553 
L 22.418182 41.471709 
z
" clip-path="url(#p2c60563f49)" style="fill: none; stroke: #000000; stroke-width: 1.2"/>
   </g>
  </g>
 </g>
 <defs>
  <clipPath id="p2c60563f49">
   <rect x="7.2" y="7.2" width="334.8" height="139.103172"/>
  </clipPath>
 </defs>
</svg>
