<?xml version="1.0" encoding="utf-8" standalone="no"?>
<!DOCTYPE svg PUBLIC "-//W3C//DTD SVG 1.1//EN"
  "http://www.w3.org/Graphics/SVG/1.1/DTD/svg11.dtd">
<svg xmlns:xlink="http://www.w3.org/1999/xlink" width="349.2pt" height="297.252443pt" viewBox="0 0 349.2 297.252443" xmlns="http://www.w3.org/2000/svg" version="1.1">
 <metadata>
  <rdf:RDF xmlns:dc="http://purl.org/dc/elements/1.1/" xmlns:cc="http://creativecommons.org/ns#" xmlns:rdf="http://www.w3.org/1999/02/22-rdf-syntax-ns#">
   <cc:Work>
    <dc:type rdf:resource="http://purl.org/dc/dcmitype/StillImage"/>
    <dc:date>2026-01-20T15:33:12.476833</dc:date>
    <dc:format>image/svg+xml</dc:format>
    <dc:creator>
     <cc:Agent>
      <dc:title>Matplotlib v3.10.0, https://matplotlib.org/</dc:title>
     </cc:Agent>
    </dc:creator>
   </cc:Work>
  </rdf:RDF>
 </metadata>
 <defs>
  <style type="text/css">*{stroke-linejoin: round; stroke-linecap: butt}</style>
 </defs>
 <g id="figure_1">
  <g id="patch_1">
   <path d="M 0 297.252443 
L 349.2 297.252443 
L 349.2 0 
L 0 0 
z
" style="fill: #ffffff"/>
  </g>
  <g id="axes_1">
   <g id="PatchCollection_1">
    <path d="M 22.418182 185.906845 
L 22.467443 185.473445 
L 23.628736 184.922343 
L 28.222822 183.978899 
L 32.633545 183.52725 
L 33.284891 183.320131 
L 36.305347 182.358439 
L 40.229842 180.602028 
L 44.407942 178.153089 
L 45.271841 177.513481 
L 46.136653 176.873874 
L 50.117708 174.726034 
L 53.873436 170.18765 
L 60.805616 161.876404 
L 63.28602 157.995876 
L 64.02403 156.309722 
L 71.020979 138.958205 
L 74.316934 140.309501 
L 81.965229 142.330514 
L 81.972527 141.929049 
L 82.053717 137.321321 
L 82.175046 130.405167 
L 90.868778 117.996237 
L 90.640716 110.459636 
L 83.926564 102.941285 
L 80.295813 93.972183 
L 79.948247 91.134552 
L 80.520227 90.178335 
L 81.806498 88.030495 
L 80.268446 85.704733 
L 80.325918 84.111645 
L 82.33469 82.526769 
L 82.778043 81.717452 
L 88.168522 83.807809 
L 92.409567 85.702908 
L 96.150699 86.818799 
L 103.038179 87.649103 
L 109.478656 89.382703 
L 109.701245 85.16093 
L 111.673527 85.122608 
L 113.878432 85.238486 
L 114.420308 82.762174 
L 116.005797 81.563252 
L 118.404099 81.67913 
L 119.255227 81.67913 
L 120.611742 80.217431 
L 121.707352 76.625228 
L 123.191581 75.919014 
L 125.593533 72.950907 
L 126.299613 70.265651 
L 125.522377 68.428947 
L 127.288491 66.30848 
L 128.771808 66.025629 
L 130.447609 67.37875 
L 136.690128 66.870531 
L 139.169621 66.371437 
L 141.012364 65.024703 
L 143.299372 60.679753 
L 143.368703 60.550189 
L 149.608485 59.281923 
L 158.801217 56.840283 
L 160.196958 56.46984 
L 161.204993 55.713443 
L 162.069805 54.783686 
L 165.508984 53.113955 
L 168.50116 52.812856 
L 172.104543 51.170497 
L 174.138858 48.177755 
L 175.571089 46.179552 
L 181.728769 39.299895 
L 185.240927 36.69037 
L 187.439447 32.529729 
L 192.110162 28.140982 
L 192.995043 24.144577 
L 195.093215 20.056929 
L 258.669666 48.152207 
L 260.349116 48.894006 
L 326.781818 78.275798 
L 325.810273 89.198394 
L 325.255626 100.435776 
L 324.078825 107.63478 
L 326.002758 114.135782 
L 323.209451 120.040973 
L 324.100719 137.161647 
L 324.087035 137.187195 
L 318.643646 146.947366 
L 310.693397 158.114491 
L 299.581293 169.903887 
L 286.140217 210.520324 
L 284.336701 209.044026 
L 284.156988 209.521222 
L 283.079622 209.247496 
L 282.532273 209.265744 
L 282.003169 209.393483 
L 281.510554 209.639837 
L 281.081797 209.977433 
L 276.867207 210.926351 
L 271.630898 212.148996 
L 269.350276 212.869809 
L 243.889409 219.667348 
L 241.380725 220.333415 
L 223.646606 225.059758 
L 166.603682 240.297194 
L 161.349129 241.702323 
L 154.936019 243.417675 
L 130.177584 249.175054 
L 73.070802 264.093143 
L 72.64387 264.208108 
L 71.078451 264.631472 
L 64.623377 266.374196 
L 41.507902 272.857863 
L 26.044371 277.195514 
L 23.681647 267.642462 
L 23.490074 262.469033 
L 23.882341 257.697069 
L 25.652104 252.925106 
L 28.206401 245.762598 
L 26.637333 237.413943 
L 25.259837 227.067085 
L 25.085598 224.02416 
L 25.019003 222.871771 
L 24.666875 216.720227 
L 25.843676 208.763913 
L 26.245066 202.605068 
L 26.436638 198.426179 
L 25.140333 194.879597 
L 23.83308 192.676099 
L 23.238294 190.542858 
L 22.418182 185.906845 
z
" clip-path="url(#pe1dfd329f5)" style="fill: none; stroke: #000000; stroke-width: 1.2"/>
   </g>
  </g>
 </g>
 <defs>
  <clipPath id="pe1dfd329f5">
   <rect x="7.2" y="7.2" width="334.8" height="282.852443"/>
  </clipPath>
 </defs>
</svg>
