<?xml version="1.0" encoding="utf-8" standalone="no"?>
<!DOCTYPE svg PUBLIC "-//W3C//DTD SVG 1.1//EN"
  "http://www.w3.org/Graphics/SVG/1.1/DTD/svg11.dtd">
<svg xmlns:xlink="http://www.w3.org/1999/xlink" width="349.2pt" height="331.222406pt" viewBox="0 0 349.2 331.222406" xmlns="http://www.w3.org/2000/svg" version="1.1">
 <metadata>
  <rdf:RDF xmlns:dc="http://purl.org/dc/elements/1.1/" xmlns:cc="http://creativecommons.org/ns#" xmlns:rdf="http://www.w3.org/1999/02/22-rdf-syntax-ns#">
   <cc:Work>
    <dc:type rdf:resource="http://purl.org/dc/dcmitype/StillImage"/>
    <dc:date>2026-01-20T15:33:11.273553</dc:date>
    <dc:format>image/svg+xml</dc:format>
    <dc:creator>
     <cc:Agent>
      <dc:title>Matplotlib v3.10.0, https://matplotlib.org/</dc:title>
     </cc:Agent>
    </dc:creator>
   </cc:Work>
  </rdf:RDF>
 </metadata>
 <defs>
  <style type="text/css">*{stroke-linejoin: round; stroke-linecap: butt}</style>
 </defs>
 <g id="figure_1">
  <g id="patch_1">
   <path d="M 0 331.222406 
L 349.2 331.222406 
L 349.2 0 
L 0 0 
z
" style="fill: #ffffff"/>
  </g>
  <g id="axes_1">
   <g id="PatchCollection_1">
    <path d="M 22.418182 222.383116 
L 33.036104 188.312123 
L 64.776423 151.998217 
L 66.357697 102.830636 
L 68.730307 101.753309 
L 92.653897 90.887576 
L 102.969291 86.202815 
L 123.611283 60.040159 
L 126.733212 56.270215 
L 136.239061 24.732131 
L 139.720944 21.601018 
L 153.207288 35.894865 
L 153.812346 36.536498 
L 156.277396 41.173627 
L 164.344832 50.195716 
L 168.126443 54.104353 
L 175.70367 61.809553 
L 182.314486 69.430696 
L 186.348204 73.773627 
L 197.903125 85.821758 
L 211.236805 100.335552 
L 220.323875 109.995071 
L 220.368694 108.291521 
L 326.781818 223.104602 
L 324.536662 229.407456 
L 323.760731 231.585926 
L 314.782908 256.793137 
L 310.37383 269.145273 
L 274.403709 288.377452 
L 270.290157 290.576936 
L 269.38117 291.063064 
L 265.259214 291.582815 
L 251.672027 292.867482 
L 245.173259 293.694039 
L 173.235819 301.172286 
L 143.576786 304.255767 
L 137.883361 304.85257 
L 117.36042 307.004422 
L 92.408793 309.621388 
L 52.106627 294.000847 
L 33.529114 265.390739 
L 22.418182 222.383116 
z
" clip-path="url(#pd1b7d01416)" style="fill: none; stroke: #000000; stroke-width: 1.2"/>
   </g>
  </g>
 </g>
 <defs>
  <clipPath id="pd1b7d01416">
   <rect x="7.2" y="7.2" width="334.8" height="316.822406"/>
  </clipPath>
 </defs>
</svg>
