<?xml version="1.0" encoding="utf-8" standalone="no"?>
<!DOCTYPE svg PUBLIC "-//W3C//DTD SVG 1.1//EN"
  "http://www.w3.org/Graphics/SVG/1.1/DTD/svg11.dtd">
<svg xmlns:xlink="http://www.w3.org/1999/xlink" width="264.461405pt" height="347.04pt" viewBox="0 0 264.461405 347.04" xmlns="http://www.w3.org/2000/svg" version="1.1">
 <metadata>
  <rdf:RDF xmlns:dc="http://purl.org/dc/elements/1.1/" xmlns:cc="http://creativecommons.org/ns#" xmlns:rdf="http://www.w3.org/1999/02/22-rdf-syntax-ns#">
   <cc:Work>
    <dc:type rdf:resource="http://purl.org/dc/dcmitype/StillImage"/>
    <dc:date>2026-01-20T15:33:09.904488</dc:date>
    <dc:format>image/svg+xml</dc:format>
    <dc:creator>
     <cc:Agent>
      <dc:title>Matplotlib v3.10.0, https://matplotlib.org/</dc:title>
     </cc:Agent>
    </dc:creator>
   </cc:Work>
  </rdf:RDF>
 </metadata>
 <defs>
  <style type="text/css">*{stroke-linejoin: round; stroke-linecap: butt}</style>
 </defs>
 <g id="figure_1">
  <g id="patch_1">
   <path d="M 0 347.04 
L 264.461405 347.04 
L 264.461405 -0 
L 0 -0 
z
" style="fill: #ffffff"/>
  </g>
  <g id="axes_1">
   <g id="PatchCollection_1">
    <path d="M 18.566428 36.641745 
L 21.440778 37.511844 
L 25.179285 37.481938 
L 32.706127 32.718467 
L 43.592784 25.38742 
L 48.148466 22.32 
L 48.302221 23.679975 
L 53.93703 24.528713 
L 55.443253 24.315104 
L 69.080403 26.229037 
L 71.379599 26.613533 
L 74.474616 27.157523 
L 77.27636 27.590436 
L 77.505568 27.63743 
L 85.962054 28.923354 
L 98.17413 30.306114 
L 144.069782 35.968166 
L 148.79915 36.831144 
L 152.724155 38.001719 
L 154.811227 39.088275 
L 156.48544 40.885436 
L 160.199745 46.286885 
L 163.159515 51.141496 
L 164.79529 53.281855 
L 168.23483 58.189156 
L 170.414439 60.998821 
L 173.056735 64.187286 
L 181.71965 73.923566 
L 182.082681 74.42341 
L 183.043645 75.747783 
L 183.410947 77.640355 
L 190.272943 87.822365 
L 195.611634 95.070817 
L 197.923642 97.937445 
L 198.288097 98.388871 
L 209.883732 113.875494 
L 211.200609 115.634205 
L 213.378795 122.270312 
L 214.120517 124.214151 
L 214.275695 124.620007 
L 215.03023 125.787734 
L 218.204971 129.40484 
L 226.556106 141.143344 
L 228.21893 144.778963 
L 229.053189 146.653022 
L 231.397942 151.914914 
L 234.868803 160.188687 
L 236.826322 162.6993 
L 238.292683 164.450891 
L 241.453187 169.6487 
L 243.460535 179.702545 
L 239.502786 194.370336 
L 241.0446 203.898703 
L 241.680971 206.688432 
L 242.597803 209.090816 
L 244.091212 214.089258 
L 245.809559 219.547669 
L 245.842303 221.294988 
L 245.855115 221.947206 
L 245.894978 224.076172 
L 237.939617 250.163478 
L 233.25723 263.630788 
L 233.839503 267.286343 
L 231.316794 273.177669 
L 229.708069 277.592246 
L 224.597163 286.093869 
L 220.183845 292.737096 
L 215.485798 299.807541 
L 214.98752 301.758499 
L 212.083273 304.805982 
L 190.620314 324.72 
L 180.892509 313.378807 
L 172.178342 300.804381 
L 164.533338 289.554328 
L 156.804338 278.532124 
L 147.990516 265.715608 
L 130.678923 242.430847 
L 117.844712 225.525862 
L 115.901429 222.894204 
L 119.16586 220.61144 
L 111.834058 210.645887 
L 126.063448 199.737608 
L 137.939542 190.632185 
L 143.750884 186.17631 
L 149.17357 182.019486 
L 142.268864 172.543809 
L 134.329164 159.107828 
L 129.639658 152.346403 
L 129.252425 151.82235 
L 128.272954 150.492281 
L 129.068774 149.949715 
L 111.513737 126.686314 
L 116.869511 122.555124 
L 123.546433 117.428518 
L 97.4139 84.760642 
L 87.969401 72.955207 
L 85.036681 69.765318 
L 70.629335 81.399867 
L 68.237602 79.49163 
L 61.703045 74.065972 
L 57.933218 71.469915 
L 54.381209 68.238729 
L 51.39439 65.602799 
L 46.905619 61.639647 
L 42.522199 57.716369 
L 37.700293 53.360178 
L 32.959536 49.486742 
L 27.710536 45.328494 
L 18.566428 36.641745 
z
" clip-path="url(#p88724ea77f)" style="fill: none; stroke: #000000; stroke-width: 1.2"/>
   </g>
  </g>
 </g>
 <defs>
  <clipPath id="p88724ea77f">
   <rect x="7.2" y="7.2" width="250.061405" height="332.64"/>
  </clipPath>
 </defs>
</svg>
