<?xml version="1.0" encoding="utf-8" standalone="no"?>
<!DOCTYPE svg PUBLIC "-//W3C//DTD SVG 1.1//EN"
  "http://www.w3.org/Graphics/SVG/1.1/DTD/svg11.dtd">
<svg xmlns:xlink="http://www.w3.org/1999/xlink" width="261.18322pt" height="347.04pt" viewBox="0 0 261.18322 347.04" xmlns="http://www.w3.org/2000/svg" version="1.1">
 <metadata>
  <rdf:RDF xmlns:dc="http://purl.org/dc/elements/1.1/" xmlns:cc="http://creativecommons.org/ns#" xmlns:rdf="http://www.w3.org/1999/02/22-rdf-syntax-ns#">
   <cc:Work>
    <dc:type rdf:resource="http://purl.org/dc/dcmitype/StillImage"/>
    <dc:date>2026-01-20T15:33:10.648042</dc:date>
    <dc:format>image/svg+xml</dc:format>
    <dc:creator>
     <cc:Agent>
      <dc:title>Matplotlib v3.10.0, https://matplotlib.org/</dc:title>
     </cc:Agent>
    </dc:creator>
   </cc:Work>
  </rdf:RDF>
 </metadata>
 <defs>
  <style type="text/css">*{stroke-linejoin: round; stroke-linecap: butt}</style>
 </defs>
 <g id="figure_1">
  <g id="patch_1">
   <path d="M 0 347.04 
L 261.18322 347.04 
L 261.18322 -0 
L 0 -0 
z
" style="fill: #ffffff"/>
  </g>
  <g id="axes_1">
   <g id="PatchCollection_1">
    <path d="M 18.417419 139.785606 
L 47.565764 136.755204 
L 118.264541 129.405687 
L 124.65141 128.593357 
L 138.004644 127.330804 
L 142.055625 126.82 
L 142.948961 126.342241 
L 146.991683 124.180618 
L 182.342449 105.279499 
L 186.675608 93.139991 
L 195.498846 68.366694 
L 196.261416 66.225724 
L 198.467914 60.031367 
L 203.635221 45.534726 
L 227.901191 22.32 
L 227.378128 105.324935 
L 227.323069 111.245302 
L 225.478586 116.642475 
L 225.521257 121.572902 
L 223.923163 125.054905 
L 226.731183 130.810053 
L 228.685785 150.361035 
L 229.140023 156.460391 
L 229.690615 162.188003 
L 229.892958 167.685684 
L 232.041643 193.121237 
L 232.460093 199.661178 
L 232.862026 202.829263 
L 234.370648 218.596717 
L 234.427084 219.085492 
L 234.54959 220.129129 
L 235.236454 228.742576 
L 235.990765 239.214743 
L 236.001777 239.413006 
L 236.976325 252.589267 
L 237.520035 259.331602 
L 238.19038 268.228676 
L 238.753361 272.176047 
L 239.736168 285.689631 
L 241.297096 302.025715 
L 241.348026 303.129933 
L 241.715546 311.177503 
L 242.127114 311.119676 
L 242.175291 312.992164 
L 242.765801 320.025011 
L 239.602649 319.192029 
L 233.418124 319.227826 
L 226.436616 319.40406 
L 219.515673 320.19023 
L 216.183215 320.421538 
L 210.322162 320.827702 
L 199.820994 321.554668 
L 193.767234 322.015906 
L 191.666726 322.182503 
L 181.029286 323.027876 
L 170.835074 323.838829 
L 160.902393 324.72 
L 151.554715 318.72666 
L 147.026095 316.189163 
L 144.073545 314.589287 
L 140.164342 312.482737 
L 135.153954 309.46748 
L 127.638372 304.855101 
L 121.733271 301.426794 
L 117.356064 298.920964 
L 116.537059 298.593279 
L 112.221793 296.759342 
L 105.711042 294.060755 
L 100.838302 292.794072 
L 95.470029 291.609998 
L 82.186995 292.32595 
L 78.085084 292.959292 
L 69.018208 295.418309 
L 61.275507 298.890674 
L 52.280209 303.964292 
L 41.569816 313.191805 
L 38.050156 316.099669 
L 33.037016 320.239796 
L 30.362514 321.967717 
L 29.233801 307.429772 
L 28.212452 295.399034 
L 27.510447 280.015715 
L 27.189728 274.39825 
L 27.108515 272.831418 
L 26.779536 266.996413 
L 26.288133 259.2545 
L 25.394797 245.371925 
L 24.944688 240.690704 
L 23.149758 210.624873 
L 23.35623 206.645835 
L 22.66799 197.6276 
L 22.578519 196.739545 
L 20.355503 174.758458 
L 19.639734 166.772846 
L 18.417419 139.785606 
z
" clip-path="url(#pfa2e891484)" style="fill: none; stroke: #000000; stroke-width: 1.2"/>
   </g>
  </g>
 </g>
 <defs>
  <clipPath id="pfa2e891484">
   <rect x="7.2" y="7.2" width="246.78322" height="332.64"/>
  </clipPath>
 </defs>
</svg>
