<?xml version="1.0" encoding="utf-8" standalone="no"?>
<!DOCTYPE svg PUBLIC "-//W3C//DTD SVG 1.1//EN"
  "http://www.w3.org/Graphics/SVG/1.1/DTD/svg11.dtd">
<svg xmlns:xlink="http://www.w3.org/1999/xlink" width="298.745584pt" height="347.04pt" viewBox="0 0 298.745584 347.04" xmlns="http://www.w3.org/2000/svg" version="1.1">
 <metadata>
  <rdf:RDF xmlns:dc="http://purl.org/dc/elements/1.1/" xmlns:cc="http://creativecommons.org/ns#" xmlns:rdf="http://www.w3.org/1999/02/22-rdf-syntax-ns#">
   <cc:Work>
    <dc:type rdf:resource="http://purl.org/dc/dcmitype/StillImage"/>
    <dc:date>2026-01-20T15:33:09.021037</dc:date>
    <dc:format>image/svg+xml</dc:format>
    <dc:creator>
     <cc:Agent>
      <dc:title>Matplotlib v3.10.0, https://matplotlib.org/</dc:title>
     </cc:Agent>
    </dc:creator>
   </cc:Work>
  </rdf:RDF>
 </metadata>
 <defs>
  <style type="text/css">*{stroke-linejoin: round; stroke-linecap: butt}</style>
 </defs>
 <g id="figure_1">
  <g id="patch_1">
   <path d="M 0 347.04 
L 298.745584 347.04 
L 298.745584 -0 
L 0 -0 
z
" style="fill: #ffffff"/>
  </g>
  <g id="axes_1">
   <g id="PatchCollection_1">
    <path d="M 20.124799 180.981875 
L 70.933598 128.597623 
L 93.497896 107.280777 
L 130.698553 63.588092 
L 136.40919 56.440436 
L 157.482244 22.32 
L 176.761893 40.620783 
L 177.550991 42.069015 
L 180.870421 45.25904 
L 190.928707 59.530433 
L 199.328365 73.406062 
L 212.445221 97.040949 
L 218.853656 108.076652 
L 225.609902 120.99984 
L 230.737954 129.286946 
L 235.150818 137.510991 
L 240.674506 148.066124 
L 247.972034 159.856387 
L 255.078266 175.973949 
L 257.056447 179.844599 
L 266.403892 194.28343 
L 278.620785 216.724504 
L 275.773075 218.877282 
L 271.642809 220.399448 
L 261.947552 230.467488 
L 259.99111 233.250877 
L 258.534647 235.338419 
L 244.274359 252.908562 
L 236.992047 259.84529 
L 223.623027 268.369419 
L 207.949752 278.306987 
L 183.472489 292.550111 
L 157.603978 307.423846 
L 131.033322 324.72 
L 127.909537 321.710461 
L 111.127612 299.726036 
L 106.084339 293.637372 
L 86.650349 269.608897 
L 76.302944 256.779213 
L 67.738076 246.363249 
L 64.086051 239.883171 
L 47.99975 217.202899 
L 40.304412 206.656464 
L 38.913164 204.742884 
L 29.826578 192.043672 
L 21.87038 183.019402 
L 20.124799 180.981875 
z
" clip-path="url(#p4087878507)" style="fill: none; stroke: #000000; stroke-width: 1.2"/>
   </g>
  </g>
 </g>
 <defs>
  <clipPath id="p4087878507">
   <rect x="7.2" y="7.2" width="284.345584" height="332.64"/>
  </clipPath>
 </defs>
</svg>
