<?xml version="1.0" encoding="utf-8" standalone="no"?>
<!DOCTYPE svg PUBLIC "-//W3C//DTD SVG 1.1//EN"
  "http://www.w3.org/Graphics/SVG/1.1/DTD/svg11.dtd">
<svg xmlns:xlink="http://www.w3.org/1999/xlink" width="349.2pt" height="302.203631pt" viewBox="0 0 349.2 302.203631" xmlns="http://www.w3.org/2000/svg" version="1.1">
 <metadata>
  <rdf:RDF xmlns:dc="http://purl.org/dc/elements/1.1/" xmlns:cc="http://creativecommons.org/ns#" xmlns:rdf="http://www.w3.org/1999/02/22-rdf-syntax-ns#">
   <cc:Work>
    <dc:type rdf:resource="http://purl.org/dc/dcmitype/StillImage"/>
    <dc:date>2026-01-20T15:33:07.795323</dc:date>
    <dc:format>image/svg+xml</dc:format>
    <dc:creator>
     <cc:Agent>
      <dc:title>Matplotlib v3.10.0, https://matplotlib.org/</dc:title>
     </cc:Agent>
    </dc:creator>
   </cc:Work>
  </rdf:RDF>
 </metadata>
 <defs>
  <style type="text/css">*{stroke-linejoin: round; stroke-linecap: butt}</style>
 </defs>
 <g id="figure_1">
  <g id="patch_1">
   <path d="M 0 302.203631 
L 349.2 302.203631 
L 349.2 0 
L 0 0 
z
" style="fill: #ffffff"/>
  </g>
  <g id="axes_1">
   <g id="PatchCollection_1">
    <path d="M 22.418182 250.782536 
L 22.85096 237.578562 
L 31.722913 238.691778 
L 38.307324 239.52669 
L 38.492801 219.148661 
L 47.179278 222.642921 
L 56.824049 222.921225 
L 74.815257 221.282324 
L 73.022319 199.976616 
L 69.683744 173.321288 
L 69.096402 157.829039 
L 68.478148 150.345757 
L 66.994337 130.617104 
L 63.006595 86.150328 
L 57.040438 40.694027 
L 78.679348 39.982806 
L 111.941444 35.127949 
L 132.869362 33.612739 
L 139.370309 31.856332 
L 150.022835 28.971249 
L 184.122666 25.2327 
L 197.628437 24.020532 
L 220.748067 22.053851 
L 223.715689 21.791009 
L 239.249335 21.920884 
L 278.907275 20.281983 
L 296.638816 20.838591 
L 303.158311 22.381631 
L 304.484467 55.812112 
L 314.184881 56.056401 
L 312.008625 100.189212 
L 288.576777 103.559782 
L 290.307889 113.671489 
L 295.161188 133.95675 
L 297.015952 145.057983 
L 296.644999 150.129298 
L 299.983574 158.323801 
L 307.30989 167.415061 
L 314.357992 176.568167 
L 326.781818 189.707202 
L 324.049133 193.770439 
L 323.365962 195.746397 
L 322.206734 204.24085 
L 322.287107 205.548878 
L 322.648786 211.442736 
L 323.477247 231.669243 
L 324.234609 253.834602 
L 324.305709 254.901433 
L 325.270186 281.921648 
L 303.365426 276.012329 
L 291.915351 272.923156 
L 268.919372 266.871592 
L 257.602222 263.893741 
L 247.339196 259.719182 
L 241.033 265.841868 
L 213.05698 266.491244 
L 175.312538 270.356575 
L 135.033253 273.510686 
L 125.110267 274.25283 
L 77.207902 278.285144 
L 68.539973 279.014918 
L 63.84433 279.308684 
L 55.649365 279.818907 
L 45.540903 280.932123 
L 33.515851 281.241349 
L 23.160087 281.272272 
L 23.005524 257.70921 
L 22.418182 250.782536 
z
" clip-path="url(#p469c41e2d2)" style="fill: none; stroke: #000000; stroke-width: 1.2"/>
   </g>
  </g>
 </g>
 <defs>
  <clipPath id="p469c41e2d2">
   <rect x="7.2" y="7.2" width="334.8" height="287.803631"/>
  </clipPath>
 </defs>
</svg>
