<?xml version="1.0" encoding="utf-8" standalone="no"?>
<!DOCTYPE svg PUBLIC "-//W3C//DTD SVG 1.1//EN"
  "http://www.w3.org/Graphics/SVG/1.1/DTD/svg11.dtd">
<svg xmlns:xlink="http://www.w3.org/1999/xlink" width="341.444968pt" height="347.04pt" viewBox="0 0 341.444968 347.04" xmlns="http://www.w3.org/2000/svg" version="1.1">
 <metadata>
  <rdf:RDF xmlns:dc="http://purl.org/dc/elements/1.1/" xmlns:cc="http://creativecommons.org/ns#" xmlns:rdf="http://www.w3.org/1999/02/22-rdf-syntax-ns#">
   <cc:Work>
    <dc:type rdf:resource="http://purl.org/dc/dcmitype/StillImage"/>
    <dc:date>2026-01-20T15:33:11.522349</dc:date>
    <dc:format>image/svg+xml</dc:format>
    <dc:creator>
     <cc:Agent>
      <dc:title>Matplotlib v3.10.0, https://matplotlib.org/</dc:title>
     </cc:Agent>
    </dc:creator>
   </cc:Work>
  </rdf:RDF>
 </metadata>
 <defs>
  <style type="text/css">*{stroke-linejoin: round; stroke-linecap: butt}</style>
 </defs>
 <g id="figure_1">
  <g id="patch_1">
   <path d="M 0 347.04 
L 341.444968 347.04 
L 341.444968 -0 
L 0 -0 
z
" style="fill: #ffffff"/>
  </g>
  <g id="axes_1">
   <g id="PatchCollection_1">
    <path d="M 22.06568 220.32194 
L 48.963598 229.051615 
L 75.98199 220.558342 
L 77.904991 214.38778 
L 88.043198 181.856054 
L 80.182531 162.810741 
L 78.405246 158.503856 
L 96.777019 142.604073 
L 101.75089 111.224521 
L 90.816404 104.014248 
L 94.662406 102.24123 
L 95.859118 95.558845 
L 97.373654 88.1684 
L 98.475134 83.00427 
L 99.694794 75.306273 
L 104.387559 72.517643 
L 111.647002 72.366161 
L 123.143701 76.01548 
L 133.494173 79.591354 
L 141.159787 78.518362 
L 147.162855 72.177958 
L 150.439758 66.341343 
L 146.56163 60.029628 
L 143.704666 55.485193 
L 141.586611 47.418821 
L 144.307038 40.684795 
L 149.135193 37.35221 
L 155.187597 34.835557 
L 160.28768 29.462566 
L 162.349513 25.544713 
L 167.564334 22.32 
L 173.031577 22.92822 
L 176.083595 22.79051 
L 179.330667 23.903667 
L 181.233015 25.380608 
L 187.013491 26.401958 
L 191.570866 29.495846 
L 193.406666 31.400836 
L 195.616511 35.141962 
L 193.927574 38.505532 
L 197.408711 42.242067 
L 200.115369 44.04607 
L 198.439054 47.007986 
L 198.791298 49.308893 
L 199.974242 53.445935 
L 201.680389 57.843479 
L 200.580056 65.21671 
L 198.51478 78.884442 
L 200.453845 90.8767 
L 206.007141 104.957562 
L 207.670835 112.485717 
L 207.544624 126.015738 
L 204.515553 141.209758 
L 200.511213 147.349335 
L 195.94466 157.677596 
L 193.535172 167.130249 
L 193.408961 167.627153 
L 212.042334 170.874818 
L 220.429647 172.206016 
L 226.533684 173.3536 
L 230.136442 174.145434 
L 236.171636 175.465156 
L 252.166046 178.402972 
L 261.74663 180.239107 
L 273.954702 182.626083 
L 277.00672 183.199876 
L 289.32953 185.97703 
L 293.919031 187.032808 
L 309.087332 189.993576 
L 313.183461 190.475561 
L 318.208965 191.049354 
L 319.379287 191.175588 
L 317.52054 192.770731 
L 311.290292 196.328243 
L 302.994769 199.266059 
L 298.000245 201.706971 
L 293.004573 204.147884 
L 290.408063 205.417112 
L 276.983773 216.169979 
L 272.428693 222.034136 
L 264.68391 232.086977 
L 260.886098 237.526527 
L 258.247135 242.667706 
L 257.134181 247.694126 
L 251.25962 253.214008 
L 248.494446 258.446993 
L 244.077051 261.729085 
L 236.332268 270.381872 
L 234.530889 272.895083 
L 231.972242 276.65916 
L 227.44011 278.724812 
L 223.676719 279.103515 
L 219.351115 281.203595 
L 218.263403 282.372983 
L 216.995553 283.324331 
L 215.240069 283.79025 
L 203.677969 286.861186 
L 195.829922 288.456329 
L 195.742722 288.619286 
L 192.866252 294.084083 
L 190.548554 295.777918 
L 187.429988 296.405647 
L 179.5785 297.044851 
L 177.470771 295.342984 
L 175.605139 295.698735 
L 173.383821 298.365721 
L 174.361384 300.675809 
L 173.473316 304.05315 
L 170.452277 307.786243 
L 168.585498 308.674473 
L 167.2075 313.192513 
L 165.501353 315.030944 
L 164.430852 315.030944 
L 161.414402 314.885201 
L 159.420264 316.393127 
L 158.738723 319.507671 
L 155.965517 319.361928 
L 153.484892 319.410126 
L 153.204933 324.72 
L 145.104463 322.539589 
L 136.44178 321.495287 
L 131.736395 320.091792 
L 126.402247 317.708259 
L 119.622407 315.079142 
L 114.708199 311.624913 
L 111.509317 308.240686 
L 107.702326 304.909248 
L 105.074836 298.680159 
L 104.199389 293.911946 
L 105.12991 283.992225 
L 103.810429 275.95569 
L 103.278047 271.218462 
L 101.722206 266.13581 
L 99.094717 262.165167 
L 96.366258 258.583556 
L 95.529822 257.847954 
L 93.933823 256.442163 
L 90.707404 255.348515 
L 88.079914 256.805947 
L 86.634222 262.325829 
L 86.976139 267.293722 
L 85.224097 271.088784 
L 81.03503 271.667167 
L 76.747289 269.633647 
L 76.273423 269.408721 
L 75.759399 269.165433 
L 74.598255 268.614592 
L 68.682389 264.471812 
L 61.632915 257.701063 
L 52.212965 252.100851 
L 44.064306 250.359965 
L 30.91768 244.457938 
L 25.054593 241.02666 
L 23.240593 236.053029 
L 23.046686 223.498454 
L 22.06568 220.32194 
z
" clip-path="url(#p95e599e13c)" style="fill: none; stroke: #000000; stroke-width: 1.2"/>
   </g>
  </g>
 </g>
 <defs>
  <clipPath id="p95e599e13c">
   <rect x="7.2" y="7.2" width="327.044968" height="332.64"/>
  </clipPath>
 </defs>
</svg>
