<?xml version="1.0" encoding="utf-8" standalone="no"?>
<!DOCTYPE svg PUBLIC "-//W3C//DTD SVG 1.1//EN"
  "http://www.w3.org/Graphics/SVG/1.1/DTD/svg11.dtd">
<svg xmlns:xlink="http://www.w3.org/1999/xlink" width="202.720497pt" height="347.04pt" viewBox="0 0 202.720497 347.04" xmlns="http://www.w3.org/2000/svg" version="1.1">
 <metadata>
  <rdf:RDF xmlns:dc="http://purl.org/dc/elements/1.1/" xmlns:cc="http://creativecommons.org/ns#" xmlns:rdf="http://www.w3.org/1999/02/22-rdf-syntax-ns#">
   <cc:Work>
    <dc:type rdf:resource="http://purl.org/dc/dcmitype/StillImage"/>
    <dc:date>2026-01-20T15:33:11.578382</dc:date>
    <dc:format>image/svg+xml</dc:format>
    <dc:creator>
     <cc:Agent>
      <dc:title>Matplotlib v3.10.0, https://matplotlib.org/</dc:title>
     </cc:Agent>
    </dc:creator>
   </cc:Work>
  </rdf:RDF>
 </metadata>
 <defs>
  <style type="text/css">*{stroke-linejoin: round; stroke-linecap: butt}</style>
 </defs>
 <g id="figure_1">
  <g id="patch_1">
   <path d="M -0 347.04 
L 202.720497 347.04 
L 202.720497 -0 
L -0 -0 
z
" style="fill: #ffffff"/>
  </g>
  <g id="axes_1">
   <g id="PatchCollection_1">
    <path d="M 15.760023 303.271709 
L 15.874978 302.819121 
L 18.069588 294.209492 
L 22.228896 284.802347 
L 25.876128 279.210322 
L 28.635066 265.371366 
L 28.750021 253.048006 
L 27.234696 246.191242 
L 22.176643 233.366167 
L 20.410505 222.443427 
L 22.291599 209.994638 
L 23.293804 203.278981 
L 21.739811 199.273628 
L 20.662362 195.505544 
L 20.341531 193.409841 
L 21.868353 190.712081 
L 19.403075 189.068966 
L 16.232386 185.66567 
L 17.770703 182.602076 
L 21.515125 183.399593 
L 23.71705 181.518164 
L 25.01814 177.738582 
L 27.30994 173.401888 
L 31.398184 171.419071 
L 35.950431 168.941856 
L 37.436495 166.277543 
L 36.043441 163.799283 
L 35.072587 162.16035 
L 35.210534 160.712694 
L 37.63192 160.036425 
L 39.992693 160.914425 
L 41.745246 162.329678 
L 44.576292 160.920697 
L 48.544355 161.058668 
L 52.644095 160.052104 
L 57.482687 156.287155 
L 60.325229 156.87876 
L 69.674266 151.032742 
L 82.089486 144.301407 
L 97.211391 139.712811 
L 112.782669 136.775691 
L 124.141341 135.606069 
L 124.544732 135.561124 
L 124.320045 131.936237 
L 124.173738 108.188422 
L 102.048938 68.3847 
L 100.336097 65.302292 
L 99.071584 63.45222 
L 97.315896 62.438339 
L 97.159139 62.180165 
L 93.108516 56.39268 
L 92.007031 41.410233 
L 151.632485 25.076294 
L 181.323463 22.32 
L 181.177156 26.607568 
L 181.181336 27.025663 
L 177.074281 27.05702 
L 173.803267 27.297425 
L 168.807918 28.990711 
L 149.171387 36.735927 
L 145.03298 38.293333 
L 143.298193 39.139976 
L 141.656416 39.853873 
L 150.487108 58.319054 
L 154.234665 62.15926 
L 157.071981 66.256594 
L 161.751725 77.761533 
L 186.960474 165.237531 
L 183.717677 170.417733 
L 181.458275 178.241342 
L 177.074281 186.98267 
L 171.219898 195.382206 
L 153.780067 204.590755 
L 140.972952 210.211002 
L 131.030326 220.734462 
L 130.560052 227.627809 
L 129.01651 231.2297 
L 129.743866 234.707208 
L 127.547167 240.799903 
L 127.744681 253.095041 
L 127.746772 254.031575 
L 127.72378 255.544035 
L 129.180583 261.400505 
L 130.083508 262.903558 
L 130.570503 263.74602 
L 132.788103 266.730176 
L 136.617175 276.307695 
L 138.803424 283.430994 
L 138.794018 292.119016 
L 138.632035 293.556218 
L 140.497453 298.662208 
L 140.884123 300.68997 
L 141.150611 303.14419 
L 141.6282 306.700091 
L 139.755466 311.487282 
L 138.086518 314.141143 
L 134.310744 320.831713 
L 130.907009 324.301905 
L 130.496304 324.72 
L 129.430351 324.605024 
L 124.853022 324.082405 
L 121.122186 323.643404 
L 107.306596 320.94669 
L 103.126387 319.98507 
L 91.902526 317.455593 
L 89.122687 316.932974 
L 78.003332 314.758878 
L 69.277146 313.086497 
L 54.709118 310.410687 
L 49.212144 309.208663 
L 45.93068 308.487448 
L 40.371002 307.44221 
L 32.73167 306.229733 
L 15.760023 303.271709 
z
" clip-path="url(#p22dc53b6f2)" style="fill: none; stroke: #000000; stroke-width: 1.2"/>
   </g>
  </g>
 </g>
 <defs>
  <clipPath id="p22dc53b6f2">
   <rect x="7.2" y="7.2" width="188.320497" height="332.64"/>
  </clipPath>
 </defs>
</svg>
