<?xml version="1.0" encoding="utf-8" standalone="no"?>
<!DOCTYPE svg PUBLIC "-//W3C//DTD SVG 1.1//EN"
  "http://www.w3.org/Graphics/SVG/1.1/DTD/svg11.dtd">
<svg xmlns:xlink="http://www.w3.org/1999/xlink" width="349.2pt" height="287.171335pt" viewBox="0 0 349.2 287.171335" xmlns="http://www.w3.org/2000/svg" version="1.1">
 <metadata>
  <rdf:RDF xmlns:dc="http://purl.org/dc/elements/1.1/" xmlns:cc="http://creativecommons.org/ns#" xmlns:rdf="http://www.w3.org/1999/02/22-rdf-syntax-ns#">
   <cc:Work>
    <dc:type rdf:resource="http://purl.org/dc/dcmitype/StillImage"/>
    <dc:date>2026-01-20T15:33:09.611773</dc:date>
    <dc:format>image/svg+xml</dc:format>
    <dc:creator>
     <cc:Agent>
      <dc:title>Matplotlib v3.10.0, https://matplotlib.org/</dc:title>
     </cc:Agent>
    </dc:creator>
   </cc:Work>
  </rdf:RDF>
 </metadata>
 <defs>
  <style type="text/css">*{stroke-linejoin: round; stroke-linecap: butt}</style>
 </defs>
 <g id="figure_1">
  <g id="patch_1">
   <path d="M 0 287.171335 
L 349.2 287.171335 
L 349.2 0 
L 0 0 
z
" style="fill: #ffffff"/>
  </g>
  <g id="axes_1">
   <g id="PatchCollection_1">
    <path d="M 22.418182 189.032983 
L 38.34403 185.446574 
L 47.555777 183.136229 
L 72.263669 177.346933 
L 73.069361 177.037992 
L 78.078081 175.788793 
L 80.266878 175.036588 
L 83.304337 174.355573 
L 88.954925 172.900861 
L 93.896503 171.718824 
L 99.549777 170.13382 
L 103.450669 169.185504 
L 108.680954 167.984661 
L 115.099635 166.614573 
L 123.049131 164.80122 
L 129.038109 163.068461 
L 131.05234 162.262527 
L 136.477333 160.932735 
L 142.802017 159.10595 
L 146.655911 157.870184 
L 149.524175 155.522228 
L 151.727743 152.874734 
L 153.846713 150.773931 
L 154.429497 150.119781 
L 156.282589 147.297667 
L 157.552897 145.363425 
L 157.949029 143.222325 
L 160.405047 134.264364 
L 162.862408 123.006803 
L 164.144802 118.623863 
L 166.032807 110.95674 
L 167.250745 106.086209 
L 167.617335 103.900784 
L 167.707304 103.468265 
L 169.901472 92.856795 
L 171.220121 83.439451 
L 171.244292 83.271548 
L 171.296662 82.195626 
L 169.804789 65.962763 
L 168.494196 49.611696 
L 167.963782 43.008406 
L 166.876098 29.44453 
L 171.350375 29.390801 
L 178.386753 29.56542 
L 184.375731 29.780336 
L 189.98872 29.834065 
L 195.870273 29.941522 
L 201.859251 30.169871 
L 205.766858 30.169871 
L 208.96277 28.329654 
L 211.514128 19.598697 
L 217.301684 21.156837 
L 225.721167 23.400021 
L 225.936018 23.023918 
L 226.150869 22.647816 
L 231.523493 24.443706 
L 231.205245 71.566694 
L 230.835969 103.419909 
L 230.853426 112.685469 
L 230.878939 126.616046 
L 230.886996 131.088982 
L 231.010536 131.917751 
L 231.21733 133.317391 
L 232.570893 134.613602 
L 236.008513 132.185053 
L 244.566306 125.862497 
L 250.416974 119.596357 
L 265.17994 102.078029 
L 270.849327 95.266539 
L 289.687752 72.63187 
L 300.287975 59.895419 
L 308.61346 165.949677 
L 325.633707 155.287164 
L 326.468941 163.987226 
L 326.781818 167.245888 
L 326.205748 170.679169 
L 326.408514 179.500121 
L 325.275174 184.27394 
L 323.274372 189.238496 
L 307.641258 213.360114 
L 297.214259 231.274694 
L 290.85332 240.683978 
L 286.266246 244.154869 
L 281.061475 245.948073 
L 266.412649 248.878988 
L 262.172022 249.631194 
L 255.619059 249.958941 
L 253.539031 249.92133 
L 246.09175 248.634522 
L 232.417811 245.523615 
L 215.354594 242.130631 
L 212.507815 244.333518 
L 188.210826 239.432093 
L 168.893014 235.5354 
L 154.967968 232.83552 
L 145.662224 235.374213 
L 145.168066 236.411182 
L 130.336616 267.572638 
L 121.068471 260.171473 
L 78.553439 225.304062 
L 77.003825 225.004524 
L 69.927162 234.487686 
L 64.999012 240.98889 
L 63.468197 240.182956 
L 61.655389 238.4099 
L 58.002918 231.734076 
L 52.618209 225.259736 
L 43.312465 213.721441 
L 38.008325 207.596339 
L 30.327393 198.690764 
L 22.418182 189.032983 
z
" clip-path="url(#p5a097b86eb)" style="fill: none; stroke: #000000; stroke-width: 1.2"/>
   </g>
  </g>
 </g>
 <defs>
  <clipPath id="p5a097b86eb">
   <rect x="7.2" y="7.2" width="334.8" height="272.771335"/>
  </clipPath>
 </defs>
</svg>
