<?xml version="1.0" encoding="utf-8" standalone="no"?>
<!DOCTYPE svg PUBLIC "-//W3C//DTD SVG 1.1//EN"
  "http://www.w3.org/Graphics/SVG/1.1/DTD/svg11.dtd">
<svg xmlns:xlink="http://www.w3.org/1999/xlink" width="289.812489pt" height="347.04pt" viewBox="0 0 289.812489 347.04" xmlns="http://www.w3.org/2000/svg" version="1.1">
 <metadata>
  <rdf:RDF xmlns:dc="http://purl.org/dc/elements/1.1/" xmlns:cc="http://creativecommons.org/ns#" xmlns:rdf="http://www.w3.org/1999/02/22-rdf-syntax-ns#">
   <cc:Work>
    <dc:type rdf:resource="http://purl.org/dc/dcmitype/StillImage"/>
    <dc:date>2026-01-20T15:33:12.350403</dc:date>
    <dc:format>image/svg+xml</dc:format>
    <dc:creator>
     <cc:Agent>
      <dc:title>Matplotlib v3.10.0, https://matplotlib.org/</dc:title>
     </cc:Agent>
    </dc:creator>
   </cc:Work>
  </rdf:RDF>
 </metadata>
 <defs>
  <style type="text/css">*{stroke-linejoin: round; stroke-linecap: butt}</style>
 </defs>
 <g id="figure_1">
  <g id="patch_1">
   <path d="M 0 347.04 
L 289.812489 347.04 
L 289.812489 -0 
L 0 -0 
z
" style="fill: #ffffff"/>
  </g>
  <g id="axes_1">
   <g id="PatchCollection_1">
    <path d="M 19.718749 255.931796 
L 23.064019 248.426827 
L 23.986305 246.354361 
L 26.966539 240.075233 
L 28.394936 237.182601 
L 29.840967 234.148865 
L 30.581617 232.579083 
L 32.080552 229.404242 
L 33.949811 225.347502 
L 37.159295 218.786166 
L 41.709002 209.261645 
L 44.989024 202.421628 
L 47.986893 196.103697 
L 48.711672 194.495111 
L 52.231524 186.713225 
L 54.030245 182.734092 
L 54.881993 180.846826 
L 58.043863 173.32951 
L 61.45438 166.26549 
L 65.127652 158.12908 
L 67.250849 153.479703 
L 69.307035 148.974958 
L 74.720834 137.104583 
L 75.302773 135.817009 
L 58.193757 97.277977 
L 53.109723 83.231073 
L 97.495823 67.018222 
L 152.388573 47.046714 
L 159.38948 25.450745 
L 163.551228 22.32 
L 166.773056 31.435319 
L 166.067675 34.504331 
L 165.397563 38.261225 
L 164.334201 46.477006 
L 163.069805 60.749677 
L 169.083178 59.074067 
L 176.754197 56.428366 
L 187.158567 52.389264 
L 189.292344 51.560278 
L 215.021117 42.10631 
L 229.37562 36.144665 
L 245.844503 30.639845 
L 251.47168 28.930723 
L 254.980951 28.154651 
L 263.710041 49.07332 
L 263.533696 52.724386 
L 261.347015 59.638483 
L 257.255805 65.070987 
L 255.880312 66.852425 
L 247.133587 75.98891 
L 242.107748 81.756536 
L 230.892189 94.385345 
L 224.349781 100.117695 
L 209.430972 112.993436 
L 200.03177 120.595414 
L 197.598206 123.135286 
L 194.794316 126.786352 
L 193.894955 132.165943 
L 191.285046 141.355341 
L 225.47839 155.430466 
L 255.263103 167.935809 
L 270.093739 173.438865 
L 260.98198 204.072545 
L 247.52331 230.250867 
L 245.428329 244.46004 
L 242.7373 262.860003 
L 233.16528 275.723397 
L 220.602444 289.186483 
L 210.582507 301.601872 
L 210.284483 309.978159 
L 213.998314 317.012194 
L 218.248235 324.72 
L 205.692453 323.873376 
L 183.390069 271.234526 
L 174.567516 250.411102 
L 171.649002 242.590412 
L 161.694312 219.01546 
L 153.388451 200.707215 
L 144.835706 181.287776 
L 136.618017 162.168183 
L 129.123344 144.285013 
L 118.225208 147.45809 
L 116.761542 149.715754 
L 111.153763 163.455757 
L 102.17779 182.31078 
L 98.051311 190.9534 
L 97.012637 193.156387 
L 95.871683 195.57632 
L 88.77555 210.637409 
L 88.484581 211.252976 
L 83.94369 219.403496 
L 82.585832 222.701802 
L 79.958288 229.067357 
L 72.304904 245.648841 
L 69.296454 250.291163 
L 64.704423 257.378112 
L 57.051039 264.927177 
L 54.128999 268.345421 
L 51.778316 271.453237 
L 19.718749 255.931796 
z
" clip-path="url(#p77b98c99ee)" style="fill: none; stroke: #000000; stroke-width: 1.2"/>
   </g>
  </g>
 </g>
 <defs>
  <clipPath id="p77b98c99ee">
   <rect x="7.2" y="7.2" width="275.412489" height="332.64"/>
  </clipPath>
 </defs>
</svg>
