<?xml version="1.0" encoding="utf-8" standalone="no"?>
<!DOCTYPE svg PUBLIC "-//W3C//DTD SVG 1.1//EN"
  "http://www.w3.org/Graphics/SVG/1.1/DTD/svg11.dtd">
<svg xmlns:xlink="http://www.w3.org/1999/xlink" width="349.2pt" height="281.966525pt" viewBox="0 0 349.2 281.966525" xmlns="http://www.w3.org/2000/svg" version="1.1">
 <metadata>
  <rdf:RDF xmlns:dc="http://purl.org/dc/elements/1.1/" xmlns:cc="http://creativecommons.org/ns#" xmlns:rdf="http://www.w3.org/1999/02/22-rdf-syntax-ns#">
   <cc:Work>
    <dc:type rdf:resource="http://purl.org/dc/dcmitype/StillImage"/>
    <dc:date>2026-01-20T15:33:07.941994</dc:date>
    <dc:format>image/svg+xml</dc:format>
    <dc:creator>
     <cc:Agent>
      <dc:title>Matplotlib v3.10.0, https://matplotlib.org/</dc:title>
     </cc:Agent>
    </dc:creator>
   </cc:Work>
  </rdf:RDF>
 </metadata>
 <defs>
  <style type="text/css">*{stroke-linejoin: round; stroke-linecap: butt}</style>
 </defs>
 <g id="figure_1">
  <g id="patch_1">
   <path d="M 0 281.966525 
L 349.2 281.966525 
L 349.2 0 
L 0 0 
z
" style="fill: #ffffff"/>
  </g>
  <g id="axes_1">
   <g id="PatchCollection_1">
    <path d="M 22.418182 261.21827 
L 25.383109 253.292298 
L 27.242746 238.468197 
L 27.984431 236.957195 
L 30.256516 230.12783 
L 42.997202 191.281518 
L 48.400642 182.106934 
L 50.272942 177.487069 
L 57.382256 155.93494 
L 64.925725 131.704627 
L 66.155836 127.216862 
L 67.675384 121.878593 
L 71.618972 111.328726 
L 75.797729 100.181697 
L 85.027173 67.811882 
L 93.471518 42.065139 
L 94.328977 39.844781 
L 103.354007 46.563762 
L 108.592829 40.767668 
L 113.970943 37.928433 
L 113.486135 34.834047 
L 113.368551 33.760964 
L 120.857751 32.17396 
L 124.620441 31.064686 
L 131.706238 27.002173 
L 138.676259 23.214716 
L 145.762056 21.991438 
L 153.935053 19.362115 
L 158.499124 31.050209 
L 159.946312 34.754425 
L 164.635203 47.021586 
L 167.560333 54.126008 
L 167.929366 55.095944 
L 171.977875 52.533575 
L 175.454746 46.31042 
L 177.498899 41.605505 
L 186.048165 42.651444 
L 196.413653 42.615252 
L 213.432589 42.19362 
L 238.499703 52.676532 
L 238.427343 63.43812 
L 238.443624 64.623397 
L 257.021906 63.628127 
L 263.009649 63.157635 
L 269.491244 61.950643 
L 278.085735 60.989755 
L 284.102421 60.736413 
L 286.984135 60.736413 
L 291.231633 60.584408 
L 290.746825 68.226276 
L 288.637548 75.962242 
L 285.151633 86.048856 
L 285.043093 100.453134 
L 289.384659 100.290272 
L 295.607569 100.290272 
L 295.464659 109.861155 
L 295.372401 116.051737 
L 295.607569 122.168127 
L 295.5533 123.67008 
L 295.734198 126.764467 
L 295.734198 138.273413 
L 299.641607 139.920133 
L 307.166987 140.607774 
L 313.190909 140.969691 
L 306.937246 189.938808 
L 296.204535 191.835251 
L 305.616687 200.90126 
L 326.781818 221.718699 
L 241.48272 230.90595 
L 211.967311 237.234061 
L 145.836224 252.50151 
L 63.999525 262.60441 
L 22.418182 261.21827 
z
" clip-path="url(#p3fcb60fb0c)" style="fill: none; stroke: #000000; stroke-width: 1.2"/>
   </g>
  </g>
 </g>
 <defs>
  <clipPath id="p3fcb60fb0c">
   <rect x="7.2" y="7.2" width="334.8" height="267.566525"/>
  </clipPath>
 </defs>
</svg>
