<?xml version="1.0" encoding="utf-8" standalone="no"?>
<!DOCTYPE svg PUBLIC "-//W3C//DTD SVG 1.1//EN"
  "http://www.w3.org/Graphics/SVG/1.1/DTD/svg11.dtd">
<svg xmlns:xlink="http://www.w3.org/1999/xlink" width="235.197029pt" height="347.04pt" viewBox="0 0 235.197029 347.04" xmlns="http://www.w3.org/2000/svg" version="1.1">
 <metadata>
  <rdf:RDF xmlns:dc="http://purl.org/dc/elements/1.1/" xmlns:cc="http://creativecommons.org/ns#" xmlns:rdf="http://www.w3.org/1999/02/22-rdf-syntax-ns#">
   <cc:Work>
    <dc:type rdf:resource="http://purl.org/dc/dcmitype/StillImage"/>
    <dc:date>2026-01-20T15:33:10.154787</dc:date>
    <dc:format>image/svg+xml</dc:format>
    <dc:creator>
     <cc:Agent>
      <dc:title>Matplotlib v3.10.0, https://matplotlib.org/</dc:title>
     </cc:Agent>
    </dc:creator>
   </cc:Work>
  </rdf:RDF>
 </metadata>
 <defs>
  <style type="text/css">*{stroke-linejoin: round; stroke-linecap: butt}</style>
 </defs>
 <g id="figure_1">
  <g id="patch_1">
   <path d="M 0 347.04 
L 235.197029 347.04 
L 235.197029 -0 
L 0 -0 
z
" style="fill: #ffffff"/>
  </g>
  <g id="axes_1">
   <g id="PatchCollection_1">
    <path d="M 17.236229 176.680599 
L 17.435837 173.323294 
L 18.921809 163.87995 
L 19.498455 159.110211 
L 20.007087 155.960703 
L 20.851356 150.739872 
L 21.101236 149.186195 
L 21.720021 145.354134 
L 22.130327 142.811752 
L 22.207213 142.337736 
L 22.75133 138.973776 
L 23.113582 136.710923 
L 23.360505 135.325849 
L 23.690228 133.471937 
L 24.181856 130.218901 
L 24.847956 125.52459 
L 25.509621 120.860598 
L 26.393811 114.682861 
L 27.01999 110.293961 
L 29.149144 95.473752 
L 31.411371 79.726217 
L 31.623547 78.249447 
L 32.154357 74.524613 
L 32.846333 69.67205 
L 34.765529 56.201419 
L 35.200231 53.151743 
L 35.308907 52.390804 
L 36.052632 47.329703 
L 37.686463 36.221757 
L 37.697552 36.145589 
L 37.936343 34.520919 
L 38.039843 33.81766 
L 38.129297 33.20314 
L 38.558825 33.212754 
L 44.26836 33.272653 
L 49.376852 32.86741 
L 50.625513 32.799376 
L 52.422726 32.700284 
L 55.804238 32.514671 
L 57.962964 32.400049 
L 60.117254 32.286167 
L 68.566598 31.734504 
L 72.642302 31.468286 
L 72.994204 31.423177 
L 77.220724 30.887783 
L 77.407764 30.897397 
L 78.18254 30.937329 
L 79.134006 30.986875 
L 80.288037 30.92106 
L 81.541873 31.415782 
L 81.832414 32.481394 
L 85.820143 32.190772 
L 89.812308 32.235142 
L 93.774901 32.175982 
L 97.759673 31.673126 
L 100.48987 31.308555 
L 101.914482 31.118505 
L 105.251636 29.995953 
L 126.552792 28.749905 
L 131.517123 28.363149 
L 139.003911 27.795217 
L 145.866738 27.273874 
L 146.597896 27.218411 
L 148.554057 27.06016 
L 167.539019 25.522751 
L 168.294573 25.461373 
L 206.69846 22.32 
L 206.14695 22.896806 
L 200.177184 24.442349 
L 199.46377 24.627223 
L 195.23725 28.573905 
L 192.47896 32.783107 
L 191.558544 33.811005 
L 188.63761 37.072175 
L 185.335942 38.213215 
L 183.197916 39.722524 
L 182.296721 41.057311 
L 181.394788 42.392838 
L 180.467719 45.180732 
L 181.662411 48.598676 
L 181.970695 50.797193 
L 183.092197 53.810633 
L 181.35117 59.559463 
L 180.90316 61.75798 
L 178.834627 64.748496 
L 176.784577 68.172355 
L 174.639897 69.121866 
L 173.444466 68.290675 
L 172.632725 66.134309 
L 170.581935 65.768998 
L 169.349539 67.707213 
L 169.139581 69.753395 
L 168.175547 71.474938 
L 166.770157 72.001458 
L 165.900752 72.56865 
L 163.464053 74.024715 
L 161.339334 75.823905 
L 159.223487 77.928506 
L 159.010572 78.653211 
L 158.146342 80.559628 
L 157.091375 82.42833 
L 156.772741 83.444395 
L 156.454107 84.459721 
L 155.519645 86.323248 
L 155.052414 87.930909 
L 156.252281 88.418975 
L 157.962998 88.417496 
L 159.528814 87.654338 
L 160.943075 87.483514 
L 162.120764 87.905766 
L 163.034526 88.232622 
L 164.627695 90.005191 
L 165.709276 92.269523 
L 166.487009 94.256544 
L 166.857393 96.381112 
L 165.301928 97.490354 
L 163.178687 99.683694 
L 162.151814 101.706212 
L 162.565077 103.544595 
L 161.955163 104.689332 
L 161.213655 105.356357 
L 160.578605 107.000253 
L 160.439619 109.127039 
L 159.496285 110.817523 
L 157.443277 113.407233 
L 155.853804 114.783432 
L 154.707905 115.431969 
L 154.268028 116.445076 
L 154.51569 117.34726 
L 155.168483 118.670215 
L 155.43167 119.962112 
L 154.741173 121.242917 
L 153.379401 122.029739 
L 152.06938 123.260997 
L 150.774144 124.239348 
L 150.483603 126.037059 
L 146.117358 128.195644 
L 141.286099 130.584211 
L 134.044016 127.913896 
L 118.688228 130.346094 
L 114.010741 132.751669 
L 112.420529 135.827966 
L 108.783223 142.865735 
L 108.605793 143.208861 
L 108.545911 143.324961 
L 108.381049 143.643683 
L 123.525401 142.665332 
L 125.3581 142.665332 
L 127.198932 142.665332 
L 128.758094 143.247314 
L 129.921736 144.091078 
L 131.574788 145.458403 
L 132.424232 146.160183 
L 133.934601 147.571878 
L 134.500158 148.100617 
L 135.44497 148.984313 
L 138.749596 152.712844 
L 139.990863 154.112707 
L 142.924365 157.602381 
L 146.081872 161.947651 
L 146.228251 162.149533 
L 147.16641 163.496892 
L 149.505523 166.855676 
L 151.351529 169.538562 
L 153.128782 172.121616 
L 154.289467 173.808403 
L 154.534911 174.198856 
L 155.45237 175.659358 
L 156.943517 178.052362 
L 163.450746 188.496242 
L 164.20704 189.710492 
L 165.057223 191.432035 
L 166.084836 193.511494 
L 166.243783 193.822821 
L 168.442431 198.1252 
L 170.984848 203.099779 
L 176.383142 213.662719 
L 186.135114 232.154518 
L 188.715975 236.876929 
L 197.013763 251.618012 
L 198.282385 253.939286 
L 202.812013 262.224582 
L 203.382006 263.268008 
L 209.582429 273.935216 
L 209.722894 274.219922 
L 210.235222 275.26039 
L 210.269969 275.330642 
L 210.279579 275.349869 
L 211.50754 277.840487 
L 212.802776 280.467911 
L 213.230824 281.343472 
L 214.063265 283.04283 
L 215.116013 285.19402 
L 215.501183 285.980842 
L 216.12884 287.293445 
L 216.513271 288.095796 
L 216.757237 288.606047 
L 216.76463 288.622316 
L 217.1912 289.513407 
L 217.243689 289.623592 
L 217.9608 290.939892 
L 211.33085 298.890937 
L 203.446324 308.346113 
L 201.570006 310.595655 
L 199.722521 313.043382 
L 198.569968 314.463951 
L 190.252219 324.72 
L 189.49075 323.810422 
L 188.474227 322.506693 
L 186.671838 318.21023 
L 185.454228 315.477798 
L 185.021004 314.504623 
L 184.157514 312.616694 
L 179.82084 306.521041 
L 178.172224 304.642725 
L 177.7804 304.036339 
L 177.699818 303.825583 
L 177.314648 302.816173 
L 176.183534 299.370129 
L 175.499691 298.456853 
L 169.478176 290.414851 
L 169.288918 290.180431 
L 168.088311 288.691829 
L 165.315974 284.927802 
L 161.752597 279.640416 
L 161.561861 278.657628 
L 161.06284 277.969898 
L 160.874321 277.710336 
L 156.375743 272.654412 
L 155.003621 270.998684 
L 153.871768 269.539661 
L 152.085644 266.991363 
L 151.2362 265.879903 
L 149.699217 263.358966 
L 147.77041 260.554064 
L 146.901005 259.620822 
L 145.817206 259.056587 
L 143.778984 258.448723 
L 141.323063 258.000589 
L 117.489839 255.060359 
L 111.148211 254.34231 
L 106.75683 253.674547 
L 106.637804 253.650143 
L 105.182882 253.425337 
L 103.575666 253.14285 
L 102.381713 252.943186 
L 95.300056 251.949306 
L 94.517887 252.06023 
L 91.591778 251.619491 
L 91.511935 250.913274 
L 92.623827 237.873028 
L 88.278281 237.495886 
L 89.960166 232.016972 
L 91.612478 228.066592 
L 87.794046 226.022629 
L 85.420926 224.482262 
L 84.215884 223.700617 
L 76.586413 219.874472 
L 72.734713 219.810876 
L 69.895841 219.766506 
L 62.709944 218.420626 
L 59.639673 218.066408 
L 59.346175 216.169605 
L 55.161795 209.514154 
L 51.006986 203.516854 
L 49.076701 204.756986 
L 24.800642 167.828111 
L 20.932678 171.785146 
L 17.236229 176.680599 
z
" clip-path="url(#pe5e33d460e)" style="fill: none; stroke: #000000; stroke-width: 1.2"/>
   </g>
  </g>
 </g>
 <defs>
  <clipPath id="pe5e33d460e">
   <rect x="7.2" y="7.2" width="220.797029" height="332.64"/>
  </clipPath>
 </defs>
</svg>
