<?xml version="1.0" encoding="utf-8" standalone="no"?>
<!DOCTYPE svg PUBLIC "-//W3C//DTD SVG 1.1//EN"
  "http://www.w3.org/Graphics/SVG/1.1/DTD/svg11.dtd">
<svg xmlns:xlink="http://www.w3.org/1999/xlink" width="349.2pt" height="294.445333pt" viewBox="0 0 349.2 294.445333" xmlns="http://www.w3.org/2000/svg" version="1.1">
 <metadata>
  <rdf:RDF xmlns:dc="http://purl.org/dc/elements/1.1/" xmlns:cc="http://creativecommons.org/ns#" xmlns:rdf="http://www.w3.org/1999/02/22-rdf-syntax-ns#">
   <cc:Work>
    <dc:type rdf:resource="http://purl.org/dc/dcmitype/StillImage"/>
    <dc:date>2026-01-20T15:33:08.007661</dc:date>
    <dc:format>image/svg+xml</dc:format>
    <dc:creator>
     <cc:Agent>
      <dc:title>Matplotlib v3.10.0, https://matplotlib.org/</dc:title>
     </cc:Agent>
    </dc:creator>
   </cc:Work>
  </rdf:RDF>
 </metadata>
 <defs>
  <style type="text/css">*{stroke-linejoin: round; stroke-linecap: butt}</style>
 </defs>
 <g id="figure_1">
  <g id="patch_1">
   <path d="M 0 294.445333 
L 349.2 294.445333 
L 349.2 0 
L 0 0 
z
" style="fill: #ffffff"/>
  </g>
  <g id="axes_1">
   <g id="PatchCollection_1">
    <path d="M 22.418182 34.376045 
L 47.17237 30.249379 
L 66.381818 27.355529 
L 81.118975 25.748586 
L 89.597178 24.876374 
L 92.442771 24.529292 
L 97.203452 24.238555 
L 102.953219 23.715679 
L 115.031785 21.973509 
L 129.692338 20.957056 
L 143.041621 21.506977 
L 152.508909 21.506977 
L 157.105118 21.439364 
L 163.008092 21.439364 
L 166.477778 21.597128 
L 169.406735 21.754893 
L 171.682309 21.799968 
L 183.420665 22.047884 
L 204.216256 22.318337 
L 243.148846 22.971932 
L 263.696602 22.656404 
L 278.972237 22.971932 
L 317.634462 19.929333 
L 318.715923 49.769343 
L 320.338114 79.42905 
L 322.18561 106.4293 
L 322.929114 112.875103 
L 324.010575 123.490393 
L 326.196027 154.412215 
L 326.511453 163.630164 
L 326.781818 166.469923 
L 325.770202 186.449658 
L 324.348531 214.497914 
L 302.268706 214.497914 
L 299.25864 214.47763 
L 289.110932 214.407763 
L 290.192393 228.200879 
L 290.44924 235.086168 
L 291.037284 247.824517 
L 291.30089 256.904985 
L 291.418049 262.577742 
L 292.114239 271.187171 
L 284.041584 272.69044 
L 276.584011 273.276422 
L 253.445255 274.516 
L 253.424977 273.039775 
L 253.515099 259.636563 
L 222.294676 246.580432 
L 201.098044 247.105562 
L 188.188105 247.150637 
L 177.540222 245.847954 
L 174.994283 251.707775 
L 170.663933 259.458514 
L 165.621622 262.649863 
L 165.162001 261.441838 
L 161.51883 252.593509 
L 155.678941 237.315154 
L 153.876507 232.701672 
L 148.192078 218.144526 
L 138.012828 221.419264 
L 129.187657 222.942817 
L 120.50668 227.659973 
L 111.681509 232.719702 
L 106.995179 234.101268 
L 97.667579 236.07783 
L 97.814027 237.41432 
L 98.417843 241.268279 
L 91.719545 244.804455 
L 85.194731 252.023304 
L 73.954297 243.655029 
L 79.963164 227.092021 
L 78.392793 227.826752 
L 68.184253 209.555381 
L 65.194464 205.45576 
L 63.914736 203.700068 
L 63.274871 202.821095 
L 62.635007 201.944375 
L 45.534407 177.82896 
L 55.222494 177.0176 
L 48.186239 145.881669 
L 41.591581 120.695709 
L 39.586373 110.756552 
L 37.085495 96.873285 
L 30.213712 67.303729 
L 28.095851 60.542397 
L 26.428599 54.412124 
L 22.418182 34.376045 
z
" clip-path="url(#p5ba461d7eb)" style="fill: none; stroke: #000000; stroke-width: 1.2"/>
   </g>
  </g>
 </g>
 <defs>
  <clipPath id="p5ba461d7eb">
   <rect x="7.2" y="7.2" width="334.8" height="280.045333"/>
  </clipPath>
 </defs>
</svg>
