<?xml version="1.0" encoding="utf-8" standalone="no"?>
<!DOCTYPE svg PUBLIC "-//W3C//DTD SVG 1.1//EN"
  "http://www.w3.org/Graphics/SVG/1.1/DTD/svg11.dtd">
<svg xmlns:xlink="http://www.w3.org/1999/xlink" width="349.2pt" height="329.489913pt" viewBox="0 0 349.2 329.489913" xmlns="http://www.w3.org/2000/svg" version="1.1">
 <metadata>
  <rdf:RDF xmlns:dc="http://purl.org/dc/elements/1.1/" xmlns:cc="http://creativecommons.org/ns#" xmlns:rdf="http://www.w3.org/1999/02/22-rdf-syntax-ns#">
   <cc:Work>
    <dc:type rdf:resource="http://purl.org/dc/dcmitype/StillImage"/>
    <dc:date>2026-01-20T15:33:09.357907</dc:date>
    <dc:format>image/svg+xml</dc:format>
    <dc:creator>
     <cc:Agent>
      <dc:title>Matplotlib v3.10.0, https://matplotlib.org/</dc:title>
     </cc:Agent>
    </dc:creator>
   </cc:Work>
  </rdf:RDF>
 </metadata>
 <defs>
  <style type="text/css">*{stroke-linejoin: round; stroke-linecap: butt}</style>
 </defs>
 <g id="figure_1">
  <g id="patch_1">
   <path d="M 0 329.489913 
L 349.2 329.489913 
L 349.2 0 
L 0 0 
z
" style="fill: #ffffff"/>
  </g>
  <g id="axes_1">
   <g id="PatchCollection_1">
    <path d="M 22.418182 148.51081 
L 25.230376 144.361147 
L 26.567473 142.387887 
L 28.272882 139.842595 
L 29.322897 138.412743 
L 29.636748 138.828264 
L 30.656763 138.652822 
L 32.7291 138.071093 
L 32.921103 138.020308 
L 34.674975 137.557695 
L 38.295335 136.602922 
L 38.47626 136.558138 
L 44.987739 134.945457 
L 47.236849 134.405743 
L 47.927782 134.276008 
L 53.342168 132.939879 
L 52.914777 131.365981 
L 53.147396 130.490156 
L 53.509709 129.042761 
L 59.723029 120.805764 
L 63.118617 116.303832 
L 67.135444 110.977785 
L 70.59611 106.685922 
L 71.69828 105.377957 
L 74.043852 102.736171 
L 76.254192 100.55469 
L 77.226667 99.46418 
L 79.020232 98.296568 
L 81.945967 95.154311 
L 86.21849 89.856889 
L 89.009453 85.967157 
L 89.583616 86.23032 
L 90.732863 86.522569 
L 91.901034 86.69755 
L 92.974588 86.583512 
L 93.748599 85.517472 
L 98.846365 74.806744 
L 99.016214 74.45032 
L 102.214721 73.577727 
L 107.000945 74.505723 
L 113.640733 75.845083 
L 121.991931 77.529787 
L 122.970407 76.772617 
L 128.835261 77.938844 
L 133.535175 79.008116 
L 136.094904 79.450414 
L 136.809838 79.463341 
L 139.062178 79.350689 
L 140.519737 79.092143 
L 145.554733 78.084737 
L 147.343682 77.468382 
L 148.920321 76.275377 
L 151.10666 73.041245 
L 154.690558 66.883696 
L 160.063867 58.592681 
L 160.751569 56.886277 
L 161.141113 55.245434 
L 161.07142 52.213521 
L 161.269422 51.033443 
L 161.161882 49.913385 
L 160.874801 46.923024 
L 160.974495 46.873623 
L 164.614702 45.06334 
L 166.40042 43.937742 
L 174.035761 39.42196 
L 178.180436 37.099663 
L 182.094339 35.031295 
L 182.689732 37.321274 
L 182.934351 37.639839 
L 183.43282 37.778346 
L 185.629775 37.25202 
L 186.825177 36.839732 
L 187.018103 36.707689 
L 187.066104 36.674909 
L 197.620718 29.463323 
L 205.524217 23.350096 
L 206.093302 38.916872 
L 206.186996 41.407223 
L 206.242381 42.990817 
L 206.270074 48.641893 
L 206.702542 64.927057 
L 219.917964 61.375282 
L 219.521496 53.463775 
L 219.708884 53.353893 
L 219.957657 53.207999 
L 232.263835 45.995029 
L 232.501069 45.855599 
L 232.703226 45.737406 
L 232.694918 41.069267 
L 245.674029 33.571434 
L 258.526676 30.618008 
L 258.708525 30.511358 
L 258.912067 30.392242 
L 276.395858 21.636768 
L 276.624784 21.522269 
L 276.655708 23.899968 
L 276.771094 26.074524 
L 276.776633 26.249966 
L 276.974174 32.436602 
L 277.08956 35.428348 
L 277.320333 38.67864 
L 277.809571 49.53757 
L 277.924957 50.701027 
L 278.183422 55.521062 
L 278.718815 62.871155 
L 278.820355 66.26457 
L 278.501889 69.644135 
L 277.463412 73.15759 
L 276.443397 76.167804 
L 275.358766 79.371927 
L 274.321674 82.84106 
L 273.314121 87.502274 
L 272.33103 94.062878 
L 271.061781 100.295682 
L 270.701776 101.82849 
L 269.7593 107.763043 
L 269.692838 108.251972 
L 269.638837 108.646255 
L 267.88912 121.448897 
L 269.582067 128.352074 
L 270.336693 130.993398 
L 270.312232 132.185479 
L 270.581774 134.085792 
L 271.07655 135.724327 
L 271.313785 135.718325 
L 275.607539 136.691104 
L 280.437147 143.710165 
L 280.56038 143.889762 
L 275.481999 143.70601 
L 273.942284 144.223564 
L 264.137681 149.481742 
L 263.923524 149.596703 
L 259.984697 151.517792 
L 273.629357 164.553125 
L 299.838659 151.273558 
L 299.255266 202.07276 
L 303.450711 202.113851 
L 309.088485 205.785203 
L 315.574579 208.07749 
L 319.779717 209.635691 
L 322.830992 211.956141 
L 324.991485 215.721217 
L 326.781818 224.041318 
L 325.827343 229.371982 
L 319.133092 238.04943 
L 310.773586 247.332154 
L 301.6373 250.812367 
L 296.435687 250.571827 
L 286.801855 247.603627 
L 279.629905 247.210268 
L 270.893778 251.515981 
L 265.515393 256.964376 
L 264.732151 260.623263 
L 264.99477 264.445588 
L 270.430387 271.164089 
L 270.889625 271.731967 
L 192.064637 289.565636 
L 157.609369 298.364971 
L 137.577849 307.967645 
L 136.564296 305.461596 
L 136.623835 303.122216 
L 136.283215 302.07926 
L 135.989672 300.336384 
L 135.8309 298.638291 
L 135.130736 296.984982 
L 134.458727 296.1918 
L 132.631469 294.035249 
L 132.090077 292.621095 
L 131.031292 290.841745 
L 130.569286 289.746156 
L 129.666042 288.269213 
L 128.964032 286.571581 
L 128.014172 285.305168 
L 126.409841 282.321732 
L 125.882756 280.936203 
L 125.081514 278.701165 
L 124.258579 277.002611 
L 123.776726 275.606463 
L 123.409797 274.059342 
L 123.385797 271.896328 
L 123.095485 269.042165 
L 122.963945 268.042608 
L 123.247334 266.81313 
L 125.282748 264.578554 
L 126.67846 263.003732 
L 126.843693 262.866149 
L 127.008465 262.728566 
L 126.302762 261.923841 
L 125.051975 260.381799 
L 124.659662 259.684649 
L 124.244271 258.475023 
L 123.824265 257.657833 
L 123.293488 257.26078 
L 121.696542 257.251546 
L 120.819606 257.413138 
L 119.961132 256.77139 
L 119.453433 255.74644 
L 119.361124 254.859996 
L 118.96881 254.486028 
L 118.387263 254.486028 
L 117.671868 254.416775 
L 117.002628 253.414909 
L 116.305695 252.505381 
L 116.190308 251.087995 
L 116.328772 249.804499 
L 116.725701 248.567172 
L 117.210323 247.4268 
L 117.094937 246.68348 
L 116.51339 246.050966 
L 110.060989 249.079647 
L 100.991627 253.835046 
L 99.048522 254.255183 
L 97.986968 255.280133 
L 97.382344 258.544276 
L 94.691536 263.830618 
L 91.151484 270.215779 
L 71.097348 256.859111 
L 52.095534 244.02415 
L 50.87244 239.259518 
L 50.300124 238.663939 
L 49.978427 233.659228 
L 49.464727 225.672004 
L 49.455496 224.046858 
L 49.275494 221.506644 
L 49.25657 221.269798 
L 49.010567 218.218955 
L 48.301633 213.2895 
L 45.938522 206.728896 
L 45.557286 205.88816 
L 42.781553 199.766623 
L 40.783063 195.025074 
L 40.432289 194.194034 
L 37.446092 187.097871 
L 37.053778 185.18186 
L 36.476847 182.628719 
L 35.322984 179.960156 
L 33.998349 176.331278 
L 33.818347 175.837271 
L 33.181415 174.526073 
L 32.883718 173.803068 
L 32.826025 173.662715 
L 32.766024 173.534365 
L 31.796779 171.465074 
L 30.379836 168.736491 
L 29.692133 165.777063 
L 29.009046 164.682859 
L 28.662888 163.976475 
L 27.952108 162.794551 
L 26.386085 159.258473 
L 26.013618 158.417737 
L 24.167438 154.497995 
L 22.455105 149.844168 
L 22.418182 148.51081 
z
" clip-path="url(#paf4e288726)" style="fill: none; stroke: #000000; stroke-width: 1.2"/>
   </g>
  </g>
 </g>
 <defs>
  <clipPath id="paf4e288726">
   <rect x="7.2" y="7.2" width="334.8" height="315.089913"/>
  </clipPath>
 </defs>
</svg>
