<?xml version="1.0" encoding="utf-8" standalone="no"?>
<!DOCTYPE svg PUBLIC "-//W3C//DTD SVG 1.1//EN"
  "http://www.w3.org/Graphics/SVG/1.1/DTD/svg11.dtd">
<svg xmlns:xlink="http://www.w3.org/1999/xlink" width="299.576265pt" height="347.04pt" viewBox="0 0 299.576265 347.04" xmlns="http://www.w3.org/2000/svg" version="1.1">
 <metadata>
  <rdf:RDF xmlns:dc="http://purl.org/dc/elements/1.1/" xmlns:cc="http://creativecommons.org/ns#" xmlns:rdf="http://www.w3.org/1999/02/22-rdf-syntax-ns#">
   <cc:Work>
    <dc:type rdf:resource="http://purl.org/dc/dcmitype/StillImage"/>
    <dc:date>2026-01-20T15:33:08.062313</dc:date>
    <dc:format>image/svg+xml</dc:format>
    <dc:creator>
     <cc:Agent>
      <dc:title>Matplotlib v3.10.0, https://matplotlib.org/</dc:title>
     </cc:Agent>
    </dc:creator>
   </cc:Work>
  </rdf:RDF>
 </metadata>
 <defs>
  <style type="text/css">*{stroke-linejoin: round; stroke-linecap: butt}</style>
 </defs>
 <g id="figure_1">
  <g id="patch_1">
   <path d="M 0 347.04 
L 299.576265 347.04 
L 299.576265 -0 
L 0 -0 
z
" style="fill: #ffffff"/>
  </g>
  <g id="axes_1">
   <g id="PatchCollection_1">
    <path d="M 20.162558 145.987308 
L 25.832193 146.026344 
L 27.51395 146.037676 
L 39.850192 146.037676 
L 40.644495 130.366771 
L 41.209696 119.203848 
L 41.05864 117.617239 
L 40.882408 112.467058 
L 39.661372 95.190656 
L 39.057148 89.259763 
L 38.641744 85.658413 
L 37.609528 70.573042 
L 36.703191 54.001799 
L 36.098967 37.329819 
L 55.698486 35.554329 
L 78.017012 34.043273 
L 96.949367 32.494441 
L 118.009093 31.096715 
L 122.226074 31.084122 
L 127.122806 30.958201 
L 131.239083 30.504884 
L 134.576162 30.297114 
L 136.48828 30.177489 
L 140.017955 29.880315 
L 159.524322 28.238301 
L 163.565071 27.93609 
L 179.967237 26.651693 
L 195.337187 25.077676 
L 206.729328 24.813242 
L 209.29728 22.32 
L 213.476497 24.019938 
L 218.084964 25.23256 
L 227.449178 27.696839 
L 232.111774 28.954793 
L 241.031632 31.361149 
L 245.374493 32.935166 
L 246.985757 33.615141 
L 258.440838 38.04757 
L 258.915406 38.181047 
L 258.924217 38.600365 
L 258.939323 39.301746 
L 259.160872 40.73599 
L 261.176211 45.762768 
L 262.039748 49.59959 
L 261.886174 50.977169 
L 260.341626 54.550816 
L 258.549095 58.259198 
L 254.969067 62.124982 
L 253.006598 63.777069 
L 248.770735 67.744849 
L 245.375751 71.274423 
L 243.389365 74.52823 
L 241.465918 76.260907 
L 238.215696 82.918366 
L 236.464705 86.315723 
L 235.195835 89.006661 
L 232.937547 94.709636 
L 233.449879 101.304135 
L 235.219752 106.951705 
L 238.141427 111.836192 
L 240.03718 113.605387 
L 243.894144 114.840675 
L 246.966875 115.768715 
L 249.087953 116.91208 
L 250.510397 118.498688 
L 251.467085 119.858638 
L 252.50056 123.389472 
L 254.290574 132.56032 
L 257.314212 139.877606 
L 258.624623 143.699318 
L 258.933029 144.269741 
L 262.937272 155.611473 
L 264.684487 159.962054 
L 269.524574 174.931578 
L 273.961844 185.665109 
L 276.883519 192.736849 
L 277.025764 193.079355 
L 278.065533 196.267683 
L 278.66598 198.76722 
L 279.072573 200.460862 
L 279.180829 202.275388 
L 279.413708 209.606526 
L 278.833401 212.234503 
L 277.643835 214.4482 
L 277.297664 215.092917 
L 264.835543 228.264285 
L 255.842675 240.347693 
L 255.520422 240.780862 
L 247.413749 238.388357 
L 243.04823 237.315508 
L 242.189728 237.10396 
L 209.984585 228.216435 
L 203.764854 225.24721 
L 201.385721 248.256809 
L 198.532021 268.763093 
L 197.873669 285.620177 
L 218.643871 319.610114 
L 188.992834 324.72 
L 157.975998 308.409414 
L 129.841815 294.473704 
L 112.009652 290.905094 
L 73.661564 287.724322 
L 61.706739 288.886576 
L 46.978777 274.40059 
L 40.42924 268.091933 
L 47.897701 266.772277 
L 52.249373 232.696715 
L 48.057569 232.444872 
L 42.82096 231.966371 
L 40.101952 230.820487 
L 40.101952 222.811893 
L 39.976072 220.658638 
L 40.013836 219.613492 
L 39.850192 215.357352 
L 39.914391 211.049584 
L 40.013836 204.389606 
L 35.683563 204.389606 
L 32.662443 204.502936 
L 32.737971 194.4796 
L 35.163679 187.460747 
L 36.63144 182.077611 
L 36.968798 176.759955 
L 34.013136 176.865729 
L 32.007867 176.865729 
L 27.821098 177.042019 
L 21.840538 177.710661 
L 21.451569 172.900467 
L 21.386111 169.731028 
L 21.238832 164.657659 
L 20.910285 157.540587 
L 20.766782 153.693691 
L 20.162558 145.987308 
z
" clip-path="url(#p4eff1e3fa8)" style="fill: none; stroke: #000000; stroke-width: 1.2"/>
   </g>
  </g>
 </g>
 <defs>
  <clipPath id="p4eff1e3fa8">
   <rect x="7.2" y="7.2" width="285.176265" height="332.64"/>
  </clipPath>
 </defs>
</svg>
