<?xml version="1.0" encoding="utf-8" standalone="no"?>
<!DOCTYPE svg PUBLIC "-//W3C//DTD SVG 1.1//EN"
  "http://www.w3.org/Graphics/SVG/1.1/DTD/svg11.dtd">
<svg xmlns:xlink="http://www.w3.org/1999/xlink" width="270.842491pt" height="347.04pt" viewBox="0 0 270.842491 347.04" xmlns="http://www.w3.org/2000/svg" version="1.1">
 <metadata>
  <rdf:RDF xmlns:dc="http://purl.org/dc/elements/1.1/" xmlns:cc="http://creativecommons.org/ns#" xmlns:rdf="http://www.w3.org/1999/02/22-rdf-syntax-ns#">
   <cc:Work>
    <dc:type rdf:resource="http://purl.org/dc/dcmitype/StillImage"/>
    <dc:date>2026-01-20T15:33:11.213730</dc:date>
    <dc:format>image/svg+xml</dc:format>
    <dc:creator>
     <cc:Agent>
      <dc:title>Matplotlib v3.10.0, https://matplotlib.org/</dc:title>
     </cc:Agent>
    </dc:creator>
   </cc:Work>
  </rdf:RDF>
 </metadata>
 <defs>
  <style type="text/css">*{stroke-linejoin: round; stroke-linecap: butt}</style>
 </defs>
 <g id="figure_1">
  <g id="patch_1">
   <path d="M 0 347.04 
L 270.842491 347.04 
L 270.842491 -0 
L 0 -0 
z
" style="fill: #ffffff"/>
  </g>
  <g id="axes_1">
   <g id="PatchCollection_1">
    <path d="M 18.856477 170.131124 
L 21.748235 153.936222 
L 27.294961 142.548042 
L 45.625106 127.345956 
L 46.191131 126.875504 
L 35.493411 112.539699 
L 31.422568 108.13854 
L 29.132516 106.13993 
L 25.643918 104.183499 
L 22.058008 103.135527 
L 22.127748 102.400649 
L 23.05058 92.65905 
L 21.816353 91.66299 
L 24.98869 84.870637 
L 19.720923 81.421738 
L 32.638955 66.727416 
L 40.715767 54.432399 
L 54.558254 32.752677 
L 54.962094 32.121622 
L 55.361069 31.510035 
L 61.366779 22.32 
L 79.576907 41.113743 
L 103.330517 64.787207 
L 106.339048 68.215017 
L 107.291074 70.199027 
L 108.870755 75.070637 
L 113.335708 74.270869 
L 120.333989 73.935064 
L 126.509992 74.572607 
L 141.919186 76.32139 
L 169.95448 79.630776 
L 203.684087 84.414786 
L 208.539905 85.929965 
L 214.693203 89.05117 
L 219.634979 92.986744 
L 223.545258 97.160788 
L 224.38862 98.890104 
L 228.054 107.543175 
L 232.945499 124.982341 
L 234.097012 129.086628 
L 235.362055 133.596477 
L 243.50374 160.911889 
L 244.914749 165.081066 
L 249.812735 181.59555 
L 249.905181 182.197404 
L 251.38593 189.056269 
L 251.986014 199.440278 
L 251.888703 203.804125 
L 249.682988 216.441437 
L 234.405164 273.301228 
L 192.334383 324.72 
L 161.819282 298.674809 
L 117.098399 287.469942 
L 49.04883 282.247926 
L 55.401615 259.659745 
L 56.274171 253.488714 
L 57.093205 244.494971 
L 49.28562 236.385353 
L 44.43629 226.059745 
L 39.092295 218.040973 
L 34.555982 207.121622 
L 33.352569 197.876431 
L 30.000206 191.173302 
L 24.922195 186.825678 
L 21.269789 178.681993 
L 18.856477 170.131124 
z
" clip-path="url(#pe165f7255a)" style="fill: none; stroke: #000000; stroke-width: 1.2"/>
   </g>
  </g>
 </g>
 <defs>
  <clipPath id="pe165f7255a">
   <rect x="7.2" y="7.2" width="256.442491" height="332.64"/>
  </clipPath>
 </defs>
</svg>
