<?xml version="1.0" encoding="utf-8" standalone="no"?>
<!DOCTYPE svg PUBLIC "-//W3C//DTD SVG 1.1//EN"
  "http://www.w3.org/Graphics/SVG/1.1/DTD/svg11.dtd">
<svg xmlns:xlink="http://www.w3.org/1999/xlink" width="349.2pt" height="288.214629pt" viewBox="0 0 349.2 288.214629" xmlns="http://www.w3.org/2000/svg" version="1.1">
 <metadata>
  <rdf:RDF xmlns:dc="http://purl.org/dc/elements/1.1/" xmlns:cc="http://creativecommons.org/ns#" xmlns:rdf="http://www.w3.org/1999/02/22-rdf-syntax-ns#">
   <cc:Work>
    <dc:type rdf:resource="http://purl.org/dc/dcmitype/StillImage"/>
    <dc:date>2026-01-20T15:33:08.124403</dc:date>
    <dc:format>image/svg+xml</dc:format>
    <dc:creator>
     <cc:Agent>
      <dc:title>Matplotlib v3.10.0, https://matplotlib.org/</dc:title>
     </cc:Agent>
    </dc:creator>
   </cc:Work>
  </rdf:RDF>
 </metadata>
 <defs>
  <style type="text/css">*{stroke-linejoin: round; stroke-linecap: butt}</style>
 </defs>
 <g id="figure_1">
  <g id="patch_1">
   <path d="M 0 288.214629 
L 349.2 288.214629 
L 349.2 0 
L 0 0 
z
" style="fill: #ffffff"/>
  </g>
  <g id="axes_1">
   <g id="PatchCollection_1">
    <path d="M 22.418182 151.94499 
L 23.558067 151.402829 
L 26.927538 150.040253 
L 28.15632 149.542555 
L 28.963559 149.215537 
L 30.107746 148.753696 
L 31.707886 148.106831 
L 37.322716 145.834916 
L 49.194726 139.696157 
L 58.371159 131.664135 
L 73.685765 118.275042 
L 74.14602 117.85623 
L 75.338957 116.767604 
L 75.969836 116.192454 
L 83.990612 109.403961 
L 85.212225 107.668471 
L 93.155574 100.109765 
L 94.153511 99.266402 
L 101.239438 93.271072 
L 110.917707 84.342619 
L 118.935615 76.831245 
L 130.522295 66.478543 
L 143.841027 54.427642 
L 153.209592 44.803559 
L 160.301254 38.922971 
L 168.387985 29.934279 
L 175.389317 23.269135 
L 178.596767 19.64612 
L 187.328716 26.674138 
L 201.967994 39.166801 
L 217.783002 51.630777 
L 233.454629 64.338583 
L 239.749088 68.913966 
L 241.584375 70.434313 
L 242.903487 71.682145 
L 244.45201 72.84392 
L 248.982874 77.218503 
L 253.915206 80.904627 
L 264.826559 89.409965 
L 280.326127 101.257196 
L 289.445207 108.844588 
L 296.542604 114.725176 
L 305.733375 122.412968 
L 311.497322 126.83058 
L 316.329288 131.276877 
L 326.781818 140.929646 
L 323.469699 149.76487 
L 320.343977 158.126778 
L 319.13957 162.357932 
L 318.164574 165.914971 
L 312.185555 185.120108 
L 306.550651 202.202497 
L 305.06665 205.864238 
L 300.783837 213.136086 
L 290.685459 243.925981 
L 288.884585 249.338989 
L 288.296719 250.536621 
L 286.822755 262.286321 
L 284.472728 268.56851 
L 233.208012 265.186455 
L 226.526422 263.912806 
L 223.492464 263.336221 
L 215.85165 261.880417 
L 197.431395 258.370711 
L 180.53959 253.13412 
L 166.437993 243.086921 
L 142.695407 228.604899 
L 129.216088 222.239522 
L 113.326521 216.079248 
L 95.086927 209.739689 
L 87.678391 207.165139 
L 71.282686 197.446393 
L 61.587212 189.699795 
L 43.888167 176.276278 
L 32.10362 162.607499 
L 22.418182 151.94499 
z
" clip-path="url(#paaad922ac9)" style="fill: none; stroke: #000000; stroke-width: 1.2"/>
   </g>
  </g>
 </g>
 <defs>
  <clipPath id="paaad922ac9">
   <rect x="7.2" y="7.2" width="334.8" height="273.814629"/>
  </clipPath>
 </defs>
</svg>
