<?xml version="1.0" encoding="utf-8" standalone="no"?>
<!DOCTYPE svg PUBLIC "-//W3C//DTD SVG 1.1//EN"
  "http://www.w3.org/Graphics/SVG/1.1/DTD/svg11.dtd">
<svg xmlns:xlink="http://www.w3.org/1999/xlink" width="277.314332pt" height="347.04pt" viewBox="0 0 277.314332 347.04" xmlns="http://www.w3.org/2000/svg" version="1.1">
 <metadata>
  <rdf:RDF xmlns:dc="http://purl.org/dc/elements/1.1/" xmlns:cc="http://creativecommons.org/ns#" xmlns:rdf="http://www.w3.org/1999/02/22-rdf-syntax-ns#">
   <cc:Work>
    <dc:type rdf:resource="http://purl.org/dc/dcmitype/StillImage"/>
    <dc:date>2026-01-20T15:33:11.695553</dc:date>
    <dc:format>image/svg+xml</dc:format>
    <dc:creator>
     <cc:Agent>
      <dc:title>Matplotlib v3.10.0, https://matplotlib.org/</dc:title>
     </cc:Agent>
    </dc:creator>
   </cc:Work>
  </rdf:RDF>
 </metadata>
 <defs>
  <style type="text/css">*{stroke-linejoin: round; stroke-linecap: butt}</style>
 </defs>
 <g id="figure_1">
  <g id="patch_1">
   <path d="M 0 347.04 
L 277.314332 347.04 
L 277.314332 -0 
L 0 -0 
z
" style="fill: #ffffff"/>
  </g>
  <g id="axes_1">
   <g id="PatchCollection_1">
    <path d="M 19.150651 179.094511 
L 22.25844 172.946491 
L 23.336418 170.801566 
L 25.045129 167.417861 
L 26.971728 162.852726 
L 30.549699 154.663013 
L 33.141434 147.792371 
L 34.253816 145.968612 
L 36.971698 140.038525 
L 41.799665 130.529741 
L 42.994615 127.54061 
L 44.574885 123.590278 
L 45.61846 121.846809 
L 50.320281 112.624779 
L 51.815689 109.247956 
L 53.714766 105.341211 
L 60.079425 91.840801 
L 62.613821 86.059827 
L 66.444085 77.365426 
L 68.739949 73.062959 
L 72.063333 66.113173 
L 77.590839 54.29888 
L 79.104596 51.270751 
L 81.312158 46.382157 
L 83.370638 42.324005 
L 85.905034 37.013309 
L 88.427962 31.083223 
L 90.664194 25.795467 
L 92.292629 22.32 
L 113.141189 32.413764 
L 117.372828 35.109258 
L 121.604466 37.277123 
L 124.012716 38.722367 
L 128.770728 40.757178 
L 133.657181 42.255184 
L 152.43006 48.74731 
L 158.244262 49.034065 
L 176.007969 51.752499 
L 184.872621 55.319727 
L 204.239534 63.851252 
L 213.232626 66.503159 
L 221.397738 67.053728 
L 225.193598 70.815949 
L 231.195873 77.214019 
L 235.3782 91.123914 
L 236.793333 93.177078 
L 239.268096 96.766099 
L 240.557083 99.733437 
L 239.024978 103.307547 
L 237.094938 105.608466 
L 232.99518 108.463396 
L 231.863303 110.825107 
L 229.466521 115.620792 
L 233.960773 121.374238 
L 235.612144 123.897679 
L 236.56971 126.400473 
L 237.616725 134.501866 
L 238.515805 139.835503 
L 239.679792 141.99878 
L 241.558227 145.486864 
L 245.254317 150.134584 
L 255.950385 160.799563 
L 258.163681 164.143122 
L 257.512307 175.380464 
L 252.49856 194.39574 
L 242.968773 209.031698 
L 235.227971 225.216131 
L 231.025002 236.638143 
L 234.140818 270.923678 
L 234.975678 285.274028 
L 235.399989 308.409395 
L 233.886232 312.596013 
L 230.42294 319.283132 
L 229.207347 324.72 
L 224.788783 321.344324 
L 216.983761 306.094711 
L 209.023923 288.783905 
L 200.285418 269.433701 
L 195.709744 263.996832 
L 193.840483 263.021866 
L 191.489573 263.170979 
L 187.701741 262.888812 
L 178.944887 270.773418 
L 173.847425 277.170341 
L 167.011437 282.252781 
L 159.368112 285.208648 
L 155.45528 285.520637 
L 132.404892 277.835612 
L 126.778762 275.11259 
L 118.477182 270.611689 
L 115.260449 268.867073 
L 103.424476 262.331361 
L 102.699707 261.920728 
L 99.916459 261.375894 
L 96.347663 261.739499 
L 91.567861 261.920728 
L 88.347687 258.601256 
L 88.08278 254.379081 
L 87.98989 250.923113 
L 86.050676 248.376732 
L 82.281192 247.264124 
L 79.793814 245.144433 
L 80.056428 244.348402 
L 71.260584 244.772799 
L 60.698689 246.837433 
L 53.753756 247.571525 
L 50.492299 247.91563 
L 39.322608 249.085589 
L 21.535965 250.530833 
L 20.297437 233.990824 
L 20.22863 230.217132 
L 20.159823 226.443441 
L 20.019915 222.279763 
L 19.987805 221.316268 
L 20.113951 209.926372 
L 19.765328 198.76244 
L 19.150651 179.094511 
z
" clip-path="url(#p9e055de073)" style="fill: none; stroke: #000000; stroke-width: 1.2"/>
   </g>
  </g>
 </g>
 <defs>
  <clipPath id="p9e055de073">
   <rect x="7.2" y="7.2" width="262.914332" height="332.64"/>
  </clipPath>
 </defs>
</svg>
