<?xml version="1.0" encoding="utf-8" standalone="no"?>
<!DOCTYPE svg PUBLIC "-//W3C//DTD SVG 1.1//EN"
  "http://www.w3.org/Graphics/SVG/1.1/DTD/svg11.dtd">
<svg xmlns:xlink="http://www.w3.org/1999/xlink" width="349.2pt" height="270.736878pt" viewBox="0 0 349.2 270.736878" xmlns="http://www.w3.org/2000/svg" version="1.1">
 <metadata>
  <rdf:RDF xmlns:dc="http://purl.org/dc/elements/1.1/" xmlns:cc="http://creativecommons.org/ns#" xmlns:rdf="http://www.w3.org/1999/02/22-rdf-syntax-ns#">
   <cc:Work>
    <dc:type rdf:resource="http://purl.org/dc/dcmitype/StillImage"/>
    <dc:date>2026-01-20T15:33:09.482934</dc:date>
    <dc:format>image/svg+xml</dc:format>
    <dc:creator>
     <cc:Agent>
      <dc:title>Matplotlib v3.10.0, https://matplotlib.org/</dc:title>
     </cc:Agent>
    </dc:creator>
   </cc:Work>
  </rdf:RDF>
 </metadata>
 <defs>
  <style type="text/css">*{stroke-linejoin: round; stroke-linecap: butt}</style>
 </defs>
 <g id="figure_1">
  <g id="patch_1">
   <path d="M 0 270.736878 
L 349.2 270.736878 
L 349.2 0 
L 0 0 
z
" style="fill: #ffffff"/>
  </g>
  <g id="axes_1">
   <g id="PatchCollection_1">
    <path d="M 22.418182 237.414812 
L 26.926506 232.769601 
L 34.885251 223.9678 
L 47.780563 212.766194 
L 51.134982 208.476858 
L 64.047236 200.236173 
L 67.10612 197.920158 
L 71.397969 195.255799 
L 73.449774 193.777691 
L 75.332164 192.421975 
L 76.800428 191.235723 
L 78.861645 190.40723 
L 80.565208 189.691713 
L 84.857058 186.848474 
L 88.857136 183.656892 
L 90.146573 182.847228 
L 91.502835 181.917056 
L 85.346479 173.168919 
L 82.2123 171.549591 
L 56.950626 172.622867 
L 48.79423 172.641696 
L 48.769759 171.232316 
L 30.167981 172.259459 
L 27.706756 169.14037 
L 28.807013 168.464395 
L 30.585872 166.920384 
L 30.622579 166.863896 
L 32.941683 163.255243 
L 33.48287 162.086879 
L 36.082451 156.476661 
L 38.764856 150.003115 
L 43.924487 136.413941 
L 36.041038 123.432015 
L 33.043332 108.744146 
L 31.414124 97.011551 
L 31.763307 87.321944 
L 32.11249 86.591364 
L 38.305553 86.393655 
L 45.910409 86.365411 
L 55.774132 86.327752 
L 60.988353 86.130044 
L 69.176749 85.819359 
L 75.134513 85.593406 
L 76.263947 85.753456 
L 83.737036 85.452186 
L 84.697054 85.433356 
L 86.777095 85.386283 
L 92.34897 85.263892 
L 107.125731 85.885262 
L 113.855275 85.555747 
L 122.37309 85.405112 
L 127.577898 84.341251 
L 128.509681 83.29622 
L 131.282442 84.184026 
L 139.625194 83.781077 
L 144.477054 83.769779 
L 145.139656 83.781077 
L 145.213069 87.153421 
L 145.701549 95.679371 
L 152.456505 87.58179 
L 157.648137 83.502402 
L 168.711884 76.157055 
L 175.791553 68.753337 
L 176.131324 68.398403 
L 176.276268 68.179041 
L 181.283426 60.636927 
L 181.684375 60.031562 
L 182.054264 59.486451 
L 202.168542 29.797203 
L 203.361978 28.252251 
L 204.582708 30.057049 
L 206.611924 33.398325 
L 206.844399 33.791859 
L 206.911224 33.904836 
L 208.707024 36.89306 
L 209.846811 39.280628 
L 210.230819 40.084643 
L 212.890636 45.565879 
L 213.67371 47.058109 
L 223.665436 39.37195 
L 231.333352 33.480233 
L 244.039484 23.705894 
L 250.350197 18.851676 
L 255.197351 25.440081 
L 253.039191 26.949257 
L 254.323922 28.689093 
L 262.808795 39.86528 
L 274.253726 55.259252 
L 280.080664 63.732479 
L 285.190412 71.019455 
L 290.244629 78.457066 
L 296.005683 86.770243 
L 302.436869 94.268108 
L 295.862622 101.57862 
L 295.515321 101.965564 
L 293.595283 104.319239 
L 292.767031 105.891493 
L 290.743462 109.731748 
L 286.846915 117.697523 
L 284.089213 121.557549 
L 282.408239 123.471557 
L 276.870248 133.533044 
L 273.515829 138.887182 
L 283.891562 154.866748 
L 287.539634 158.329473 
L 290.649342 159.847123 
L 298.931858 162.643288 
L 303.123 165.550546 
L 303.261355 165.646576 
L 308.616755 170.476316 
L 309.94384 171.173003 
L 320.438164 174.703515 
L 320.146393 177.94217 
L 320.974645 178.798908 
L 324.758249 179.542669 
L 326.781818 179.975745 
L 326.424164 185.624563 
L 322.011842 199.945259 
L 314.978292 228.709983 
L 322.405261 230.918671 
L 325.520617 232.142582 
L 320.692287 246.612972 
L 320.541695 246.876583 
L 320.391104 247.140195 
L 314.489812 245.56794 
L 310.433261 244.475835 
L 308.644991 250.595388 
L 306.404947 251.885202 
L 303.666069 251.885202 
L 299.46834 251.725152 
L 295.345905 251.649835 
L 291.41171 251.612176 
L 287.213981 251.461541 
L 282.282119 251.33915 
L 279.146057 251.376808 
L 278.093801 242.875337 
L 278.042977 242.162644 
L 264.152821 242.035546 
L 253.106957 241.842545 
L 241.205546 241.507381 
L 241.246017 241.915038 
L 229.245781 240.822933 
L 223.655083 240.088586 
L 218.2338 239.749657 
L 211.108954 239.67434 
L 203.278211 239.391899 
L 199.080482 239.250678 
L 192.802711 239.062384 
L 191.456802 238.968237 
L 175.051774 238.704626 
L 165.028047 238.139744 
L 156.717295 237.829059 
L 151.954849 237.678424 
L 149.855984 237.706668 
L 123.069574 236.831101 
L 122.939689 236.823569 
L 116.236499 236.454513 
L 111.079691 236.05533 
L 110.881099 236.040267 
L 99.925589 235.880217 
L 83.285262 237.02881 
L 77.339733 237.56074 
L 68.404969 238.337453 
L 62.757799 238.657552 
L 61.465538 238.663201 
L 58.19018 238.312033 
L 53.55103 238.327097 
L 48.244572 238.17552 
L 43.134825 238.312033 
L 38.324377 238.638723 
L 37.598716 238.583176 
L 22.418182 237.414812 
z
" clip-path="url(#p3f85762e84)" style="fill: none; stroke: #000000; stroke-width: 1.2"/>
   </g>
  </g>
 </g>
 <defs>
  <clipPath id="p3f85762e84">
   <rect x="7.2" y="7.2" width="334.8" height="256.336878"/>
  </clipPath>
 </defs>
</svg>
