<?xml version="1.0" encoding="utf-8" standalone="no"?>
<!DOCTYPE svg PUBLIC "-//W3C//DTD SVG 1.1//EN"
  "http://www.w3.org/Graphics/SVG/1.1/DTD/svg11.dtd">
<svg xmlns:xlink="http://www.w3.org/1999/xlink" width="349.2pt" height="258.676129pt" viewBox="0 0 349.2 258.676129" xmlns="http://www.w3.org/2000/svg" version="1.1">
 <metadata>
  <rdf:RDF xmlns:dc="http://purl.org/dc/elements/1.1/" xmlns:cc="http://creativecommons.org/ns#" xmlns:rdf="http://www.w3.org/1999/02/22-rdf-syntax-ns#">
   <cc:Work>
    <dc:type rdf:resource="http://purl.org/dc/dcmitype/StillImage"/>
    <dc:date>2026-01-20T15:33:10.809971</dc:date>
    <dc:format>image/svg+xml</dc:format>
    <dc:creator>
     <cc:Agent>
      <dc:title>Matplotlib v3.10.0, https://matplotlib.org/</dc:title>
     </cc:Agent>
    </dc:creator>
   </cc:Work>
  </rdf:RDF>
 </metadata>
 <defs>
  <style type="text/css">*{stroke-linejoin: round; stroke-linecap: butt}</style>
 </defs>
 <g id="figure_1">
  <g id="patch_1">
   <path d="M 0 258.676129 
L 349.2 258.676129 
L 349.2 -0 
L 0 -0 
z
" style="fill: #ffffff"/>
  </g>
  <g id="axes_1">
   <g id="PatchCollection_1">
    <path d="M 22.418182 115.450986 
L 23.397603 113.316979 
L 23.371451 110.295279 
L 24.501876 106.987526 
L 24.53562 103.359124 
L 24.856189 52.488076 
L 37.565037 40.329552 
L 41.833658 38.532227 
L 69.809997 26.750044 
L 89.865766 18.30346 
L 130.05576 21.386759 
L 165.451569 24.102998 
L 188.713022 29.931225 
L 204.585375 43.478668 
L 239.63362 70.873107 
L 281.792579 91.333079 
L 305.701917 90.718782 
L 319.267021 90.370286 
L 314.806902 99.615962 
L 319.723409 129.370551 
L 326.781818 144.429266 
L 258.777457 160.031397 
L 257.44288 162.010986 
L 253.013975 166.780226 
L 241.087145 176.612353 
L 238.847384 178.458619 
L 230.467052 185.02434 
L 229.847006 185.509533 
L 229.197433 186.018354 
L 223.788263 190.25599 
L 222.865364 190.979139 
L 216.21357 195.513799 
L 208.333494 200.828987 
L 204.738066 202.595091 
L 191.426043 206.447948 
L 190.068689 206.841165 
L 189.790301 206.921328 
L 183.855568 208.639334 
L 172.892973 213.351195 
L 160.966143 218.84274 
L 157.837227 220.283131 
L 156.327181 220.978434 
L 156.037826 221.111757 
L 149.580904 224.667592 
L 143.183035 228.406534 
L 141.990183 229.104369 
L 136.868681 231.121929 
L 135.461555 231.567463 
L 135.448057 231.571682 
L 125.83185 234.569756 
L 123.704288 235.177302 
L 121.319428 235.86923 
L 116.605386 236.884339 
L 114.129417 237.199082 
L 111.723467 237.334936 
L 108.041149 237.5172 
L 105.922024 237.619301 
L 102.885904 237.804941 
L 94.260927 238.263132 
L 81.094003 239.000626 
L 54.780402 240.372668 
L 53.549588 240.216563 
L 51.551098 239.934728 
L 33.966235 234.941878 
L 33.604331 230.631673 
L 33.574805 229.484085 
L 33.322568 229.519525 
L 33.097326 224.587429 
L 33.066113 223.91069 
L 32.10947 213.89883 
L 31.507139 205.616791 
L 31.162106 203.197574 
L 30.751272 197.744845 
L 30.41805 193.612685 
L 29.82078 185.537379 
L 29.814031 185.41587 
L 29.351738 178.997817 
L 28.930781 173.718913 
L 28.855701 173.079301 
L 28.821113 172.779747 
L 27.896526 163.116383 
L 27.650195 161.174766 
L 27.39374 157.166646 
L 26.076879 141.578016 
L 25.95287 138.208665 
L 25.615429 134.698396 
L 25.337041 130.960298 
L 24.139128 118.978131 
L 22.418182 115.450986 
z
" clip-path="url(#p1f9aae44ea)" style="fill: none; stroke: #000000; stroke-width: 1.2"/>
   </g>
  </g>
 </g>
 <defs>
  <clipPath id="p1f9aae44ea">
   <rect x="7.2" y="7.2" width="334.8" height="244.276129"/>
  </clipPath>
 </defs>
</svg>
