<?xml version="1.0" encoding="utf-8" standalone="no"?>
<!DOCTYPE svg PUBLIC "-//W3C//DTD SVG 1.1//EN"
  "http://www.w3.org/Graphics/SVG/1.1/DTD/svg11.dtd">
<svg xmlns:xlink="http://www.w3.org/1999/xlink" width="349.2pt" height="301.270178pt" viewBox="0 0 349.2 301.270178" xmlns="http://www.w3.org/2000/svg" version="1.1">
 <metadata>
  <rdf:RDF xmlns:dc="http://purl.org/dc/elements/1.1/" xmlns:cc="http://creativecommons.org/ns#" xmlns:rdf="http://www.w3.org/1999/02/22-rdf-syntax-ns#">
   <cc:Work>
    <dc:type rdf:resource="http://purl.org/dc/dcmitype/StillImage"/>
    <dc:date>2026-01-20T15:33:11.746943</dc:date>
    <dc:format>image/svg+xml</dc:format>
    <dc:creator>
     <cc:Agent>
      <dc:title>Matplotlib v3.10.0, https://matplotlib.org/</dc:title>
     </cc:Agent>
    </dc:creator>
   </cc:Work>
  </rdf:RDF>
 </metadata>
 <defs>
  <style type="text/css">*{stroke-linejoin: round; stroke-linecap: butt}</style>
 </defs>
 <g id="figure_1">
  <g id="patch_1">
   <path d="M 0 301.270178 
L 349.2 301.270178 
L 349.2 0 
L 0 0 
z
" style="fill: #ffffff"/>
  </g>
  <g id="axes_1">
   <g id="PatchCollection_1">
    <path d="M 22.418182 26.57934 
L 40.657421 25.097312 
L 52.111335 23.897575 
L 55.455783 23.544711 
L 62.577436 22.791935 
L 73.408087 20.674752 
L 82.42775 20.239554 
L 82.158453 21.055845 
L 84.709125 23.229486 
L 88.574526 24.370413 
L 90.563086 26.981605 
L 90.658339 30.525534 
L 90.929987 34.855173 
L 94.232101 38.259133 
L 99.133529 38.073292 
L 102.793137 37.700432 
L 105.647207 38.259133 
L 106.390418 38.680217 
L 118.527568 45.382278 
L 121.826154 47.171297 
L 130.338975 51.786756 
L 136.108266 54.579085 
L 159.745192 62.459711 
L 163.757589 62.139781 
L 171.595406 59.108681 
L 178.605342 53.896882 
L 183.832513 47.337143 
L 192.812192 39.251857 
L 196.69641 39.541205 
L 199.107141 39.388297 
L 201.023966 40.388078 
L 205.716072 45.963327 
L 214.676937 65.806036 
L 222.83932 83.557439 
L 230.842947 99.195188 
L 235.373946 102.656782 
L 236.702788 115.124637 
L 259.42246 131.673951 
L 268.806672 145.37683 
L 297.488494 168.501173 
L 319.36147 190.484589 
L 324.488684 200.764689 
L 326.781818 217.913871 
L 321.983875 238.203541 
L 309.389274 260.951496 
L 295.289437 281.030624 
L 281.736423 280.243738 
L 232.127103 268.547478 
L 132.834376 204.449764 
L 70.023656 173.281301 
L 67.702298 172.948433 
L 39.599052 169.101041 
L 35.556079 155.05118 
L 34.424799 142.276333 
L 34.336602 141.276552 
L 32.757279 123.422818 
L 29.970238 97.863715 
L 28.394443 93.594063 
L 27.02797 79.337188 
L 26.799833 76.943595 
L 26.54112 74.298292 
L 25.264021 60.995326 
L 23.962226 46.927821 
L 23.421281 39.95288 
L 22.418182 26.57934 
z
" clip-path="url(#pbd75ddeb31)" style="fill: none; stroke: #000000; stroke-width: 1.2"/>
   </g>
  </g>
 </g>
 <defs>
  <clipPath id="pbd75ddeb31">
   <rect x="7.2" y="7.2" width="334.8" height="286.870178"/>
  </clipPath>
 </defs>
</svg>
