<?xml version="1.0" encoding="utf-8" standalone="no"?>
<!DOCTYPE svg PUBLIC "-//W3C//DTD SVG 1.1//EN"
  "http://www.w3.org/Graphics/SVG/1.1/DTD/svg11.dtd">
<svg xmlns:xlink="http://www.w3.org/1999/xlink" width="349.2pt" height="232.151136pt" viewBox="0 0 349.2 232.151136" xmlns="http://www.w3.org/2000/svg" version="1.1">
 <metadata>
  <rdf:RDF xmlns:dc="http://purl.org/dc/elements/1.1/" xmlns:cc="http://creativecommons.org/ns#" xmlns:rdf="http://www.w3.org/1999/02/22-rdf-syntax-ns#">
   <cc:Work>
    <dc:type rdf:resource="http://purl.org/dc/dcmitype/StillImage"/>
    <dc:date>2026-01-20T15:33:09.220374</dc:date>
    <dc:format>image/svg+xml</dc:format>
    <dc:creator>
     <cc:Agent>
      <dc:title>Matplotlib v3.10.0, https://matplotlib.org/</dc:title>
     </cc:Agent>
    </dc:creator>
   </cc:Work>
  </rdf:RDF>
 </metadata>
 <defs>
  <style type="text/css">*{stroke-linejoin: round; stroke-linecap: butt}</style>
 </defs>
 <g id="figure_1">
  <g id="patch_1">
   <path d="M 0 232.151136 
L 349.2 232.151136 
L 349.2 0 
L 0 0 
z
" style="fill: #ffffff"/>
  </g>
  <g id="axes_1">
   <g id="PatchCollection_1">
    <path d="M 22.418182 112.966554 
L 26.233499 107.541196 
L 33.40973 96.801343 
L 35.40051 93.48654 
L 67.844556 79.498401 
L 98.47792 66.138025 
L 114.728343 59.351824 
L 127.671881 51.677333 
L 145.634625 48.377773 
L 172.733903 42.452146 
L 183.053545 38.377931 
L 193.094727 30.460927 
L 208.818708 17.097779 
L 221.623709 29.565708 
L 232.73717 40.385937 
L 236.078689 43.545532 
L 236.235236 43.693811 
L 244.935378 51.921231 
L 290.634671 98.368669 
L 298.847161 107.555054 
L 303.130734 111.84268 
L 326.781818 137.736118 
L 300.009489 163.484049 
L 293.610452 169.638331 
L 285.713827 177.20473 
L 249.338093 210.80869 
L 247.465068 207.606135 
L 247.118725 207.079536 
L 243.831236 199.493735 
L 236.732585 201.873132 
L 234.921903 202.390031 
L 230.699287 203.522219 
L 221.702676 205.879444 
L 218.826642 206.15383 
L 218.872359 213.875437 
L 214.815987 213.846336 
L 214.640045 215.036727 
L 201.85721 214.565559 
L 197.590262 214.454696 
L 195.258679 214.444996 
L 180.910373 214.385407 
L 168.289627 214.163681 
L 164.520027 214.094392 
L 152.044745 213.964128 
L 150.398922 214.140123 
L 146.125047 214.602976 
L 143.862733 215.053357 
L 143.14511 177.260162 
L 147.82767 177.745187 
L 147.637874 173.483891 
L 147.107277 161.614622 
L 146.954886 152.801013 
L 146.52542 145.26233 
L 140.374365 146.038371 
L 133.641453 147.174716 
L 109.767323 151.715942 
L 108.961036 128.488759 
L 108.930558 112.908351 
L 107.820874 112.926366 
L 107.790396 111.986802 
L 72.506336 113.124533 
L 47.897959 113.221539 
L 22.418182 112.966554 
z
" clip-path="url(#pbc2a6a20b4)" style="fill: none; stroke: #000000; stroke-width: 1.2"/>
   </g>
  </g>
 </g>
 <defs>
  <clipPath id="pbc2a6a20b4">
   <rect x="7.2" y="7.2" width="334.8" height="217.751136"/>
  </clipPath>
 </defs>
</svg>
