<?xml version="1.0" encoding="utf-8" standalone="no"?>
<!DOCTYPE svg PUBLIC "-//W3C//DTD SVG 1.1//EN"
  "http://www.w3.org/Graphics/SVG/1.1/DTD/svg11.dtd">
<svg xmlns:xlink="http://www.w3.org/1999/xlink" width="349.2pt" height="155.775293pt" viewBox="0 0 349.2 155.775293" xmlns="http://www.w3.org/2000/svg" version="1.1">
 <metadata>
  <rdf:RDF xmlns:dc="http://purl.org/dc/elements/1.1/" xmlns:cc="http://creativecommons.org/ns#" xmlns:rdf="http://www.w3.org/1999/02/22-rdf-syntax-ns#">
   <cc:Work>
    <dc:type rdf:resource="http://purl.org/dc/dcmitype/StillImage"/>
    <dc:date>2026-01-20T15:33:08.191705</dc:date>
    <dc:format>image/svg+xml</dc:format>
    <dc:creator>
     <cc:Agent>
      <dc:title>Matplotlib v3.10.0, https://matplotlib.org/</dc:title>
     </cc:Agent>
    </dc:creator>
   </cc:Work>
  </rdf:RDF>
 </metadata>
 <defs>
  <style type="text/css">*{stroke-linejoin: round; stroke-linecap: butt}</style>
 </defs>
 <g id="figure_1">
  <g id="patch_1">
   <path d="M 0 155.775293 
L 349.2 155.775293 
L 349.2 0 
L 0 0 
z
" style="fill: #ffffff"/>
  </g>
  <g id="axes_1">
   <g id="PatchCollection_1">
    <path d="M 22.418182 84.709468 
L 31.245237 74.580252 
L 35.004924 70.918677 
L 38.63889 67.446169 
L 38.693626 67.390561 
L 70.103609 35.835142 
L 90.68097 15.020628 
L 104.475328 16.082314 
L 105.134728 16.132789 
L 109.50592 15.835927 
L 114.149083 15.711879 
L 118.970993 15.849615 
L 123.18653 15.835927 
L 126.162807 16.155032 
L 127.337068 16.149899 
L 132.468579 15.859026 
L 140.587486 15.153232 
L 145.990112 14.66987 
L 161.110967 13.62615 
L 171.066099 13.771586 
L 171.246557 13.785274 
L 175.932483 14.14801 
L 182.023587 14.483369 
L 182.141612 14.490213 
L 206.482082 15.285836 
L 208.389293 15.26017 
L 212.716868 15.397052 
L 220.268743 15.679369 
L 229.377176 16.192674 
L 244.284217 16.432216 
L 245.507227 16.517767 
L 251.211758 16.688869 
L 255.026181 16.817195 
L 262.141877 17.073848 
L 268.616134 17.142288 
L 273.542385 17.450271 
L 278.622582 18.117568 
L 289.527044 19.109957 
L 289.490268 18.739522 
L 300.304929 19.044083 
L 310.342166 19.219462 
L 322.963974 19.334956 
L 323.010157 19.982575 
L 323.966329 27.707814 
L 324.659083 36.346736 
L 324.996907 40.552414 
L 325.831633 50.966515 
L 326.781818 61.305331 
L 326.748463 61.990593 
L 326.733069 62.097532 
L 325.893211 68.0955 
L 324.49573 74.854014 
L 324.438428 75.129488 
L 324.204944 76.5214 
L 323.429231 79.623472 
L 322.226746 84.506713 
L 321.409981 87.298236 
L 319.84487 94.46825 
L 318.280614 100.173634 
L 318.028315 101.537314 
L 317.219246 102.769246 
L 316.038999 104.566669 
L 315.667819 104.983301 
L 314.318232 106.321316 
L 312.914763 108.007523 
L 311.087945 109.502951 
L 308.633372 110.290018 
L 304.605136 111.45351 
L 301.149918 112.300463 
L 299.86704 112.813768 
L 296.052616 113.917373 
L 290.989525 115.072309 
L 286.901421 115.944927 
L 283.570214 116.709752 
L 281.085707 117.313741 
L 277.485097 118.32324 
L 274.33777 119.076087 
L 270.73887 120.002603 
L 268.80429 120.436345 
L 267.410229 120.91543 
L 264.220139 121.711053 
L 263.706988 121.907819 
L 247.970353 125.59506 
L 242.103324 127.066534 
L 231.960037 129.350741 
L 226.144323 130.582672 
L 219.00297 132.387795 
L 203.471595 136.699556 
L 198.941325 137.795462 
L 185.075126 141.199529 
L 183.223505 141.633271 
L 181.063994 142.140588 
L 176.667999 142.149143 
L 172.682525 141.89249 
L 166.546093 139.850392 
L 165.891825 139.685279 
L 163.779353 138.299356 
L 155.355976 131.711943 
L 151.099387 128.464434 
L 150.753866 128.212915 
L 149.500066 127.475467 
L 148.142782 126.792771 
L 147.683511 126.561784 
L 147.645025 126.54724 
L 144.955258 125.560839 
L 140.850048 124.919208 
L 100.439395 125.252856 
L 65.604983 125.885932 
L 64.219475 126.270911 
L 51.330829 113.421178 
L 43.659219 106.474452 
L 35.17512 97.679828 
L 32.438313 94.933647 
L 30.231763 92.580999 
L 29.640784 91.982143 
L 26.108594 88.374465 
L 24.31342 86.541111 
L 22.418182 84.709468 
z
" clip-path="url(#p7b6ef1f5fd)" style="fill: none; stroke: #000000; stroke-width: 1.2"/>
   </g>
  </g>
 </g>
 <defs>
  <clipPath id="p7b6ef1f5fd">
   <rect x="7.2" y="7.2" width="334.8" height="141.375293"/>
  </clipPath>
 </defs>
</svg>
