<?xml version="1.0" encoding="utf-8" standalone="no"?>
<!DOCTYPE svg PUBLIC "-//W3C//DTD SVG 1.1//EN"
  "http://www.w3.org/Graphics/SVG/1.1/DTD/svg11.dtd">
<svg xmlns:xlink="http://www.w3.org/1999/xlink" width="314.90888pt" height="347.04pt" viewBox="0 0 314.90888 347.04" xmlns="http://www.w3.org/2000/svg" version="1.1">
 <metadata>
  <rdf:RDF xmlns:dc="http://purl.org/dc/elements/1.1/" xmlns:cc="http://creativecommons.org/ns#" xmlns:rdf="http://www.w3.org/1999/02/22-rdf-syntax-ns#">
   <cc:Work>
    <dc:type rdf:resource="http://purl.org/dc/dcmitype/StillImage"/>
    <dc:date>2026-01-20T15:33:08.247554</dc:date>
    <dc:format>image/svg+xml</dc:format>
    <dc:creator>
     <cc:Agent>
      <dc:title>Matplotlib v3.10.0, https://matplotlib.org/</dc:title>
     </cc:Agent>
    </dc:creator>
   </cc:Work>
  </rdf:RDF>
 </metadata>
 <defs>
  <style type="text/css">*{stroke-linejoin: round; stroke-linecap: butt}</style>
 </defs>
 <g id="figure_1">
  <g id="patch_1">
   <path d="M -0 347.04 
L 314.90888 347.04 
L 314.90888 -0 
L -0 -0 
z
" style="fill: #ffffff"/>
  </g>
  <g id="axes_1">
   <g id="PatchCollection_1">
    <path d="M 20.859495 219.751743 
L 25.160267 214.583321 
L 27.961807 211.216066 
L 31.172427 207.283973 
L 41.778025 194.740022 
L 42.024996 194.439646 
L 47.732522 187.461352 
L 51.942992 182.324491 
L 62.344051 169.808836 
L 64.672321 167.098925 
L 66.859154 164.574027 
L 72.70159 157.412896 
L 77.027386 152.315215 
L 78.451547 150.63594 
L 78.500506 150.57826 
L 82.885053 144.548979 
L 77.434289 140.674567 
L 83.153783 133.362159 
L 84.755285 132.39138 
L 88.142157 128.404872 
L 93.601625 120.264254 
L 97.105998 114.971764 
L 106.777024 102.681391 
L 111.672919 94.834619 
L 116.166264 88.598558 
L 119.63691 83.592295 
L 125.065914 74.515724 
L 134.074362 60.694088 
L 138.524187 54.610391 
L 143.169848 47.536325 
L 143.681197 47.873703 
L 160.490439 24.823131 
L 161.186744 22.32 
L 177.529244 42.329812 
L 194.990184 63.708728 
L 208.165583 79.05401 
L 226.410955 99.481736 
L 228.336673 101.125096 
L 229.870721 101.157746 
L 230.784621 102.400605 
L 230.871659 105.543667 
L 234.908053 116.513911 
L 239.259961 125.753729 
L 240.137958 127.735556 
L 243.829463 136.070983 
L 245.504948 138.857076 
L 246.32093 140.522203 
L 247.931136 143.101516 
L 249.552221 150.077633 
L 252.89231 156.509592 
L 255.177062 161.387433 
L 255.318499 161.689985 
L 255.454496 162.020834 
L 256.156241 163.725139 
L 257.657649 166.815962 
L 258.08196 167.980462 
L 261.204453 176.53464 
L 263.924395 182.825118 
L 265.284366 188.843515 
L 266.209146 193.360035 
L 273.248356 210.08748 
L 274.075219 212.046452 
L 278.786158 223.223477 
L 285.329251 237.653483 
L 286.22792 239.63531 
L 291.798361 255.100307 
L 293.469494 266.720276 
L 294.049385 273.911881 
L 279.472672 274.289527 
L 278.320504 274.396182 
L 258.482335 276.236528 
L 256.836226 278.541585 
L 255.274979 279.519983 
L 251.114556 280.636597 
L 250.184336 280.877115 
L 244.558408 282.134122 
L 239.673392 285.388193 
L 236.311544 289.654399 
L 233.701487 295.137344 
L 230.902123 300.129458 
L 230.200378 301.715137 
L 229.546504 303.504332 
L 229.031891 306.122824 
L 228.891542 306.653924 
L 228.788184 307.071838 
L 228.30077 309.870991 
L 228.050536 311.106232 
L 227.162746 316.348659 
L 216.788888 316.154938 
L 212.782957 316.249622 
L 210.417695 316.343217 
L 207.75324 316.53585 
L 203.044476 316.53585 
L 199.261581 315.529156 
L 194.973864 312.786595 
L 193.826049 311.732015 
L 190.711171 316.185411 
L 188.416628 315.642341 
L 182.175993 315.446444 
L 168.218339 316.023252 
L 162.751255 315.977543 
L 161.706797 316.07005 
L 153.569819 316.76222 
L 148.816448 317.18884 
L 136.814976 318.504617 
L 133.065808 319.520017 
L 130.777792 320.138182 
L 123.412189 320.671458 
L 111.705559 322.380117 
L 104.089721 322.63043 
L 96.822036 323.631682 
L 84.90869 324.643818 
L 83.189686 324.72 
L 83.511728 324.286849 
L 86.268661 320.584392 
L 94.667842 308.438765 
L 94.072718 308.125329 
L 93.634264 307.894606 
L 67.022351 289.404086 
L 65.379506 288.500782 
L 54.282142 280.38846 
L 53.999268 266.168499 
L 53.738154 261.238419 
L 53.585837 248.548633 
L 56.806249 243.466189 
L 54.325661 241.888128 
L 41.215541 233.921641 
L 38.060408 231.886487 
L 36.395803 230.798169 
L 34.372167 229.590136 
L 30.346652 226.847575 
L 28.616769 225.508944 
L 26.560493 224.170313 
L 25.461636 223.397607 
L 24.128865 222.292965 
L 22.045389 220.567981 
L 20.859495 219.751743 
z
" clip-path="url(#pe816dce1e8)" style="fill: none; stroke: #000000; stroke-width: 1.2"/>
   </g>
  </g>
 </g>
 <defs>
  <clipPath id="pe816dce1e8">
   <rect x="7.2" y="7.2" width="300.50888" height="332.64"/>
  </clipPath>
 </defs>
</svg>
