<?xml version="1.0" encoding="utf-8" standalone="no"?>
<!DOCTYPE svg PUBLIC "-//W3C//DTD SVG 1.1//EN"
  "http://www.w3.org/Graphics/SVG/1.1/DTD/svg11.dtd">
<svg xmlns:xlink="http://www.w3.org/1999/xlink" width="201.361283pt" height="347.04pt" viewBox="0 0 201.361283 347.04" xmlns="http://www.w3.org/2000/svg" version="1.1">
 <metadata>
  <rdf:RDF xmlns:dc="http://purl.org/dc/elements/1.1/" xmlns:cc="http://creativecommons.org/ns#" xmlns:rdf="http://www.w3.org/1999/02/22-rdf-syntax-ns#">
   <cc:Work>
    <dc:type rdf:resource="http://purl.org/dc/dcmitype/StillImage"/>
    <dc:date>2026-01-20T15:33:08.958073</dc:date>
    <dc:format>image/svg+xml</dc:format>
    <dc:creator>
     <cc:Agent>
      <dc:title>Matplotlib v3.10.0, https://matplotlib.org/</dc:title>
     </cc:Agent>
    </dc:creator>
   </cc:Work>
  </rdf:RDF>
 </metadata>
 <defs>
  <style type="text/css">*{stroke-linejoin: round; stroke-linecap: butt}</style>
 </defs>
 <g id="figure_1">
  <g id="patch_1">
   <path d="M -0 347.04 
L 201.361283 347.04 
L 201.361283 -0 
L -0 -0 
z
" style="fill: #ffffff"/>
  </g>
  <g id="axes_1">
   <g id="PatchCollection_1">
    <path d="M 15.69824 109.899541 
L 25.893169 108.433043 
L 26.840033 89.231335 
L 22.619494 89.125047 
L 22.042499 74.579807 
L 25.893169 69.074384 
L 27.312121 70.378088 
L 32.612677 73.768524 
L 37.289163 75.013029 
L 43.110226 75.013029 
L 46.404076 74.774891 
L 49.328057 74.659186 
L 54.280264 74.542135 
L 67.104624 74.781618 
L 68.202126 68.300773 
L 68.51147 66.773731 
L 69.11402 63.313333 
L 69.241793 62.796696 
L 69.415295 62.140135 
L 70.05147 58.903076 
L 70.859801 56.69122 
L 71.727311 54.730955 
L 75.187938 48.559554 
L 78.414539 41.781373 
L 82.57052 36.507361 
L 88.609469 32.484582 
L 95.564347 30.930632 
L 96.714303 30.633296 
L 101.857497 29.252904 
L 103.787539 28.043379 
L 105.82249 25.193798 
L 130.346809 22.918708 
L 131.771141 22.786858 
L 149.791149 22.32 
L 149.846293 23.010196 
L 150.370834 30.412648 
L 150.397733 35.148496 
L 151.894693 58.424109 
L 152.832143 73.008366 
L 153.302885 79.869964 
L 154.930308 101.531084 
L 155.37684 106.498342 
L 155.629696 109.321014 
L 155.522098 111.056595 
L 156.177102 118.962231 
L 156.58194 124.377511 
L 157.660612 135.247088 
L 159.678078 159.800842 
L 161.507247 174.210196 
L 164.577831 185.023266 
L 165.179036 187.139597 
L 168.850824 193.301581 
L 169.313497 194.642956 
L 170.142003 197.041824 
L 184.211812 220.295911 
L 185.663043 230.596379 
L 185.23265 238.97829 
L 183.080686 246.283873 
L 159.210026 289.084094 
L 158.3869 290.561355 
L 150.881925 305.589598 
L 148.241735 310.089999 
L 145.415937 314.90388 
L 143.511449 319.338355 
L 140.740795 324.72 
L 132.049551 321.3336 
L 128.145081 320.246508 
L 121.248037 318.247227 
L 113.390678 316.230455 
L 104.242142 312.772749 
L 102.969793 317.130535 
L 93.651789 314.225793 
L 88.423862 312.966488 
L 84.456178 312.840019 
L 80.613578 314.247319 
L 78.723884 314.813737 
L 75.427344 314.856791 
L 69.423365 313.764317 
L 63.839019 312.483485 
L 56.721398 311.212072 
L 53.677714 307.977703 
L 50.790047 308.140498 
L 50.460528 307.531027 
L 49.060406 303.447704 
L 45.82977 295.629519 
L 43.917212 285.83089 
L 42.812986 282.058357 
L 41.790803 280.605313 
L 40.270978 278.910094 
L 38.004691 277.688461 
L 34.721601 276.696893 
L 30.60059 275.377045 
L 28.575054 273.486742 
L 25.453362 268.267892 
L 23.562323 262.233723 
L 23.014918 255.187804 
L 25.427807 249.094437 
L 26.783544 246.219293 
L 28.654408 242.589374 
L 32.12714 235.476185 
L 34.182265 233.624899 
L 36.30464 230.148357 
L 39.932044 226.377169 
L 44.457893 222.137779 
L 46.554713 220.372599 
L 50.379829 216.242187 
L 52.295077 212.279951 
L 53.945364 208.461674 
L 54.109452 206.989794 
L 53.186797 202.890326 
L 51.033488 197.519445 
L 50.796772 195.987021 
L 50.780632 195.237627 
L 50.771218 194.789605 
L 50.264161 194.646992 
L 38.024866 189.911144 
L 36.303295 189.184622 
L 31.663123 187.502858 
L 31.24349 175.746656 
L 31.212555 175.282489 
L 30.883036 165.638581 
L 30.522582 156.838247 
L 30.365219 154.273893 
L 30.33025 153.704784 
L 30.834617 150.00894 
L 31.131857 149.149222 
L 32.320817 147.381351 
L 26.915352 141.664699 
L 23.848804 137.682282 
L 20.661207 133.726773 
L 19.208631 130.161434 
L 19.370029 127.954959 
L 18.563042 123.124933 
L 16.451428 114.299036 
L 15.69824 109.899541 
z
" clip-path="url(#p71cac9f37d)" style="fill: none; stroke: #000000; stroke-width: 1.2"/>
   </g>
  </g>
 </g>
 <defs>
  <clipPath id="p71cac9f37d">
   <rect x="7.2" y="7.2" width="186.961283" height="332.64"/>
  </clipPath>
 </defs>
</svg>
