<?xml version="1.0" encoding="utf-8" standalone="no"?>
<!DOCTYPE svg PUBLIC "-//W3C//DTD SVG 1.1//EN"
  "http://www.w3.org/Graphics/SVG/1.1/DTD/svg11.dtd">
<svg xmlns:xlink="http://www.w3.org/1999/xlink" width="349.2pt" height="332.602851pt" viewBox="0 0 349.2 332.602851" xmlns="http://www.w3.org/2000/svg" version="1.1">
 <metadata>
  <rdf:RDF xmlns:dc="http://purl.org/dc/elements/1.1/" xmlns:cc="http://creativecommons.org/ns#" xmlns:rdf="http://www.w3.org/1999/02/22-rdf-syntax-ns#">
   <cc:Work>
    <dc:type rdf:resource="http://purl.org/dc/dcmitype/StillImage"/>
    <dc:date>2026-01-20T15:33:12.417150</dc:date>
    <dc:format>image/svg+xml</dc:format>
    <dc:creator>
     <cc:Agent>
      <dc:title>Matplotlib v3.10.0, https://matplotlib.org/</dc:title>
     </cc:Agent>
    </dc:creator>
   </cc:Work>
  </rdf:RDF>
 </metadata>
 <defs>
  <style type="text/css">*{stroke-linejoin: round; stroke-linecap: butt}</style>
 </defs>
 <g id="figure_1">
  <g id="patch_1">
   <path d="M 0 332.602851 
L 349.2 332.602851 
L 349.2 0 
L 0 0 
z
" style="fill: #ffffff"/>
  </g>
  <g id="axes_1">
   <g id="PatchCollection_1">
    <path d="M 22.418182 102.011869 
L 41.905175 91.154106 
L 71.59673 99.476352 
L 96.540478 97.830085 
L 116.153066 96.534228 
L 156.734995 83.992182 
L 185.382131 67.640249 
L 210.205242 26.139762 
L 228.65608 21.663766 
L 232.95439 32.448802 
L 233.509651 33.842179 
L 272.049014 130.543867 
L 268.876098 132.064516 
L 258.035301 137.188441 
L 277.370259 174.031114 
L 293.664506 206.642418 
L 305.94303 229.617436 
L 312.437593 244.74128 
L 319.938565 264.551035 
L 320.617767 266.346061 
L 326.500883 281.883124 
L 326.781818 282.625267 
L 312.586323 286.228543 
L 307.099823 287.650019 
L 295.168336 290.625202 
L 288.938183 292.790473 
L 282.889811 294.410295 
L 279.138499 295.484666 
L 272.197745 297.600351 
L 267.96719 298.691251 
L 262.761624 300.261486 
L 256.134857 301.649905 
L 250.169113 303.451543 
L 243.707602 305.087893 
L 239.443995 306.426725 
L 235.263017 307.418453 
L 232.503241 308.145719 
L 221.992956 310.310991 
L 204.641071 310.939085 
L 191.106601 308.013489 
L 178.200103 303.451543 
L 170.366966 299.765623 
L 160.104566 294.426823 
L 148.440793 287.092999 
L 147.331925 286.397137 
L 146.223057 285.699622 
L 134.836915 279.468268 
L 129.928811 277.104651 
L 124.078746 273.881537 
L 114.361691 268.476623 
L 107.553141 264.592357 
L 103.425045 262.245269 
L 102.347576 261.633703 
L 94.712746 257.744479 
L 90.86228 255.782512 
L 84.979165 252.724685 
L 79.178678 249.716445 
L 71.46122 246.162756 
L 68.437034 244.989211 
L 59.265323 241.253705 
L 51.068623 238.890088 
L 44.970675 238.295051 
L 39.765109 238.394224 
L 36.030323 238.658685 
L 35.40235 236.658701 
L 44.888047 232.757907 
L 60.686525 225.369537 
L 46.805017 183.039305 
L 38.304246 163.047733 
L 41.500298 161.998155 
L 42.128271 159.171732 
L 42.706667 156.510597 
L 41.731656 153.221367 
L 35.501503 138.758676 
L 30.21331 123.444751 
L 29.786949 122.266249 
L 22.418182 102.011869 
z
" clip-path="url(#p11501f36c2)" style="fill: none; stroke: #000000; stroke-width: 1.2"/>
   </g>
  </g>
 </g>
 <defs>
  <clipPath id="p11501f36c2">
   <rect x="7.2" y="7.2" width="334.8" height="318.202851"/>
  </clipPath>
 </defs>
</svg>
