<?xml version="1.0" encoding="utf-8" standalone="no"?>
<!DOCTYPE svg PUBLIC "-//W3C//DTD SVG 1.1//EN"
  "http://www.w3.org/Graphics/SVG/1.1/DTD/svg11.dtd">
<svg xmlns:xlink="http://www.w3.org/1999/xlink" width="349.2pt" height="239.471743pt" viewBox="0 0 349.2 239.471743" xmlns="http://www.w3.org/2000/svg" version="1.1">
 <metadata>
  <rdf:RDF xmlns:dc="http://purl.org/dc/elements/1.1/" xmlns:cc="http://creativecommons.org/ns#" xmlns:rdf="http://www.w3.org/1999/02/22-rdf-syntax-ns#">
   <cc:Work>
    <dc:type rdf:resource="http://purl.org/dc/dcmitype/StillImage"/>
    <dc:date>2026-01-20T15:33:08.372317</dc:date>
    <dc:format>image/svg+xml</dc:format>
    <dc:creator>
     <cc:Agent>
      <dc:title>Matplotlib v3.10.0, https://matplotlib.org/</dc:title>
     </cc:Agent>
    </dc:creator>
   </cc:Work>
  </rdf:RDF>
 </metadata>
 <defs>
  <style type="text/css">*{stroke-linejoin: round; stroke-linecap: butt}</style>
 </defs>
 <g id="figure_1">
  <g id="patch_1">
   <path d="M 0 239.471743 
L 349.2 239.471743 
L 349.2 -0 
L 0 -0 
z
" style="fill: #ffffff"/>
  </g>
  <g id="axes_1">
   <g id="PatchCollection_1">
    <path d="M 22.418182 116.199391 
L 33.743366 110.748231 
L 73.30557 89.240131 
L 80.131056 98.630476 
L 88.255764 108.844536 
L 102.5289 95.555275 
L 119.510271 82.595501 
L 137.058909 70.53266 
L 151.826114 61.819592 
L 158.651601 60.336905 
L 165.678375 58.964048 
L 175.541478 56.364771 
L 182.714644 54.717342 
L 207.857321 47.560179 
L 224.509312 43.038902 
L 265.938003 30.866232 
L 286.359566 24.78905 
L 296.716739 21.585716 
L 300.687599 20.505734 
L 310.660495 17.430534 
L 312.655074 38.096615 
L 315.180321 62.039249 
L 315.326712 63.92464 
L 315.930575 71.795689 
L 317.906856 90.667903 
L 318.949893 107.105583 
L 320.633391 127.167606 
L 323.890593 174.485427 
L 324.402962 181.056838 
L 326.781818 209.356006 
L 309.891941 209.136349 
L 300.358219 208.934997 
L 298.51003 208.898387 
L 296.131175 208.770254 
L 293.313145 208.64212 
L 288.518836 208.64212 
L 284.785862 208.697035 
L 277.096667 208.697035 
L 266.254574 208.250398 
L 254.347485 209.075943 
L 244.537449 210.490902 
L 239.867572 210.915572 
L 236.001016 211.151704 
L 233.689866 211.433597 
L 226.803993 212.141992 
L 214.834688 213.447121 
L 199.233053 215.797453 
L 179.128061 219.149056 
L 174.663131 196.139965 
L 150.106018 198.88568 
L 129.135489 201.375128 
L 114.789157 203.901186 
L 105.255435 205.969624 
L 80.844713 222.041209 
L 70.762024 207.708577 
L 59.398412 191.490554 
L 42.343845 167.16352 
L 45.820634 165.882187 
L 48.217789 164.070015 
L 37.933812 145.179496 
L 30.065289 133.025132 
L 28.40009 129.766883 
L 22.418182 116.199391 
z
" clip-path="url(#p834f8bac9f)" style="fill: none; stroke: #000000; stroke-width: 1.2"/>
   </g>
  </g>
 </g>
 <defs>
  <clipPath id="p834f8bac9f">
   <rect x="7.2" y="7.2" width="334.8" height="225.071743"/>
  </clipPath>
 </defs>
</svg>
