<?xml version="1.0" encoding="utf-8" standalone="no"?>
<!DOCTYPE svg PUBLIC "-//W3C//DTD SVG 1.1//EN"
  "http://www.w3.org/Graphics/SVG/1.1/DTD/svg11.dtd">
<svg xmlns:xlink="http://www.w3.org/1999/xlink" width="349.2pt" height="268.921262pt" viewBox="0 0 349.2 268.921262" xmlns="http://www.w3.org/2000/svg" version="1.1">
 <metadata>
  <rdf:RDF xmlns:dc="http://purl.org/dc/elements/1.1/" xmlns:cc="http://creativecommons.org/ns#" xmlns:rdf="http://www.w3.org/1999/02/22-rdf-syntax-ns#">
   <cc:Work>
    <dc:type rdf:resource="http://purl.org/dc/dcmitype/StillImage"/>
    <dc:date>2026-01-20T15:33:10.870543</dc:date>
    <dc:format>image/svg+xml</dc:format>
    <dc:creator>
     <cc:Agent>
      <dc:title>Matplotlib v3.10.0, https://matplotlib.org/</dc:title>
     </cc:Agent>
    </dc:creator>
   </cc:Work>
  </rdf:RDF>
 </metadata>
 <defs>
  <style type="text/css">*{stroke-linejoin: round; stroke-linecap: butt}</style>
 </defs>
 <g id="figure_1">
  <g id="patch_1">
   <path d="M 0 268.921262 
L 349.2 268.921262 
L 349.2 0 
L 0 0 
z
" style="fill: #ffffff"/>
  </g>
  <g id="axes_1">
   <g id="PatchCollection_1">
    <path d="M 22.418182 44.650355 
L 52.284441 41.365487 
L 61.746631 40.197071 
L 83.986298 38.134086 
L 86.993913 48.317304 
L 90.683359 59.352059 
L 136.97743 58.256668 
L 136.060935 44.759894 
L 135.320439 33.631249 
L 160.712431 31.548703 
L 173.499033 31.676499 
L 185.060166 31.201829 
L 188.594472 31.461333 
L 195.502731 32.048149 
L 197.543008 31.93209 
L 206.619305 31.418299 
L 207.335032 31.373962 
L 217.214403 30.351598 
L 224.210009 29.884753 
L 231.484606 27.666587 
L 244.744448 26.224323 
L 245.496678 26.142169 
L 266.534341 23.94226 
L 288.930451 21.601515 
L 300.299941 20.480044 
L 302.101642 20.302695 
L 317.423923 18.769148 
L 318.646786 30.467657 
L 319.090041 33.936393 
L 319.063967 35.666849 
L 318.998782 40.052323 
L 319.194336 45.464073 
L 319.298631 47.446208 
L 319.442037 49.369662 
L 319.550244 50.818446 
L 319.585443 51.293115 
L 320.002624 63.772741 
L 318.723703 71.291814 
L 319.307757 74.619714 
L 321.655705 75.236523 
L 322.486156 76.180646 
L 323.016758 94.353694 
L 318.148776 94.817931 
L 320.505849 114.388906 
L 310.900253 112.410683 
L 307.849616 115.386494 
L 306.333423 118.672665 
L 307.833972 123.118124 
L 310.60953 125.993524 
L 311.748956 128.784162 
L 309.29932 133.656041 
L 307.630596 141.141209 
L 323.705107 177.602061 
L 326.781818 193.133132 
L 326.534117 199.105617 
L 326.442858 203.865349 
L 312.206552 200.500936 
L 300.483761 179.25297 
L 297.287111 247.700526 
L 296.540096 250.152114 
L 286.28135 249.279714 
L 286.320461 244.216141 
L 286.433882 229.301879 
L 285.729889 226.593396 
L 283.877344 225.088538 
L 278.875081 223.881001 
L 275.965243 220.941703 
L 274.342147 217.058284 
L 272.438758 214.328936 
L 269.454609 214.069433 
L 266.900678 212.88276 
L 266.449601 210.852375 
L 267.762418 208.089123 
L 267.954061 205.876173 
L 266.055887 204.030962 
L 262.232161 205.829228 
L 259.212812 204.336107 
L 262.121347 197.647705 
L 261.516434 194.94835 
L 258.094245 193.058802 
L 253.1337 191.859088 
L 249.897939 188.347319 
L 241.891972 188.053911 
L 245.572292 186.097856 
L 246.759954 172.873625 
L 237.567629 172.873625 
L 236.04231 184.174403 
L 233.098575 180.469636 
L 231.19649 176.87832 
L 228.800306 175.742505 
L 223.758932 176.024177 
L 220.295025 175.657743 
L 222.19711 147.699207 
L 219.828304 145.654478 
L 213.577105 146.854191 
L 211.208298 146.95069 
L 210.16013 146.993723 
L 209.144555 143.022933 
L 207.479742 137.028278 
L 206.520225 133.272654 
L 206.259487 132.254202 
L 206.147369 126.92591 
L 201.97295 123.937059 
L 201.366734 123.836648 
L 200.778769 123.747974 
L 195.548361 125.927018 
L 195.493605 130.033428 
L 197.323988 134.141142 
L 198.988801 138.30493 
L 199.544174 142.801247 
L 191.441734 147.019804 
L 180.121784 149.573107 
L 174.571971 151.127518 
L 168.190403 151.84865 
L 159.755521 151.016675 
L 155.482022 148.407298 
L 150.765267 142.856016 
L 143.773572 138.471847 
L 137.446759 135.973313 
L 133.724721 136.412773 
L 131.342877 136.694445 
L 127.513937 139.914111 
L 125.959937 146.297368 
L 126.590923 150.564174 
L 130.122622 157.677692 
L 127.457878 167.335384 
L 120.68781 177.993271 
L 112.697487 185.874866 
L 108.652134 187.876562 
L 107.42536 188.484243 
L 102.153233 191.092315 
L 69.71088 190.672415 
L 64.23277 160.139712 
L 60.864032 151.585234 
L 34.560761 84.783372 
L 32.02117 78.333609 
L 25.93554 62.875564 
L 22.418182 44.650355 
z
" clip-path="url(#pa722a31e72)" style="fill: none; stroke: #000000; stroke-width: 1.2"/>
   </g>
  </g>
 </g>
 <defs>
  <clipPath id="pa722a31e72">
   <rect x="7.2" y="7.2" width="334.8" height="254.521262"/>
  </clipPath>
 </defs>
</svg>
