<?xml version="1.0" encoding="utf-8" standalone="no"?>
<!DOCTYPE svg PUBLIC "-//W3C//DTD SVG 1.1//EN"
  "http://www.w3.org/Graphics/SVG/1.1/DTD/svg11.dtd">
<svg xmlns:xlink="http://www.w3.org/1999/xlink" width="310.090807pt" height="347.04pt" viewBox="0 0 310.090807 347.04" xmlns="http://www.w3.org/2000/svg" version="1.1">
 <metadata>
  <rdf:RDF xmlns:dc="http://purl.org/dc/elements/1.1/" xmlns:cc="http://creativecommons.org/ns#" xmlns:rdf="http://www.w3.org/1999/02/22-rdf-syntax-ns#">
   <cc:Work>
    <dc:type rdf:resource="http://purl.org/dc/dcmitype/StillImage"/>
    <dc:date>2026-01-20T15:33:10.213323</dc:date>
    <dc:format>image/svg+xml</dc:format>
    <dc:creator>
     <cc:Agent>
      <dc:title>Matplotlib v3.10.0, https://matplotlib.org/</dc:title>
     </cc:Agent>
    </dc:creator>
   </cc:Work>
  </rdf:RDF>
 </metadata>
 <defs>
  <style type="text/css">*{stroke-linejoin: round; stroke-linecap: butt}</style>
 </defs>
 <g id="figure_1">
  <g id="patch_1">
   <path d="M 0 347.04 
L 310.090807 347.04 
L 310.090807 -0 
L 0 -0 
z
" style="fill: #ffffff"/>
  </g>
  <g id="axes_1">
   <g id="PatchCollection_1">
    <path d="M 20.640491 36.664965 
L 22.289728 35.996904 
L 26.913461 36.814938 
L 33.445403 38.293692 
L 36.464984 38.692222 
L 37.746209 38.925047 
L 40.438669 39.415867 
L 48.65864 40.905109 
L 57.45317 42.344011 
L 57.696414 42.383863 
L 68.073078 44.18249 
L 85.407362 47.197681 
L 91.299739 48.03669 
L 94.916945 47.407433 
L 97.443747 46.45306 
L 100.12782 45.026743 
L 102.277174 43.170435 
L 105.275786 39.363429 
L 107.634834 35.283746 
L 109.710796 34.874728 
L 114.953124 27.931925 
L 120.438697 22.32 
L 154.867164 74.693071 
L 157.604708 72.934297 
L 163.497085 81.439756 
L 169.431401 90.878613 
L 169.847642 93.568687 
L 174.20192 94.071044 
L 184.393006 95.979791 
L 188.419114 96.042716 
L 193.881621 96.13291 
L 204.701786 101.559204 
L 206.410785 102.667745 
L 209.77636 104.852316 
L 215.191685 107.751094 
L 212.848365 113.35358 
L 210.463105 121.123857 
L 216.625986 121.658725 
L 215.049094 140.152592 
L 211.694004 142.411625 
L 203.676387 147.810651 
L 198.133149 151.31876 
L 195.379878 151.340784 
L 193.263026 150.69999 
L 199.997321 157.097438 
L 203.863014 160.159822 
L 207.354404 163.012455 
L 210.905558 166.220617 
L 214.133784 169.109956 
L 217.439596 172.028661 
L 219.639277 173.969919 
L 222.255199 176.34956 
L 225.031536 178.261452 
L 229.843993 182.257235 
L 231.605416 183.662576 
L 242.215888 175.094192 
L 244.375728 177.443418 
L 251.331249 186.137654 
L 270.576885 210.196252 
L 265.659581 213.971794 
L 261.715253 217.014253 
L 274.643883 234.146827 
L 274.057791 234.546405 
L 274.779135 235.525949 
L 275.064318 235.911893 
L 278.517964 240.891414 
L 284.365257 250.786483 
L 289.450316 257.764944 
L 285.45671 260.82628 
L 281.176873 264.107856 
L 272.430572 270.813639 
L 261.951158 278.847155 
L 254.921195 284.254572 
L 240.766909 295.142818 
L 232.225059 301.705969 
L 221.094547 310.268061 
L 220.222224 308.605774 
L 217.25926 302.499882 
L 216.831486 301.604239 
L 215.561794 298.944579 
L 213.561321 295.615809 
L 213.48688 295.489958 
L 213.227909 295.051575 
L 210.967417 291.329519 
L 209.607557 289.319043 
L 208.278103 291.040061 
L 185.871343 324.112767 
L 185.459296 324.72 
L 176.623875 316.813384 
L 171.979173 311.391285 
L 162.123595 298.11396 
L 146.407095 276.792631 
L 144.82496 271.475408 
L 144.377265 271.120927 
L 139.413829 269.734463 
L 124.724824 269.88968 
L 122.585954 269.912753 
L 117.448473 270.112018 
L 114.774885 270.216894 
L 105.119565 270.625911 
L 79.609346 271.706136 
L 61.221355 272.255687 
L 44.799237 272.554584 
L 47.179254 265.202763 
L 47.117395 252.304041 
L 47.033518 247.846803 
L 46.937059 242.762405 
L 46.94964 239.722045 
L 46.905605 238.113244 
L 46.791322 232.940751 
L 46.126595 202.87904 
L 45.544696 176.583433 
L 44.978525 165.89655 
L 44.83174 162.299297 
L 44.57172 159.739269 
L 44.150237 155.597708 
L 44.152334 155.036621 
L 44.285489 149.078604 
L 43.45825 134.716859 
L 43.878684 133.064011 
L 44.299119 131.411162 
L 44.316943 129.595755 
L 44.192176 126.370812 
L 44.113541 124.07717 
L 43.846182 116.290113 
L 43.657458 113.877961 
L 43.080802 98.293359 
L 41.644404 94.863908 
L 40.491092 92.116152 
L 36.968247 82.457055 
L 35.227794 77.85299 
L 34.525322 75.682053 
L 33.348944 73.186 
L 32.92746 72.397331 
L 31.03498 68.092163 
L 28.282758 61.41994 
L 26.266558 56.607172 
L 24.197935 50.469818 
L 24.197935 46.190869 
L 22.048581 40.632431 
L 22.006642 40.516019 
L 20.640491 36.664965 
z
" clip-path="url(#p2dd4250b3f)" style="fill: none; stroke: #000000; stroke-width: 1.2"/>
   </g>
  </g>
 </g>
 <defs>
  <clipPath id="p2dd4250b3f">
   <rect x="7.2" y="7.2" width="295.690807" height="332.64"/>
  </clipPath>
 </defs>
</svg>
