<?xml version="1.0" encoding="utf-8" standalone="no"?>
<!DOCTYPE svg PUBLIC "-//W3C//DTD SVG 1.1//EN"
  "http://www.w3.org/Graphics/SVG/1.1/DTD/svg11.dtd">
<svg xmlns:xlink="http://www.w3.org/1999/xlink" width="204.092004pt" height="347.04pt" viewBox="0 0 204.092004 347.04" xmlns="http://www.w3.org/2000/svg" version="1.1">
 <metadata>
  <rdf:RDF xmlns:dc="http://purl.org/dc/elements/1.1/" xmlns:cc="http://creativecommons.org/ns#" xmlns:rdf="http://www.w3.org/1999/02/22-rdf-syntax-ns#">
   <cc:Work>
    <dc:type rdf:resource="http://purl.org/dc/dcmitype/StillImage"/>
    <dc:date>2026-01-20T15:33:10.934240</dc:date>
    <dc:format>image/svg+xml</dc:format>
    <dc:creator>
     <cc:Agent>
      <dc:title>Matplotlib v3.10.0, https://matplotlib.org/</dc:title>
     </cc:Agent>
    </dc:creator>
   </cc:Work>
  </rdf:RDF>
 </metadata>
 <defs>
  <style type="text/css">*{stroke-linejoin: round; stroke-linecap: butt}</style>
 </defs>
 <g id="figure_1">
  <g id="patch_1">
   <path d="M 0 347.04 
L 204.092004 347.04 
L 204.092004 -0 
L 0 -0 
z
" style="fill: #ffffff"/>
  </g>
  <g id="axes_1">
   <g id="PatchCollection_1">
    <path d="M 15.822364 110.019168 
L 16.791539 107.918589 
L 18.741555 106.016398 
L 24.881606 107.280913 
L 23.374927 94.770799 
L 26.48662 94.47405 
L 26.14745 82.857516 
L 25.616612 82.254016 
L 24.115767 81.859741 
L 23.74243 79.732488 
L 24.559937 74.926164 
L 24.293268 66.948965 
L 24.270768 66.645548 
L 24.201601 65.71946 
L 24.109933 64.489954 
L 24.043266 63.222938 
L 23.918265 59.763652 
L 23.959932 56.960379 
L 23.976599 55.854241 
L 23.693263 53.636963 
L 22.91159 46.159069 
L 22.709921 43.509173 
L 22.647421 42.970691 
L 21.693246 34.731754 
L 50.985158 32.122701 
L 50.718489 29.188559 
L 52.807673 28.916818 
L 54.951858 28.638408 
L 58.635222 28.27164 
L 62.260252 27.846523 
L 65.885283 27.363056 
L 71.860333 26.679535 
L 75.720365 26.239413 
L 80.260403 25.720937 
L 82.810424 24.787347 
L 84.027101 23.170234 
L 86.635456 22.32 
L 90.102152 25.979342 
L 93.027176 29.972109 
L 97.87055 37.087403 
L 99.460564 39.841495 
L 102.527256 43.692556 
L 107.685632 50.902877 
L 114.936526 61.710022 
L 117.255712 65.306012 
L 117.72905 65.761138 
L 117.924885 66.092062 
L 120.319071 69.733066 
L 121.360747 70.933397 
L 128.54414 80.96116 
L 135.835868 91.897507 
L 146.177621 106.726594 
L 148.152638 109.569043 
L 153.106012 116.660998 
L 155.319364 119.846876 
L 157.594383 122.997744 
L 157.679384 123.145285 
L 158.583558 124.182237 
L 160.727743 126.748778 
L 167.127796 134.175824 
L 168.819477 136.484794 
L 171.352832 140.202485 
L 171.693668 140.708458 
L 175.163697 145.856543 
L 177.094546 148.7215 
L 180.477908 153.589508 
L 182.622093 157.479746 
L 183.528767 159.334424 
L 184.521275 161.363317 
L 187.077963 166.234659 
L 187.232965 167.232434 
L 188.052971 172.511389 
L 188.26964 178.071254 
L 188.069638 181.147102 
L 187.936304 183.289359 
L 187.519634 188.615827 
L 186.044621 196.726395 
L 184.552109 206.23985 
L 183.919603 210.271794 
L 183.712102 211.696354 
L 183.611268 212.389045 
L 183.4946 213.181763 
L 183.225431 215.013101 
L 183.212931 215.098958 
L 181.371249 227.619908 
L 180.532908 233.324814 
L 180.410407 234.18255 
L 179.920403 237.620164 
L 177.757052 252.804349 
L 176.977045 258.274189 
L 176.378707 262.472846 
L 176.139538 264.137472 
L 173.589517 281.888197 
L 171.189497 298.593634 
L 170.483658 303.54083 
L 169.486983 310.504416 
L 168.741143 315.761698 
L 167.990304 321.053156 
L 167.436132 324.72 
L 165.752785 322.319338 
L 150.055154 312.604161 
L 140.244238 306.531654 
L 133.825851 302.559727 
L 125.78495 297.582522 
L 124.850776 297.004029 
L 118.659057 293.17214 
L 118.637391 293.157969 
L 106.319788 284.978215 
L 106.96646 281.478084 
L 103.602265 280.889588 
L 103.283096 282.09242 
L 97.903884 280.500314 
L 94.683857 279.119934 
L 94.931359 278.483092 
L 88.738807 275.227194 
L 71.593664 262.953812 
L 55.823532 252.366728 
L 57.951883 205.032017 
L 59.027725 180.370221 
L 58.04355 179.775891 
L 53.576846 177.079314 
L 52.0685 176.120717 
L 49.910149 174.920386 
L 42.02675 170.535844 
L 39.69923 168.959577 
L 39.28006 168.675332 
L 34.833356 166.264667 
L 33.366677 166.206318 
L 30.529987 166.874835 
L 28.750805 167.963469 
L 28.360802 168.261884 
L 28.393302 167.669221 
L 28.426636 167.068222 
L 28.676638 164.475841 
L 28.734972 161.433336 
L 28.893306 157.615617 
L 26.926623 147.687881 
L 16.651537 124.381459 
L 17.718213 119.596807 
L 19.284059 116.482615 
L 18.55572 114.69879 
L 16.781538 112.860784 
L 15.822364 110.019168 
z
" clip-path="url(#p4cb29cbd51)" style="fill: none; stroke: #000000; stroke-width: 1.2"/>
   </g>
  </g>
 </g>
 <defs>
  <clipPath id="p4cb29cbd51">
   <rect x="7.2" y="7.2" width="189.692004" height="332.64"/>
  </clipPath>
 </defs>
</svg>
