<?xml version="1.0" encoding="utf-8" standalone="no"?>
<!DOCTYPE svg PUBLIC "-//W3C//DTD SVG 1.1//EN"
  "http://www.w3.org/Graphics/SVG/1.1/DTD/svg11.dtd">
<svg xmlns:xlink="http://www.w3.org/1999/xlink" width="302.268238pt" height="347.04pt" viewBox="0 0 302.268238 347.04" xmlns="http://www.w3.org/2000/svg" version="1.1">
 <metadata>
  <rdf:RDF xmlns:dc="http://purl.org/dc/elements/1.1/" xmlns:cc="http://creativecommons.org/ns#" xmlns:rdf="http://www.w3.org/1999/02/22-rdf-syntax-ns#">
   <cc:Work>
    <dc:type rdf:resource="http://purl.org/dc/dcmitype/StillImage"/>
    <dc:date>2026-01-20T15:33:08.428699</dc:date>
    <dc:format>image/svg+xml</dc:format>
    <dc:creator>
     <cc:Agent>
      <dc:title>Matplotlib v3.10.0, https://matplotlib.org/</dc:title>
     </cc:Agent>
    </dc:creator>
   </cc:Work>
  </rdf:RDF>
 </metadata>
 <defs>
  <style type="text/css">*{stroke-linejoin: round; stroke-linecap: butt}</style>
 </defs>
 <g id="figure_1">
  <g id="patch_1">
   <path d="M 0 347.04 
L 302.268238 347.04 
L 302.268238 -0 
L 0 -0 
z
" style="fill: #ffffff"/>
  </g>
  <g id="axes_1">
   <g id="PatchCollection_1">
    <path d="M 20.28492 230.522465 
L 22.603347 232.084339 
L 25.182006 229.374725 
L 27.559577 225.76585 
L 32.57495 219.198882 
L 37.35375 211.235694 
L 38.773195 209.153196 
L 42.132549 203.662975 
L 47.479126 195.652457 
L 52.104152 189.262975 
L 56.634548 182.258209 
L 61.957468 174.505637 
L 62.453091 173.750731 
L 66.783582 167.242925 
L 67.332434 166.385078 
L 67.816229 165.628989 
L 71.869928 159.291569 
L 76.16375 152.511619 
L 81.179123 145.116385 
L 87.637599 135.709647 
L 90.606606 130.598061 
L 95.385405 122.824191 
L 95.620796 122.479869 
L 100.519065 115.2988 
L 101.06082 114.52023 
L 102.364344 112.648348 
L 102.908465 111.749088 
L 106.551708 107.146294 
L 106.991736 106.568874 
L 111.046618 101.253772 
L 119.421345 88.1435 
L 119.758463 87.422909 
L 120.190211 86.4988 
L 129.168203 70.489597 
L 134.065289 62.774889 
L 136.277258 61.142021 
L 138.311796 59.580148 
L 141.056057 57.615974 
L 137.661217 54.965522 
L 133.391053 51.960099 
L 124.152829 45.854593 
L 132.669501 43.357962 
L 137.779504 42.115563 
L 149.726502 39.382284 
L 154.552616 38.104388 
L 171.645103 33.655415 
L 174.401193 32.566836 
L 179.061705 30.697321 
L 191.316249 27.431586 
L 196.154192 26.402169 
L 202.707298 24.852128 
L 212.359526 22.32 
L 212.122952 24.946787 
L 217.753418 32.495842 
L 228.884235 43.701101 
L 231.380093 46.351553 
L 239.99376 54.031947 
L 246.035866 62.561906 
L 266.18016 82.783435 
L 265.139234 92.911947 
L 266.899346 94.683254 
L 281.983318 110.068891 
L 281.22628 112.790337 
L 262.950922 137.851306 
L 262.394973 137.484503 
L 257.344113 145.175546 
L 252.50617 151.789844 
L 242.711998 166.81696 
L 236.809471 176.68516 
L 233.036112 182.128053 
L 228.150855 188.908003 
L 222.827935 197.439145 
L 212.313394 210.801446 
L 208.503366 216.55553 
L 202.567719 225.406146 
L 198.885441 229.740345 
L 197.144255 230.795793 
L 190.925902 238.745965 
L 196.852086 242.958291 
L 192.085116 249.513426 
L 192.031886 249.576138 
L 190.483508 251.401873 
L 185.780413 256.944158 
L 179.428395 264.72986 
L 177.050824 267.474971 
L 174.51948 270.421233 
L 163.211233 284.028463 
L 158.633521 289.613344 
L 152.42818 297.200263 
L 152.159668 297.526836 
L 140.629041 311.164832 
L 137.138388 315.439869 
L 134.092495 319.100805 
L 129.416606 324.72 
L 128.316536 323.962728 
L 122.721555 320.282859 
L 115.43507 315.407921 
L 111.336421 312.671093 
L 105.61724 308.852786 
L 102.411659 313.621233 
L 96.260729 322.276615 
L 95.45756 323.406606 
L 95.141733 323.197173 
L 93.445496 322.064815 
L 92.825672 321.651865 
L 84.19781 316.733147 
L 82.305216 315.245818 
L 80.818347 313.554971 
L 77.876547 310.714018 
L 65.034116 302.050353 
L 64.592905 301.752177 
L 64.03459 301.361709 
L 63.113133 300.715661 
L 62.268563 300.125226 
L 52.450733 293.252983 
L 44.569263 288.086968 
L 41.363683 283.791816 
L 38.702223 277.922958 
L 33.90568 266.638422 
L 30.594824 258.851537 
L 30.362981 258.304881 
L 30.184368 257.761775 
L 27.405804 249.288611 
L 20.28492 230.522465 
z
" clip-path="url(#p3bc977e624)" style="fill: none; stroke: #000000; stroke-width: 1.2"/>
   </g>
  </g>
 </g>
 <defs>
  <clipPath id="p3bc977e624">
   <rect x="7.2" y="7.2" width="287.868238" height="332.64"/>
  </clipPath>
 </defs>
</svg>
