<?xml version="1.0" encoding="utf-8" standalone="no"?>
<!DOCTYPE svg PUBLIC "-//W3C//DTD SVG 1.1//EN"
  "http://www.w3.org/Graphics/SVG/1.1/DTD/svg11.dtd">
<svg xmlns:xlink="http://www.w3.org/1999/xlink" width="234.819558pt" height="347.04pt" viewBox="0 0 234.819558 347.04" xmlns="http://www.w3.org/2000/svg" version="1.1">
 <metadata>
  <rdf:RDF xmlns:dc="http://purl.org/dc/elements/1.1/" xmlns:cc="http://creativecommons.org/ns#" xmlns:rdf="http://www.w3.org/1999/02/22-rdf-syntax-ns#">
   <cc:Work>
    <dc:type rdf:resource="http://purl.org/dc/dcmitype/StillImage"/>
    <dc:date>2026-01-20T15:33:12.034052</dc:date>
    <dc:format>image/svg+xml</dc:format>
    <dc:creator>
     <cc:Agent>
      <dc:title>Matplotlib v3.10.0, https://matplotlib.org/</dc:title>
     </cc:Agent>
    </dc:creator>
   </cc:Work>
  </rdf:RDF>
 </metadata>
 <defs>
  <style type="text/css">*{stroke-linejoin: round; stroke-linecap: butt}</style>
 </defs>
 <g id="figure_1">
  <g id="patch_1">
   <path d="M 0 347.04 
L 234.819558 347.04 
L 234.819558 -0 
L 0 -0 
z
" style="fill: #ffffff"/>
  </g>
  <g id="axes_1">
   <g id="PatchCollection_1">
    <path d="M 17.219071 324.72 
L 19.362172 300.528478 
L 21.164528 286.603107 
L 22.300342 280.235343 
L 23.495935 275.033508 
L 18.035063 259.583461 
L 110.974499 189.672594 
L 136.264283 151.143141 
L 99.661198 119.800592 
L 110.086771 46.472657 
L 133.71767 30.493458 
L 148.384609 22.32 
L 161.712484 58.954071 
L 162.483642 61.085628 
L 172.048387 88.783904 
L 183.316853 114.942556 
L 185.080353 120.891781 
L 184.034209 125.704973 
L 182.898395 130.817121 
L 177.117702 132.715492 
L 192.49303 168.874223 
L 217.600487 245.436862 
L 189.02581 258.800196 
L 171.869048 265.855558 
L 173.004862 269.472926 
L 167.056786 270.788333 
L 157.518941 273.685217 
L 129.604829 283.015634 
L 105.274508 293.120348 
L 61.665247 309.144391 
L 58.048578 310.549484 
L 40.413578 317.395577 
L 27.411503 321.879918 
L 17.219071 324.72 
z
" clip-path="url(#pdf32554836)" style="fill: none; stroke: #000000; stroke-width: 1.2"/>
   </g>
  </g>
 </g>
 <defs>
  <clipPath id="pdf32554836">
   <rect x="7.2" y="7.2" width="220.419558" height="332.64"/>
  </clipPath>
 </defs>
</svg>
