<?xml version="1.0" encoding="utf-8" standalone="no"?>
<!DOCTYPE svg PUBLIC "-//W3C//DTD SVG 1.1//EN"
  "http://www.w3.org/Graphics/SVG/1.1/DTD/svg11.dtd">
<svg xmlns:xlink="http://www.w3.org/1999/xlink" width="302.553011pt" height="347.04pt" viewBox="0 0 302.553011 347.04" xmlns="http://www.w3.org/2000/svg" version="1.1">
 <metadata>
  <rdf:RDF xmlns:dc="http://purl.org/dc/elements/1.1/" xmlns:cc="http://creativecommons.org/ns#" xmlns:rdf="http://www.w3.org/1999/02/22-rdf-syntax-ns#">
   <cc:Work>
    <dc:type rdf:resource="http://purl.org/dc/dcmitype/StillImage"/>
    <dc:date>2026-01-20T15:33:10.271987</dc:date>
    <dc:format>image/svg+xml</dc:format>
    <dc:creator>
     <cc:Agent>
      <dc:title>Matplotlib v3.10.0, https://matplotlib.org/</dc:title>
     </cc:Agent>
    </dc:creator>
   </cc:Work>
  </rdf:RDF>
 </metadata>
 <defs>
  <style type="text/css">*{stroke-linejoin: round; stroke-linecap: butt}</style>
 </defs>
 <g id="figure_1">
  <g id="patch_1">
   <path d="M 0 347.04 
L 302.553011 347.04 
L 302.553011 -0 
L 0 -0 
z
" style="fill: #ffffff"/>
  </g>
  <g id="axes_1">
   <g id="PatchCollection_1">
    <path d="M 20.297864 324.72 
L 21.526504 321.999318 
L 45.036238 295.018654 
L 55.013801 283.581968 
L 67.522866 269.20987 
L 75.037439 260.586383 
L 80.275146 248.48723 
L 86.993844 232.970664 
L 88.775144 228.856518 
L 88.957842 227.699486 
L 100.278231 148.751745 
L 102.582502 132.417376 
L 104.662969 113.690131 
L 112.963142 38.981034 
L 137.541655 41.158037 
L 141.88757 40.990136 
L 150.057571 41.773674 
L 163.82268 43.573755 
L 165.909999 41.420739 
L 170.497988 43.259655 
L 170.716083 43.245948 
L 171.19338 43.218536 
L 172.159392 43.134014 
L 172.579597 43.134014 
L 173.433707 43.074621 
L 174.169064 42.478401 
L 174.963798 41.285961 
L 175.521025 39.357955 
L 176.017734 37.509902 
L 176.07711 35.561336 
L 176.079394 33.366059 
L 176.318043 32.173619 
L 177.0534 30.742463 
L 177.828722 30.146243 
L 178.961446 29.848133 
L 180.09417 29.76818 
L 180.301988 29.925802 
L 180.928869 30.404377 
L 181.151532 30.506031 
L 182.061593 30.920644 
L 183.294801 31.478029 
L 184.605655 32.013713 
L 185.539695 32.15306 
L 185.850281 32.074249 
L 186.553666 31.894926 
L 187.60646 31.616234 
L 188.094034 31.616234 
L 188.580466 31.616234 
L 189.89132 32.025135 
L 190.111699 32.093666 
L 191.258125 33.152471 
L 191.975212 34.349479 
L 192.706002 35.810332 
L 193.050843 36.764056 
L 193.49731 37.899386 
L 193.943777 38.833693 
L 194.531834 39.279144 
L 195.160999 39.461894 
L 195.871235 39.441334 
L 196.519811 38.630384 
L 196.946866 37.53503 
L 197.534923 36.174689 
L 197.534923 34.734395 
L 197.900318 33.49741 
L 198.812664 32.726436 
L 200.619084 31.650499 
L 201.790632 31.102251 
L 203.615322 30.247897 
L 204.913616 29.820721 
L 205.989247 29.902958 
L 207.024913 30.239902 
L 208.012621 31.227891 
L 208.744553 32.692171 
L 209.696863 33.406035 
L 211.431347 34.012535 
L 212.785591 34.470551 
L 213.88406 34.872599 
L 215.146956 34.836049 
L 215.878887 34.7995 
L 216.5012 34.507101 
L 216.793516 33.720136 
L 216.903135 31.908633 
L 217.012753 30.846402 
L 217.452369 29.876688 
L 218.520007 28.239938 
L 219.290762 27.189129 
L 219.849131 26.252539 
L 220.187121 25.355924 
L 220.446323 24.55868 
L 220.785455 23.940759 
L 221.164552 23.850526 
L 221.542507 23.761436 
L 222.060911 23.841389 
L 222.598727 24.398774 
L 223.376333 24.857932 
L 224.864175 25.321659 
L 225.006907 25.366204 
L 225.491056 25.518114 
L 225.904409 25.507835 
L 226.952635 25.481565 
L 229.14272 24.404485 
L 231.086164 24.652339 
L 233.8232 27.084048 
L 235.722112 26.732256 
L 237.063796 25.057814 
L 237.529674 22.32 
L 239.047205 22.614683 
L 239.288137 23.590108 
L 238.464857 26.816777 
L 238.051504 28.437536 
L 238.459147 30.70934 
L 239.884187 32.374644 
L 239.997231 33.48713 
L 238.918175 34.892016 
L 239.855641 36.930814 
L 240.528196 38.96847 
L 239.526786 40.159768 
L 237.021547 40.581234 
L 235.44464 41.502976 
L 236.221104 43.22082 
L 236.860545 43.2311 
L 237.485142 42.660008 
L 238.065206 43.303058 
L 238.269599 44.980926 
L 239.771143 47.385222 
L 241.547876 47.491445 
L 243.882977 46.200778 
L 244.988297 42.745672 
L 246.695376 40.861069 
L 248.360206 40.052403 
L 249.603691 40.325385 
L 250.77638 41.25398 
L 251.961629 42.871312 
L 254.568493 43.530352 
L 257.887877 44.204241 
L 259.975195 43.869581 
L 261.706253 42.544648 
L 262.908631 41.2437 
L 264.712768 40.182612 
L 265.240307 40.714869 
L 265.577155 41.630901 
L 266.358187 41.584071 
L 267.329909 40.632632 
L 268.525435 39.940469 
L 269.080378 40.397342 
L 269.200274 41.435587 
L 269.075811 42.213414 
L 269.869403 42.379031 
L 271.05922 41.731413 
L 272.126858 40.95587 
L 273.108857 41.063235 
L 273.333803 42.204277 
L 274.36376 42.745672 
L 275.598109 42.599472 
L 277.015156 42.837047 
L 278.240371 43.603452 
L 278.941472 44.501208 
L 279.711085 44.643981 
L 278.596631 52.830012 
L 278.882095 55.79969 
L 279.156142 65.965125 
L 279.510118 71.870215 
L 279.635722 75.433829 
L 279.715652 77.227057 
L 279.681397 80.162469 
L 279.761327 82.024229 
L 279.909768 84.251487 
L 279.784164 87.209743 
L 280.05821 92.920662 
L 280.663395 114.473669 
L 280.695367 130.408274 
L 280.704502 135.512694 
L 280.713637 139.762759 
L 280.714779 140.496041 
L 280.722772 144.449139 
L 280.617721 151.628906 
L 281.130416 155.277041 
L 281.298269 156.472908 
L 281.404462 157.234744 
L 281.387334 158.976574 
L 281.745878 162.275201 
L 281.770999 164.27288 
L 281.902312 168.615463 
L 281.953696 171.534885 
L 282.08501 179.83285 
L 282.255147 189.06969 
L 281.588301 189.435188 
L 270.261061 200.617167 
L 268.57796 202.234499 
L 260.01516 210.465075 
L 254.24078 216.013804 
L 251.558553 218.495769 
L 246.635999 223.049656 
L 231.426438 223.552217 
L 174.10512 224.591604 
L 158.187607 225.094165 
L 155.549912 232.495516 
L 147.956551 258.857116 
L 141.380585 278.909294 
L 141.004913 280.054905 
L 140.4317 281.803588 
L 136.697822 292.814239 
L 133.376154 301.860334 
L 131.489803 308.658612 
L 130.269156 311.728802 
L 129.081622 314.69848 
L 126.631193 322.304281 
L 126.608356 322.377381 
L 99.408134 322.947331 
L 77.293753 324.020984 
L 20.297864 324.72 
z
" clip-path="url(#p7ccb18360e)" style="fill: none; stroke: #000000; stroke-width: 1.2"/>
   </g>
  </g>
 </g>
 <defs>
  <clipPath id="p7ccb18360e">
   <rect x="7.2" y="7.2" width="288.153011" height="332.64"/>
  </clipPath>
 </defs>
</svg>
