<?xml version="1.0" encoding="utf-8" standalone="no"?>
<!DOCTYPE svg PUBLIC "-//W3C//DTD SVG 1.1//EN"
  "http://www.w3.org/Graphics/SVG/1.1/DTD/svg11.dtd">
<svg xmlns:xlink="http://www.w3.org/1999/xlink" width="344.268498pt" height="347.04pt" viewBox="0 0 344.268498 347.04" xmlns="http://www.w3.org/2000/svg" version="1.1">
 <metadata>
  <rdf:RDF xmlns:dc="http://purl.org/dc/elements/1.1/" xmlns:cc="http://creativecommons.org/ns#" xmlns:rdf="http://www.w3.org/1999/02/22-rdf-syntax-ns#">
   <cc:Work>
    <dc:type rdf:resource="http://purl.org/dc/dcmitype/StillImage"/>
    <dc:date>2026-01-20T15:33:08.628674</dc:date>
    <dc:format>image/svg+xml</dc:format>
    <dc:creator>
     <cc:Agent>
      <dc:title>Matplotlib v3.10.0, https://matplotlib.org/</dc:title>
     </cc:Agent>
    </dc:creator>
   </cc:Work>
  </rdf:RDF>
 </metadata>
 <defs>
  <style type="text/css">*{stroke-linejoin: round; stroke-linecap: butt}</style>
 </defs>
 <g id="figure_1">
  <g id="patch_1">
   <path d="M 0 347.04 
L 344.268498 347.04 
L 344.268498 -0 
L 0 -0 
z
" style="fill: #ffffff"/>
  </g>
  <g id="axes_1">
   <g id="PatchCollection_1">
    <path d="M 22.194023 161.26522 
L 31.631489 146.012645 
L 48.638562 117.531007 
L 62.142431 90.713662 
L 89.591945 22.32 
L 116.051985 38.993943 
L 118.286698 39.960474 
L 120.963188 41.118243 
L 139.04499 53.290325 
L 146.211574 58.864673 
L 177.618985 81.448925 
L 218.347605 108.367058 
L 233.758085 125.555278 
L 241.376779 134.871702 
L 246.194976 141.381569 
L 247.987914 143.066536 
L 244.895484 146.157366 
L 266.13172 173.31584 
L 272.600763 180.650101 
L 272.965034 181.187636 
L 277.328538 187.627727 
L 282.340496 194.579511 
L 301.380771 220.422572 
L 322.074475 245.852145 
L 312.438081 247.945433 
L 291.589368 260.24673 
L 266.813759 277.277308 
L 242.839031 295.574195 
L 222.687858 314.336258 
L 211.21719 299.91583 
L 201.580796 286.658339 
L 145.725879 317.023936 
L 129.736698 324.72 
L 121.063943 310.707892 
L 114.499311 298.16367 
L 109.25484 288.389824 
L 103.160401 278.541033 
L 95.130934 263.182502 
L 87.514824 250.067148 
L 71.926084 221.978325 
L 61.943503 205.487867 
L 49.989724 188.527066 
L 46.044744 184.735889 
L 45.106939 183.014741 
L 22.194023 161.26522 
z
" clip-path="url(#p7a4b6c4a4b)" style="fill: none; stroke: #000000; stroke-width: 1.2"/>
   </g>
  </g>
 </g>
 <defs>
  <clipPath id="p7a4b6c4a4b">
   <rect x="7.2" y="7.2" width="329.868498" height="332.64"/>
  </clipPath>
 </defs>
</svg>
