<?xml version="1.0" encoding="utf-8" standalone="no"?>
<!DOCTYPE svg PUBLIC "-//W3C//DTD SVG 1.1//EN"
  "http://www.w3.org/Graphics/SVG/1.1/DTD/svg11.dtd">
<svg xmlns:xlink="http://www.w3.org/1999/xlink" width="349.2pt" height="338.96793pt" viewBox="0 0 349.2 338.96793" xmlns="http://www.w3.org/2000/svg" version="1.1">
 <metadata>
  <rdf:RDF xmlns:dc="http://purl.org/dc/elements/1.1/" xmlns:cc="http://creativecommons.org/ns#" xmlns:rdf="http://www.w3.org/1999/02/22-rdf-syntax-ns#">
   <cc:Work>
    <dc:type rdf:resource="http://purl.org/dc/dcmitype/StillImage"/>
    <dc:date>2026-01-20T15:33:08.684693</dc:date>
    <dc:format>image/svg+xml</dc:format>
    <dc:creator>
     <cc:Agent>
      <dc:title>Matplotlib v3.10.0, https://matplotlib.org/</dc:title>
     </cc:Agent>
    </dc:creator>
   </cc:Work>
  </rdf:RDF>
 </metadata>
 <defs>
  <style type="text/css">*{stroke-linejoin: round; stroke-linecap: butt}</style>
 </defs>
 <g id="figure_1">
  <g id="patch_1">
   <path d="M 0 338.96793 
L 349.2 338.96793 
L 349.2 0 
L 0 0 
z
" style="fill: #ffffff"/>
  </g>
  <g id="axes_1">
   <g id="PatchCollection_1">
    <path d="M 22.418182 236.744592 
L 42.822448 227.293771 
L 45.715795 225.702631 
L 50.528898 221.820799 
L 54.779787 217.568616 
L 59.927476 212.241041 
L 62.856475 209.516901 
L 70.215998 202.355401 
L 76.541595 196.225398 
L 81.217572 191.863481 
L 87.16196 185.965291 
L 94.779279 178.407378 
L 113.771153 161.124309 
L 121.422753 153.71728 
L 129.074352 146.296534 
L 136.575114 139.28729 
L 143.870188 132.456363 
L 149.588319 126.832507 
L 160.995785 115.794662 
L 183.105891 94.281357 
L 219.110919 61.01968 
L 226.92707 53.530351 
L 233.260894 47.438755 
L 259.760386 21.953088 
L 262.799086 24.889838 
L 265.677349 27.829331 
L 271.34063 33.613672 
L 272.288167 34.573843 
L 275.826003 38.345941 
L 280.214017 42.749008 
L 293.816861 56.849797 
L 306.117014 67.987775 
L 326.781818 88.590289 
L 323.795226 89.330992 
L 311.300356 94.899981 
L 305.554799 99.152164 
L 299.22646 106.191586 
L 301.58776 106.53999 
L 311.046673 108.782674 
L 320.224479 114.458653 
L 322.945048 117.690313 
L 322.105841 118.544864 
L 320.53164 120.170296 
L 315.689741 125.032873 
L 315.411376 125.314066 
L 314.265008 125.356588 
L 307.973692 131.260265 
L 314.221127 138.587737 
L 321.680752 148.957578 
L 325.575114 158.230081 
L 314.385678 161.16546 
L 306.788928 162.96235 
L 301.180498 164.155705 
L 286.974302 167.94152 
L 281.571559 170.108762 
L 278.376536 171.3707 
L 258.56191 176.528187 
L 252.967191 178.009593 
L 239.117522 181.178155 
L 233.193702 182.618411 
L 223.32067 185.512639 
L 234.030168 192.590467 
L 238.980396 196.074514 
L 242.915896 199.14706 
L 239.734586 201.424035 
L 237.376028 203.234642 
L 234.811783 205.12755 
L 229.134789 214.070852 
L 218.726968 232.629575 
L 218.22646 233.700851 
L 217.835653 234.5362 
L 208.127171 249.734326 
L 203.426511 255.895877 
L 202.916404 256.565253 
L 198.692941 261.901058 
L 198.062164 262.943528 
L 196.551041 265.113514 
L 195.923007 266.016074 
L 190.244642 274.340752 
L 189.971762 274.739908 
L 184.431894 283.751794 
L 180.990046 289.677417 
L 173.502996 300.582211 
L 167.688878 309.155161 
L 162.711224 317.014842 
L 154.456272 311.404703 
L 149.656882 308.291008 
L 146.763535 306.288366 
L 140.304926 301.789282 
L 136.086948 299.011646 
L 124.082986 291.103956 
L 118.310005 288.127428 
L 116.897613 287.276991 
L 112.180498 289.019015 
L 109.830168 288.526585 
L 102.142915 286.06992 
L 100.195734 284.574797 
L 97.892026 277.826171 
L 96.164246 272.64125 
L 93.739868 268.553667 
L 91.652819 265.382361 
L 88.457796 261.503273 
L 84.481158 258.101526 
L 80.490808 255.550216 
L 76.911833 253.739609 
L 70.041849 250.76308 
L 66.080295 249.616362 
L 57.398883 247.100716 
L 45.235856 243.465785 
L 25.434942 237.512728 
L 22.418182 236.744592 
z
" clip-path="url(#paa8bb1f241)" style="fill: none; stroke: #000000; stroke-width: 1.2"/>
   </g>
  </g>
 </g>
 <defs>
  <clipPath id="paa8bb1f241">
   <rect x="7.2" y="7.2" width="334.8" height="324.56793"/>
  </clipPath>
 </defs>
</svg>
