<?xml version="1.0" encoding="utf-8" standalone="no"?>
<!DOCTYPE svg PUBLIC "-//W3C//DTD SVG 1.1//EN"
  "http://www.w3.org/Graphics/SVG/1.1/DTD/svg11.dtd">
<svg xmlns:xlink="http://www.w3.org/1999/xlink" width="349.2pt" height="240.337716pt" viewBox="0 0 349.2 240.337716" xmlns="http://www.w3.org/2000/svg" version="1.1">
 <metadata>
  <rdf:RDF xmlns:dc="http://purl.org/dc/elements/1.1/" xmlns:cc="http://creativecommons.org/ns#" xmlns:rdf="http://www.w3.org/1999/02/22-rdf-syntax-ns#">
   <cc:Work>
    <dc:type rdf:resource="http://purl.org/dc/dcmitype/StillImage"/>
    <dc:date>2026-01-20T15:33:08.818586</dc:date>
    <dc:format>image/svg+xml</dc:format>
    <dc:creator>
     <cc:Agent>
      <dc:title>Matplotlib v3.10.0, https://matplotlib.org/</dc:title>
     </cc:Agent>
    </dc:creator>
   </cc:Work>
  </rdf:RDF>
 </metadata>
 <defs>
  <style type="text/css">*{stroke-linejoin: round; stroke-linecap: butt}</style>
 </defs>
 <g id="figure_1">
  <g id="patch_1">
   <path d="M 0 240.337716 
L 349.2 240.337716 
L 349.2 0 
L 0 0 
z
" style="fill: #ffffff"/>
  </g>
  <g id="axes_1">
   <g id="PatchCollection_1">
    <path d="M 22.418182 32.264065 
L 27.154109 26.995978 
L 31.4539 23.813774 
L 40.804663 19.646113 
L 43.039734 19.091794 
L 44.702183 18.629861 
L 86.499436 17.870238 
L 134.987533 17.469896 
L 139.913308 18.239784 
L 143.140717 19.423359 
L 143.186896 19.44081 
L 143.737967 19.717969 
L 145.366552 20.53713 
L 146.870965 21.421988 
L 147.285552 21.723784 
L 152.392964 25.620445 
L 162.500039 33.524629 
L 165.034761 35.187587 
L 165.819806 35.385705 
L 173.182813 37.836002 
L 177.96492 38.143957 
L 183.239604 38.133692 
L 185.830767 37.524967 
L 188.052497 37.004523 
L 204.690328 32.92001 
L 210.126126 31.605041 
L 228.761975 26.431393 
L 237.330771 24.265442 
L 244.308952 22.787256 
L 250.353288 30.167917 
L 256.22317 36.973727 
L 260.276672 41.654647 
L 267.38826 50.472431 
L 271.503335 55.420245 
L 274.294607 60.522037 
L 275.679981 61.87704 
L 276.849853 62.49295 
L 280.616018 57.524606 
L 286.024109 50.277393 
L 287.208347 50.506306 
L 319.698964 77.152646 
L 326.781818 82.808757 
L 325.060876 85.178985 
L 322.673927 85.432535 
L 320.076607 85.043485 
L 317.521361 84.3937 
L 316.244765 83.808585 
L 310.039314 92.456994 
L 300.539752 104.235255 
L 294.03465 111.221732 
L 290.046825 113.817795 
L 287.884615 116.242429 
L 282.970128 121.092724 
L 277.754964 126.966457 
L 275.304391 129.87458 
L 267.60992 139.417086 
L 258.678874 151.258991 
L 251.129098 161.268563 
L 237.314351 179.58266 
L 236.508782 182.800792 
L 235.991576 184.748096 
L 236.94184 188.247494 
L 224.903451 191.218235 
L 223.367225 191.506686 
L 218.366537 192.706685 
L 203.888863 196.292311 
L 203.486592 196.391883 
L 195.437054 198.514721 
L 191.537483 199.543291 
L 191.110582 199.656208 
L 186.50293 200.94962 
L 184.235021 201.339697 
L 183.537203 200.415831 
L 181.202591 203.594956 
L 177.41077 209.254146 
L 174.43786 213.641482 
L 168.185204 222.86782 
L 167.323194 221.695537 
L 165.876247 221.664742 
L 164.059868 220.114701 
L 146.850441 200.846968 
L 134.423122 186.373073 
L 117.953588 166.208165 
L 102.538991 147.334615 
L 89.452848 133.986809 
L 87.925858 132.450113 
L 88.828917 123.663124 
L 71.352678 106.119941 
L 66.110832 98.719777 
L 58.638021 92.056652 
L 56.472732 89.757253 
L 46.816161 80.036133 
L 41.931434 73.486952 
L 42.136675 71.208083 
L 39.222258 64.268825 
L 33.639713 56.508354 
L 28.964332 51.024698 
L 33.672551 46.606567 
L 34.530457 46.574745 
L 34.738777 46.364309 
L 38.3623 42.725304 
L 39.540381 41.508881 
L 40.168417 40.869361 
L 38.13243 38.450886 
L 31.264053 34.203157 
L 24.185304 32.524801 
L 22.418182 32.264065 
z
" clip-path="url(#pff49b328d3)" style="fill: none; stroke: #000000; stroke-width: 1.2"/>
   </g>
  </g>
 </g>
 <defs>
  <clipPath id="pff49b328d3">
   <rect x="7.2" y="7.2" width="334.8" height="225.937716"/>
  </clipPath>
 </defs>
</svg>
