<?xml version="1.0" encoding="utf-8" standalone="no"?>
<!DOCTYPE svg PUBLIC "-//W3C//DTD SVG 1.1//EN"
  "http://www.w3.org/Graphics/SVG/1.1/DTD/svg11.dtd">
<svg xmlns:xlink="http://www.w3.org/1999/xlink" width="349.142845pt" height="347.04pt" viewBox="0 0 349.142845 347.04" xmlns="http://www.w3.org/2000/svg" version="1.1">
 <metadata>
  <rdf:RDF xmlns:dc="http://purl.org/dc/elements/1.1/" xmlns:cc="http://creativecommons.org/ns#" xmlns:rdf="http://www.w3.org/1999/02/22-rdf-syntax-ns#">
   <cc:Work>
    <dc:type rdf:resource="http://purl.org/dc/dcmitype/StillImage"/>
    <dc:date>2026-01-20T15:33:12.162312</dc:date>
    <dc:format>image/svg+xml</dc:format>
    <dc:creator>
     <cc:Agent>
      <dc:title>Matplotlib v3.10.0, https://matplotlib.org/</dc:title>
     </cc:Agent>
    </dc:creator>
   </cc:Work>
  </rdf:RDF>
 </metadata>
 <defs>
  <style type="text/css">*{stroke-linejoin: round; stroke-linecap: butt}</style>
 </defs>
 <g id="figure_1">
  <g id="patch_1">
   <path d="M 0 347.04 
L 349.142845 347.04 
L 349.142845 -0 
L 0 -0 
z
" style="fill: #ffffff"/>
  </g>
  <g id="axes_1">
   <g id="PatchCollection_1">
    <path d="M 22.415584 262.938817 
L 25.480013 258.549686 
L 31.729226 250.438128 
L 35.404689 245.706386 
L 46.236658 237.029982 
L 48.331765 236.005851 
L 52.362738 234.036298 
L 56.392786 232.066745 
L 63.086388 229.696244 
L 68.113533 226.825716 
L 69.613344 225.538608 
L 69.977187 225.168217 
L 72.992548 222.093973 
L 76.337497 216.166795 
L 77.816014 213.815739 
L 79.475065 209.574765 
L 79.05197 206.424591 
L 78.815889 204.250397 
L 78.473339 202.454002 
L 76.820769 197.930605 
L 76.96427 196.657386 
L 76.972602 188.960666 
L 75.035809 182.650133 
L 71.643644 174.165406 
L 69.679076 171.521742 
L 69.247649 170.775404 
L 68.44775 169.443849 
L 67.157172 164.255601 
L 67.177539 162.915712 
L 67.175688 162.086036 
L 67.00071 151.193769 
L 68.946761 145.79625 
L 68.302398 142.715524 
L 69.669818 139.524608 
L 70.086432 133.41779 
L 78.894582 124.095054 
L 90.240376 119.116076 
L 105.690282 110.958219 
L 110.876666 103.517068 
L 114.760436 95.773122 
L 116.762036 88.842185 
L 119.634822 84.253043 
L 123.608396 76.065555 
L 133.540478 68.079003 
L 143.067982 63.345409 
L 152.700103 55.140327 
L 157.774464 45.986119 
L 162.56923 38.657012 
L 166.673343 33.936381 
L 172.325409 35.078111 
L 175.665729 33.24838 
L 178.201521 30.170433 
L 180.151275 32.046462 
L 180.479938 35.828152 
L 182.422285 37.293973 
L 184.14892 36.648567 
L 186.344014 34.710498 
L 190.524969 37.597694 
L 193.487559 36.252249 
L 194.086557 33.734518 
L 197.02415 32.811319 
L 199.010011 34.202136 
L 199.99785 36.177245 
L 201.424522 35.079963 
L 201.643939 32.390925 
L 203.344651 32.11591 
L 206.253544 33.762297 
L 209.43555 35.244786 
L 212.207423 36.315216 
L 214.57657 37.426388 
L 217.584524 38.839429 
L 219.403739 39.868189 
L 220.932251 40.733052 
L 223.017173 39.99227 
L 226.630607 38.833873 
L 230.589368 36.424481 
L 234.293531 36.396702 
L 237.8329 38.455149 
L 243.429417 40.156168 
L 249.246278 40.431183 
L 255.501971 40.403404 
L 258.163673 38.372737 
L 260.138424 34.750315 
L 260.852223 31.759409 
L 263.266734 27.450838 
L 264.885049 25.86001 
L 271.716596 23.883975 
L 276.765034 22.32 
L 279.235094 25.777598 
L 286.4203 30.869545 
L 293.282399 32.665015 
L 297.01341 35.189228 
L 300.140794 39.580211 
L 302.639554 48.797385 
L 301.649863 52.367952 
L 299.35293 54.316208 
L 295.149756 56.371877 
L 293.419418 57.664541 
L 293.391644 61.396228 
L 295.192343 63.950998 
L 297.699435 66.308536 
L 299.757509 69.079985 
L 301.458221 74.15619 
L 301.917422 75.28866 
L 302.826567 77.528598 
L 303.351501 78.821262 
L 304.283791 81.044533 
L 306.917718 83.514113 
L 310.594107 80.084295 
L 314.045525 77.641568 
L 320.52619 80.012069 
L 323.435083 83.459481 
L 326.151407 86.999491 
L 326.727261 91.087679 
L 326.178256 94.545277 
L 324.111849 96.374081 
L 321.157592 97.015783 
L 318.715307 99.183496 
L 318.156118 101.64289 
L 317.730246 105.013447 
L 316.438742 112.657386 
L 314.517687 116.526118 
L 314.501023 117.088186 
L 314.483432 117.650254 
L 314.836166 118.06324 
L 316.795178 119.874451 
L 318.441267 121.685662 
L 318.249625 125.499761 
L 315.724943 127.530428 
L 314.984295 131.838999 
L 313.694643 135.405862 
L 313.804814 136.997617 
L 314.901898 140.509847 
L 315.203712 142.650706 
L 314.408442 144.804528 
L 315.052805 146.890755 
L 313.70853 149.167732 
L 310.968134 151.446561 
L 297.927184 160.220193 
L 291.493735 164.67229 
L 290.662358 165.247322 
L 284.25298 169.683677 
L 295.038659 177.313728 
L 280.086838 199.213083 
L 264.00553 187.990242 
L 261.312351 191.869159 
L 252.516236 204.53745 
L 248.619505 212.555485 
L 243.600692 222.881054 
L 241.343569 227.764656 
L 240.979726 228.553589 
L 239.804874 231.094469 
L 230.435683 245.058202 
L 224.751214 251.021494 
L 213.030468 261.948022 
L 207.114546 266.45753 
L 201.652271 272.309704 
L 199.254425 277.152564 
L 189.385298 287.282751 
L 186.311611 290.273657 
L 179.56246 292.97751 
L 176.322128 292.931211 
L 172.18376 290.857023 
L 165.740127 322.858786 
L 164.786543 323.645867 
L 162.222052 324.72 
L 156.061716 322.022629 
L 88.641503 292.204319 
L 86.937088 291.4515 
L 22.415584 262.938817 
z
" clip-path="url(#p78dd0f3be3)" style="fill: none; stroke: #000000; stroke-width: 1.2"/>
   </g>
  </g>
 </g>
 <defs>
  <clipPath id="p78dd0f3be3">
   <rect x="7.2" y="7.2" width="334.742845" height="332.64"/>
  </clipPath>
 </defs>
</svg>
