<?xml version="1.0" encoding="utf-8" standalone="no"?>
<!DOCTYPE svg PUBLIC "-//W3C//DTD SVG 1.1//EN"
  "http://www.w3.org/Graphics/SVG/1.1/DTD/svg11.dtd">
<svg xmlns:xlink="http://www.w3.org/1999/xlink" width="319.014716pt" height="347.04pt" viewBox="0 0 319.014716 347.04" xmlns="http://www.w3.org/2000/svg" version="1.1">
 <metadata>
  <rdf:RDF xmlns:dc="http://purl.org/dc/elements/1.1/" xmlns:cc="http://creativecommons.org/ns#" xmlns:rdf="http://www.w3.org/1999/02/22-rdf-syntax-ns#">
   <cc:Work>
    <dc:type rdf:resource="http://purl.org/dc/dcmitype/StillImage"/>
    <dc:date>2026-01-20T15:33:12.094997</dc:date>
    <dc:format>image/svg+xml</dc:format>
    <dc:creator>
     <cc:Agent>
      <dc:title>Matplotlib v3.10.0, https://matplotlib.org/</dc:title>
     </cc:Agent>
    </dc:creator>
   </cc:Work>
  </rdf:RDF>
 </metadata>
 <defs>
  <style type="text/css">*{stroke-linejoin: round; stroke-linecap: butt}</style>
 </defs>
 <g id="figure_1">
  <g id="patch_1">
   <path d="M -0 347.04 
L 319.014716 347.04 
L 319.014716 -0 
L -0 -0 
z
" style="fill: #ffffff"/>
  </g>
  <g id="axes_1">
   <g id="PatchCollection_1">
    <path d="M 21.046123 203.507063 
L 55.534793 187.439325 
L 109.959288 155.600586 
L 117.634089 151.11069 
L 147.711432 118.920792 
L 118.401051 59.545319 
L 150.467054 22.32 
L 153.3898 28.538474 
L 172.466682 69.123764 
L 176.323515 70.375493 
L 177.431205 73.962226 
L 177.650152 88.138117 
L 179.698407 93.75405 
L 186.318635 97.628448 
L 201.162975 104.292672 
L 210.363926 106.258378 
L 221.00034 112.58181 
L 228.960161 120.226943 
L 235.639984 124.904728 
L 236.951074 125.526705 
L 237.531478 125.801412 
L 238.066537 126.055386 
L 242.907984 128.351517 
L 247.638014 127.698441 
L 249.61631 123.413279 
L 249.230238 117.803825 
L 250.862623 111.571098 
L 253.829418 109.925451 
L 257.472487 111.160334 
L 259.274588 112.747671 
L 260.219039 113.578269 
L 263.299842 117.622415 
L 266.266637 122.105832 
L 268.023395 127.844865 
L 268.624527 133.193867 
L 270.114402 142.268251 
L 269.063716 153.469019 
L 270.052216 158.853007 
L 273.019011 165.886529 
L 277.317625 169.648194 
L 280.929601 173.469464 
L 286.478415 177.369778 
L 285.848781 178.51914 
L 282.995993 180.769919 
L 282.914374 183.03236 
L 285.098661 186.335316 
L 283.271944 189.385595 
L 282.459638 190.743578 
L 282.95324 194.77347 
L 288.109504 207.511039 
L 297.644706 218.18831 
L 297.968592 228.891496 
L 285.622061 246.514176 
L 285.449753 256.336228 
L 285.33445 262.879944 
L 285.324085 263.450089 
L 274.462247 260.579925 
L 269.781448 258.660867 
L 259.844627 283.302815 
L 258.796532 285.697427 
L 255.273949 291.208401 
L 245.429112 303.011709 
L 240.095359 309.456945 
L 234.441606 312.507224 
L 233.213431 313.415569 
L 231.986551 314.323915 
L 226.052961 317.801802 
L 220.479532 320.296189 
L 216.189986 321.661947 
L 215.264968 321.95609 
L 209.001014 322.597504 
L 202.476656 323.937346 
L 200.827429 324.72 
L 199.419173 322.977169 
L 198.08865 318.541696 
L 197.478448 314.383521 
L 196.869543 311.223101 
L 195.760558 309.11745 
L 193.376757 305.679731 
L 175.743112 299.250045 
L 166.955439 296.044272 
L 143.208122 277.830714 
L 123.087033 260.139358 
L 122.93675 259.770059 
L 126.805243 256.395834 
L 126.373827 256.051155 
L 123.49772 254.068604 
L 71.701883 229.798546 
L 53.033098 223.190041 
L 52.486378 222.969757 
L 22.11106 210.721995 
L 21.046123 203.507063 
z
" clip-path="url(#pb4dc9bc5c3)" style="fill: none; stroke: #000000; stroke-width: 1.2"/>
   </g>
  </g>
 </g>
 <defs>
  <clipPath id="pb4dc9bc5c3">
   <rect x="7.2" y="7.2" width="304.614716" height="332.64"/>
  </clipPath>
 </defs>
</svg>
