<?xml version="1.0" encoding="utf-8" standalone="no"?>
<!DOCTYPE svg PUBLIC "-//W3C//DTD SVG 1.1//EN"
  "http://www.w3.org/Graphics/SVG/1.1/DTD/svg11.dtd">
<svg xmlns:xlink="http://www.w3.org/1999/xlink" width="201.725618pt" height="347.04pt" viewBox="0 0 201.725618 347.04" xmlns="http://www.w3.org/2000/svg" version="1.1">
 <metadata>
  <rdf:RDF xmlns:dc="http://purl.org/dc/elements/1.1/" xmlns:cc="http://creativecommons.org/ns#" xmlns:rdf="http://www.w3.org/1999/02/22-rdf-syntax-ns#">
   <cc:Work>
    <dc:type rdf:resource="http://purl.org/dc/dcmitype/StillImage"/>
    <dc:date>2026-01-20T15:33:10.340172</dc:date>
    <dc:format>image/svg+xml</dc:format>
    <dc:creator>
     <cc:Agent>
      <dc:title>Matplotlib v3.10.0, https://matplotlib.org/</dc:title>
     </cc:Agent>
    </dc:creator>
   </cc:Work>
  </rdf:RDF>
 </metadata>
 <defs>
  <style type="text/css">*{stroke-linejoin: round; stroke-linecap: butt}</style>
 </defs>
 <g id="figure_1">
  <g id="patch_1">
   <path d="M 0 347.04 
L 201.725618 347.04 
L 201.725618 -0 
L 0 -0 
z
" style="fill: #ffffff"/>
  </g>
  <g id="axes_1">
   <g id="PatchCollection_1">
    <path d="M 15.714801 22.746576 
L 29.116157 22.499518 
L 41.21327 22.32 
L 41.600634 23.208701 
L 41.630841 25.759272 
L 42.542389 26.464901 
L 43.242487 28.172983 
L 43.532121 28.923047 
L 43.65295 29.715768 
L 44.569829 36.004215 
L 44.823925 37.550554 
L 45.040706 38.922708 
L 45.408524 42.402861 
L 45.602206 42.934304 
L 45.900724 43.757241 
L 46.204574 44.59262 
L 46.513754 45.442218 
L 47.599438 46.869471 
L 48.731321 49.064562 
L 49.488279 50.070571 
L 51.375343 50.957495 
L 53.530719 51.688007 
L 55.734071 51.110351 
L 57.503861 51.012594 
L 58.171974 50.904173 
L 58.952032 50.729987 
L 60.485493 50.442048 
L 64.728723 51.048142 
L 66.278177 52.816657 
L 70.228219 53.372983 
L 73.703829 59.460584 
L 76.822283 61.852967 
L 82.513684 69.623766 
L 85.497093 71.047465 
L 91.520774 82.536589 
L 92.419883 87.436885 
L 93.725903 90.406923 
L 95.907932 91.395159 
L 97.057584 95.705358 
L 97.15709 96.43587 
L 111.343835 95.71069 
L 115.860707 95.646703 
L 123.959802 95.865324 
L 125.224953 95.904427 
L 142.535482 95.513398 
L 182.28111 93.629353 
L 183.240635 111.741075 
L 184.226812 156.305865 
L 185.353365 207.253305 
L 185.547047 216.01945 
L 185.621676 218.745984 
L 185.600354 223.898671 
L 185.763828 232.515514 
L 185.90598 240.069471 
L 186.010817 261.929733 
L 159.261412 262.781109 
L 156.652927 265.608955 
L 150.700323 268.483013 
L 146.638337 270.647888 
L 144.39767 275.041625 
L 143.143181 277.499771 
L 133.345371 285.844672 
L 125.765129 295.321777 
L 117.618057 303.376961 
L 110.082238 308.431892 
L 110.721921 312.61945 
L 103.92529 315.059822 
L 105.176226 319.370021 
L 97.723921 324.72 
L 96.5103 316.622158 
L 93.880493 298.030537 
L 67.191502 298.812594 
L 65.094764 265.166382 
L 88.887413 265.255252 
L 87.304197 253.892323 
L 83.236881 226.347931 
L 75.063155 221.051274 
L 72.495539 220.384748 
L 69.927923 219.718223 
L 65.2458 220.118138 
L 60.563677 220.518053 
L 56.688265 220.180347 
L 54.172179 219.76088 
L 51.654316 219.339636 
L 46.611483 219.732442 
L 41.56865 220.127025 
L 38.005972 217.228083 
L 33.904894 216.929479 
L 29.802039 216.629099 
L 26.507672 215.34226 
L 23.215082 214.053644 
L 20.601267 214.279374 
L 20.537299 214.314922 
L 20.272541 199.941075 
L 20.068198 187.028252 
L 19.988238 182.485214 
L 19.783895 175.727533 
L 19.744803 172.618857 
L 19.186857 167.485722 
L 19.213511 164.775184 
L 19.048259 163.589657 
L 18.787055 161.728718 
L 17.989229 156.051697 
L 18.152703 144.87895 
L 18.140265 138.727364 
L 18.138488 137.586272 
L 18.124273 130.97256 
L 18.110058 123.029353 
L 18.060305 98.232823 
L 17.118549 64.693254 
L 16.692094 55.806246 
L 16.887553 51.202776 
L 16.656556 47.736843 
L 16.532173 44.839678 
L 16.58548 40.271756 
L 16.461097 37.481236 
L 16.265639 31.935743 
L 15.714801 22.746576 
z
" clip-path="url(#pb591572679)" style="fill: none; stroke: #000000; stroke-width: 1.2"/>
   </g>
  </g>
 </g>
 <defs>
  <clipPath id="pb591572679">
   <rect x="7.2" y="7.2" width="187.325618" height="332.64"/>
  </clipPath>
 </defs>
</svg>
