<?xml version="1.0" encoding="utf-8" standalone="no"?>
<!DOCTYPE svg PUBLIC "-//W3C//DTD SVG 1.1//EN"
  "http://www.w3.org/Graphics/SVG/1.1/DTD/svg11.dtd">
<svg xmlns:xlink="http://www.w3.org/1999/xlink" width="311.391205pt" height="347.04pt" viewBox="0 0 311.391205 347.04" xmlns="http://www.w3.org/2000/svg" version="1.1">
 <metadata>
  <rdf:RDF xmlns:dc="http://purl.org/dc/elements/1.1/" xmlns:cc="http://creativecommons.org/ns#" xmlns:rdf="http://www.w3.org/1999/02/22-rdf-syntax-ns#">
   <cc:Work>
    <dc:type rdf:resource="http://purl.org/dc/dcmitype/StillImage"/>
    <dc:date>2026-01-20T15:33:11.144747</dc:date>
    <dc:format>image/svg+xml</dc:format>
    <dc:creator>
     <cc:Agent>
      <dc:title>Matplotlib v3.10.0, https://matplotlib.org/</dc:title>
     </cc:Agent>
    </dc:creator>
   </cc:Work>
  </rdf:RDF>
 </metadata>
 <defs>
  <style type="text/css">*{stroke-linejoin: round; stroke-linecap: butt}</style>
 </defs>
 <g id="figure_1">
  <g id="patch_1">
   <path d="M 0 347.04 
L 311.391205 347.04 
L 311.391205 -0 
L 0 -0 
z
" style="fill: #ffffff"/>
  </g>
  <g id="axes_1">
   <g id="PatchCollection_1">
    <path d="M 20.6996 188.237291 
L 29.381723 179.461952 
L 54.209065 163.427601 
L 60.656148 159.194601 
L 54.428205 146.621802 
L 82.462961 126.592623 
L 82.105317 123.872154 
L 81.242037 117.303934 
L 89.212666 111.303151 
L 82.87373 100.536091 
L 100.10042 87.617896 
L 101.657168 86.467841 
L 98.620512 76.242598 
L 117.2275 66.618002 
L 127.180825 61.270055 
L 135.646654 55.673499 
L 162.909202 37.649325 
L 177.228253 22.32 
L 185.803178 32.167585 
L 186.089672 32.49685 
L 202.473005 45.506138 
L 198.479153 49.453522 
L 197.170004 50.829414 
L 194.248136 53.989219 
L 191.003724 57.27238 
L 186.592461 61.931432 
L 184.742577 63.743813 
L 202.032827 80.535378 
L 206.324558 84.619403 
L 210.37533 88.642698 
L 214.302776 92.590082 
L 218.695065 97.021401 
L 223.97435 102.071396 
L 227.498616 105.694259 
L 229.908209 108.332175 
L 231.283764 109.470843 
L 233.468524 111.704532 
L 233.826168 112.070803 
L 234.651501 112.896338 
L 236.093462 114.281718 
L 237.952833 115.875854 
L 240.637536 118.788948 
L 244.549804 122.702172 
L 251.605926 130.211691 
L 254.878798 134.015793 
L 255.985882 135.180081 
L 257.415511 136.444952 
L 261.332522 139.911249 
L 264.482068 142.699089 
L 267.349863 145.237371 
L 268.831667 146.287793 
L 271.91291 148.305134 
L 270.057334 152.278138 
L 270.779263 152.860757 
L 270.239476 158.558844 
L 270.198684 158.988692 
L 272.296168 159.601675 
L 274.336732 160.746037 
L 275.676238 161.91507 
L 278.057371 164.48941 
L 284.314723 172.874754 
L 283.983641 173.149933 
L 273.261902 182.041985 
L 270.01749 188.703196 
L 268.326032 198.175969 
L 269.737636 203.177571 
L 271.874015 207.941001 
L 274.844265 210.484028 
L 276.805142 214.404843 
L 277.509047 219.81257 
L 280.162444 226.199551 
L 283.288274 230.889917 
L 286.124763 236.929604 
L 290.691605 241.673108 
L 290.212533 246.933756 
L 289.702154 250.543336 
L 285.986259 263.755686 
L 240.791219 260.288441 
L 218.237812 269.786834 
L 186.77745 283.036191 
L 181.977238 285.057328 
L 167.685698 298.729891 
L 150.961797 314.729132 
L 147.400533 324.72 
L 75.324306 246.954632 
L 75.293948 248.108483 
L 69.139052 241.565883 
L 60.107823 231.735378 
L 52.28139 223.57492 
L 49.549254 220.63336 
L 45.071586 215.471396 
L 39.939343 210.252498 
L 37.377965 207.605094 
L 31.913692 201.494239 
L 30.244053 198.353412 
L 29.834233 197.91882 
L 20.6996 188.237291 
z
" clip-path="url(#pf4e618554a)" style="fill: none; stroke: #000000; stroke-width: 1.2"/>
   </g>
  </g>
 </g>
 <defs>
  <clipPath id="pf4e618554a">
   <rect x="7.2" y="7.2" width="296.991205" height="332.64"/>
  </clipPath>
 </defs>
</svg>
