<?xml version="1.0" encoding="utf-8" standalone="no"?>
<!DOCTYPE svg PUBLIC "-//W3C//DTD SVG 1.1//EN"
  "http://www.w3.org/Graphics/SVG/1.1/DTD/svg11.dtd">
<svg xmlns:xlink="http://www.w3.org/1999/xlink" width="289.949417pt" height="347.04pt" viewBox="0 0 289.949417 347.04" xmlns="http://www.w3.org/2000/svg" version="1.1">
 <metadata>
  <rdf:RDF xmlns:dc="http://purl.org/dc/elements/1.1/" xmlns:cc="http://creativecommons.org/ns#" xmlns:rdf="http://www.w3.org/1999/02/22-rdf-syntax-ns#">
   <cc:Work>
    <dc:type rdf:resource="http://purl.org/dc/dcmitype/StillImage"/>
    <dc:date>2026-01-20T15:33:10.401703</dc:date>
    <dc:format>image/svg+xml</dc:format>
    <dc:creator>
     <cc:Agent>
      <dc:title>Matplotlib v3.10.0, https://matplotlib.org/</dc:title>
     </cc:Agent>
    </dc:creator>
   </cc:Work>
  </rdf:RDF>
 </metadata>
 <defs>
  <style type="text/css">*{stroke-linejoin: round; stroke-linecap: butt}</style>
 </defs>
 <g id="figure_1">
  <g id="patch_1">
   <path d="M 0 347.04 
L 289.949417 347.04 
L 289.949417 -0 
L 0 -0 
z
" style="fill: #ffffff"/>
  </g>
  <g id="axes_1">
   <g id="PatchCollection_1">
    <path d="M 19.724974 57.702738 
L 36.876995 57.924738 
L 39.664328 56.545858 
L 40.312914 56.224579 
L 42.451661 55.166289 
L 46.676083 50.999315 
L 50.255365 45.364524 
L 51.664195 40.258533 
L 49.797013 36.497639 
L 49.463415 34.241792 
L 50.285003 30.866985 
L 52.309335 29.164758 
L 53.568597 29.015839 
L 55.53641 28.783498 
L 58.881347 30.104464 
L 62.577802 32.422361 
L 65.071514 35.357306 
L 67.33088 36.736875 
L 71.790337 37.176737 
L 75.164223 36.795477 
L 78.098366 35.973665 
L 84.083136 34.623742 
L 88.366834 32.393404 
L 88.073213 30.016216 
L 87.193039 27.814835 
L 86.22533 25.6431 
L 86.254278 23.472054 
L 89.019555 22.32 
L 89.330407 22.366882 
L 89.650909 22.419969 
L 91.857892 24.000165 
L 91.917168 26.817216 
L 92.055018 27.355668 
L 92.562307 29.341255 
L 93.442481 32.510609 
L 93.979408 34.609953 
L 94.533566 34.587202 
L 95.785936 34.536183 
L 99.090897 33.901899 
L 100.343266 34.98294 
L 99.337649 49.764529 
L 101.16899 49.958261 
L 103.834325 49.809342 
L 105.101169 50.409844 
L 106.106787 52.308561 
L 107.663117 54.26726 
L 108.469541 48.292575 
L 113.329453 48.292575 
L 112.701544 55.284183 
L 110.755788 56.318343 
L 114.988481 56.473467 
L 116.699203 58.330128 
L 119.321804 58.964413 
L 121.131089 59.963411 
L 121.450902 61.390551 
L 119.913182 64.926688 
L 121.509488 65.716096 
L 123.531063 64.765359 
L 124.534613 65.740916 
L 124.433293 66.910895 
L 123.739217 68.371818 
L 123.977698 69.445276 
L 125.327941 70.072666 
L 126.905638 70.209865 
L 127.911945 71.652862 
L 128.770063 73.706014 
L 130.308472 75.260011 
L 132.95313 75.898432 
L 133.932556 76.694046 
L 134.304752 78.126012 
L 134.244787 86.011135 
L 134.224109 88.688229 
L 139.647829 89.149464 
L 140.04277 87.853318 
L 141.732815 51.665314 
L 147.930563 62.899045 
L 155.457189 64.6778 
L 155.250413 66.821958 
L 155.222843 67.319044 
L 155.195963 67.809235 
L 155.518532 67.562416 
L 156.990084 66.662008 
L 159.336296 66.109077 
L 160.549378 66.157338 
L 164.227224 68.151198 
L 164.573917 68.386297 
L 166.498997 69.690027 
L 173.019315 73.31648 
L 174.804476 74.309274 
L 176.052021 75.102129 
L 179.746409 77.332467 
L 180.560415 77.824037 
L 179.670591 98.221802 
L 177.910243 137.372329 
L 190.953637 146.128903 
L 205.134296 156.280214 
L 210.256123 158.973166 
L 210.051416 159.499898 
L 212.714683 160.64161 
L 217.163801 161.95844 
L 217.427785 160.963578 
L 220.210293 161.450323 
L 219.675433 164.34528 
L 229.863259 171.110753 
L 229.881179 171.122473 
L 235.002317 174.291828 
L 235.774968 174.770299 
L 242.425555 178.886944 
L 247.73417 182.172124 
L 255.848727 187.194693 
L 268.832156 195.230113 
L 270.224444 197.2157 
L 269.917038 198.944125 
L 269.686828 200.235446 
L 269.349094 202.345132 
L 268.841805 205.481393 
L 268.770123 205.923324 
L 268.387589 208.293618 
L 267.810685 211.866295 
L 267.577718 213.314808 
L 266.790593 218.182252 
L 266.316388 221.118576 
L 265.778772 225.565463 
L 264.393377 234.369609 
L 264.207279 237.499665 
L 262.842561 237.768547 
L 261.291745 240.450467 
L 259.320486 242.953134 
L 257.907521 244.173442 
L 256.143037 245.11108 
L 254.481941 245.73847 
L 252.104024 246.152134 
L 248.230431 245.600582 
L 236.835037 243.618443 
L 230.013516 242.436054 
L 229.853609 242.409855 
L 224.072168 241.463944 
L 218.668437 240.484939 
L 216.898439 240.162282 
L 216.056174 240.009226 
L 214.07113 239.747239 
L 209.777094 238.775129 
L 206.737495 238.237366 
L 205.653302 238.676539 
L 206.551397 241.208162 
L 206.578967 241.284689 
L 207.991933 244.93872 
L 207.991933 247.751634 
L 209.351826 251.786236 
L 210.677256 254.950075 
L 212.486541 259.336291 
L 213.73064 262.166441 
L 214.007719 262.6849 
L 214.781059 264.325766 
L 215.242858 265.752907 
L 216.387015 268.779547 
L 218.7029 275.129287 
L 219.461076 276.93562 
L 220.405351 279.190088 
L 220.784439 289.435162 
L 220.908504 291.020874 
L 221.084263 296.139964 
L 221.135957 297.647769 
L 221.217978 299.767796 
L 221.206261 300.961216 
L 220.929871 302.047773 
L 220.653481 303.13433 
L 221.197301 312.575519 
L 221.109766 316.492226 
L 221.108387 316.861076 
L 221.385466 319.583674 
L 221.556401 321.266596 
L 221.652896 323.631375 
L 206.23572 324.362181 
L 199.521032 324.513858 
L 199.030285 324.49869 
L 195.888677 324.413889 
L 194.1366 324.438709 
L 188.633617 324.72 
L 188.595019 324.43664 
L 188.149073 322.764749 
L 187.302672 322.38142 
L 186.796073 321.229366 
L 186.447311 319.328581 
L 184.110749 314.872042 
L 182.953496 314.319801 
L 180.745824 311.305571 
L 179.536187 310.377585 
L 178.188012 308.016253 
L 176.655806 307.800459 
L 176.054778 307.114466 
L 174.408846 306.879367 
L 173.814022 306.991057 
L 173.511441 307.058622 
L 173.252282 307.100677 
L 172.565788 307.138597 
L 171.711116 307.362665 
L 170.875054 307.079305 
L 170.143069 306.735274 
L 169.849448 306.345051 
L 169.410395 305.493593 
L 168.989262 304.939973 
L 168.869332 304.610421 
L 168.75147 304.286384 
L 168.635676 303.967174 
L 168.560548 303.761031 
L 168.417873 302.411108 
L 168.333784 301.878861 
L 168.235221 301.279048 
L 167.879567 298.83981 
L 167.832698 298.53232 
L 167.72035 298.241377 
L 167.448785 297.578825 
L 167.095199 297.305117 
L 167.083482 296.315771 
L 166.933225 295.971051 
L 162.240801 296.040685 
L 157.042467 296.136517 
L 156.877047 290.000503 
L 156.704734 288.20796 
L 157.377443 283.266745 
L 156.912888 283.180565 
L 156.489688 282.638665 
L 155.750121 282.176051 
L 154.89476 282.032648 
L 154.149679 282.120896 
L 153.527974 281.794102 
L 153.392192 281.105351 
L 152.799435 281.040544 
L 152.154985 281.508673 
L 151.436785 281.899586 
L 150.957756 281.799617 
L 151.032884 281.330109 
L 150.960513 280.703408 
L 150.625536 280.427632 
L 149.90389 280.845432 
L 149.317337 281.419736 
L 148.845889 281.448003 
L 148.64256 280.895072 
L 148.324126 280.573793 
L 147.235109 281.214283 
L 146.509327 281.999555 
L 145.464422 282.799305 
L 144.20447 283.001311 
L 142.200816 282.594541 
L 140.627255 282.196734 
L 139.911812 281.220488 
L 139.203951 280.659973 
L 138.453356 280.495197 
L 137.448428 280.98332 
L 136.417997 282.120896 
L 135.750801 284.206451 
L 134.341282 284.985518 
L 133.268807 284.9214 
L 132.362441 283.47013 
L 132.239065 282.457343 
L 131.888926 282.069188 
L 131.511905 282.413908 
L 131.125924 282.407703 
L 130.657233 281.370786 
L 131.60909 280.814408 
L 133.121307 280.560004 
L 133.725781 279.840919 
L 133.319812 278.610958 
L 132.753936 277.380308 
L 133.405279 276.532297 
L 133.337043 275.860783 
L 132.476857 274.85558 
L 132.230794 273.484284 
L 132.480303 272.505969 
L 132.977254 270.558302 
L 132.831822 269.96952 
L 131.915806 269.791645 
L 131.634592 271.444232 
L 130.824721 272.454951 
L 129.678496 272.667298 
L 128.026361 271.199481 
L 126.853255 271.049872 
L 125.531271 271.700014 
L 124.898538 271.715871 
L 124.649029 271.722076 
L 124.356786 271.630381 
L 124.27063 271.603492 
L 123.372535 271.32358 
L 122.903155 271.046425 
L 122.578517 270.709979 
L 122.265597 270.661718 
L 122.037455 270.715494 
L 121.808624 270.76996 
L 121.603916 271.142947 
L 121.447456 271.624176 
L 121.243437 272.165386 
L 120.906393 272.730726 
L 120.441149 273.365011 
L 119.796699 274.352978 
L 119.531337 274.938313 
L 119.465169 275.579492 
L 119.399001 276.672943 
L 119.222552 277.147967 
L 118.84691 277.324464 
L 118.4051 277.346526 
L 117.642788 277.368588 
L 116.979728 277.125905 
L 116.162276 276.84944 
L 115.115303 276.483347 
L 114.540467 276.052447 
L 114.098657 275.168585 
L 113.502455 274.57222 
L 112.877304 274.368835 
L 112.228029 274.319196 
L 111.44435 274.577046 
L 110.342926 275.092747 
L 109.635754 275.423678 
L 108.545358 276.07313 
L 107.994647 276.538502 
L 107.774086 277.285166 
L 107.774086 278.154549 
L 107.419122 278.975672 
L 107.161342 279.636845 
L 106.769847 280.126347 
L 106.341132 280.138757 
L 105.961355 280.028446 
L 105.60639 279.759565 
L 105.336893 279.195603 
L 105.067396 278.5103 
L 104.859242 277.934618 
L 104.418121 277.052824 
L 103.985271 276.330291 
L 103.293263 275.691181 
L 103.160237 275.649814 
L 102.368976 275.402995 
L 102.075355 275.402995 
L 101.781045 275.402995 
L 101.145555 275.571218 
L 100.720976 275.67946 
L 100.5335 275.727032 
L 99.969692 275.64292 
L 99.178432 275.319573 
L 98.43404 274.983126 
L 97.884707 274.73286 
L 97.750303 274.671499 
L 97.371904 274.382624 
L 97.24646 274.287481 
L 96.562722 274.335742 
L 95.878985 274.515686 
L 95.410983 274.875574 
L 94.967105 275.739442 
L 94.823052 276.459217 
L 94.821673 277.78432 
L 94.785832 278.960504 
L 94.486008 280.076018 
L 94.149653 281.239792 
L 93.669934 281.959567 
L 93.226056 282.319455 
L 92.710496 282.355306 
L 92.456852 282.355306 
L 91.873745 282.406324 
L 91.585638 282.422871 
L 91.453991 282.431144 
L 88.684579 281.321146 
L 87.424627 282.62074 
L 79.115701 281.534183 
L 74.184107 281.061227 
L 71.560816 281.162575 
L 56.724679 279.848503 
L 58.614607 262.840024 
L 53.82362 225.763332 
L 41.907152 181.508883 
L 41.461206 179.021385 
L 25.950292 92.444986 
L 19.724974 57.702738 
z
" clip-path="url(#p2f5c31f6cc)" style="fill: none; stroke: #000000; stroke-width: 1.2"/>
   </g>
  </g>
 </g>
 <defs>
  <clipPath id="p2f5c31f6cc">
   <rect x="7.2" y="7.2" width="275.549417" height="332.64"/>
  </clipPath>
 </defs>
</svg>
