<?xml version="1.0" encoding="utf-8" standalone="no"?>
<!DOCTYPE svg PUBLIC "-//W3C//DTD SVG 1.1//EN"
  "http://www.w3.org/Graphics/SVG/1.1/DTD/svg11.dtd">
<svg xmlns:xlink="http://www.w3.org/1999/xlink" width="349.2pt" height="346.755557pt" viewBox="0 0 349.2 346.755557" xmlns="http://www.w3.org/2000/svg" version="1.1">
 <metadata>
  <rdf:RDF xmlns:dc="http://purl.org/dc/elements/1.1/" xmlns:cc="http://creativecommons.org/ns#" xmlns:rdf="http://www.w3.org/1999/02/22-rdf-syntax-ns#">
   <cc:Work>
    <dc:type rdf:resource="http://purl.org/dc/dcmitype/StillImage"/>
    <dc:date>2026-01-20T15:33:08.885013</dc:date>
    <dc:format>image/svg+xml</dc:format>
    <dc:creator>
     <cc:Agent>
      <dc:title>Matplotlib v3.10.0, https://matplotlib.org/</dc:title>
     </cc:Agent>
    </dc:creator>
   </cc:Work>
  </rdf:RDF>
 </metadata>
 <defs>
  <style type="text/css">*{stroke-linejoin: round; stroke-linecap: butt}</style>
 </defs>
 <g id="figure_1">
  <g id="patch_1">
   <path d="M 0 346.755557 
L 349.2 346.755557 
L 349.2 0 
L 0 0 
z
" style="fill: #ffffff"/>
  </g>
  <g id="axes_1">
   <g id="PatchCollection_1">
    <path d="M 22.418182 100.793389 
L 23.345238 88.802624 
L 24.141141 78.846263 
L 27.376854 58.642398 
L 24.502261 46.125059 
L 25.488606 45.526599 
L 32.513391 38.266003 
L 40.975472 30.106819 
L 50.048404 25.973312 
L 66.739006 22.307071 
L 78.255342 24.12222 
L 89.250658 25.937369 
L 122.559997 35.767927 
L 142.969603 37.780766 
L 146.922167 38.787185 
L 172.865363 46.586933 
L 188.801385 51.349453 
L 200.175787 54.645476 
L 205.366223 56.147916 
L 214.36729 60.04779 
L 219.056469 62.420064 
L 224.284634 65.762813 
L 229.494833 70.219812 
L 233.680958 75.302229 
L 236.415414 79.457303 
L 239.591838 84.812891 
L 241.85558 91.60622 
L 244.873902 100.448331 
L 247.425103 102.407254 
L 257.496956 105.625999 
L 260.576363 106.271185 
L 266.756736 103.98877 
L 268.607255 105.10302 
L 276.171026 109.002894 
L 291.89864 119.36362 
L 297.425044 123.002904 
L 305.887125 128.897645 
L 309.677994 131.521524 
L 315.966164 135.601116 
L 326.781818 142.95157 
L 320.624801 152.577251 
L 319.889983 153.725647 
L 319.056351 155.0286 
L 312.478925 164.913074 
L 311.726141 166.059673 
L 303.64135 177.834778 
L 296.760294 188.474066 
L 289.735509 198.178822 
L 281.614786 210.345711 
L 276.512384 218.684613 
L 274.35644 221.847645 
L 267.098094 233.942647 
L 259.480424 243.91698 
L 255.869218 249.39837 
L 251.952586 253.513906 
L 248.43121 251.141632 
L 259.246864 279.644861 
L 263.467125 292.514446 
L 263.738414 293.33935 
L 264.090552 294.169646 
L 269.119292 305.996869 
L 276.404587 323.136547 
L 273.655758 323.945276 
L 267.619114 324.448486 
L 264.349265 324.448486 
L 246.616624 320.171204 
L 235.926733 316.46902 
L 231.596878 315.193024 
L 220.637495 312.173766 
L 197.10177 306.368884 
L 163.954127 298.012011 
L 143.83198 293.123689 
L 108.438562 283.131384 
L 87.971464 277.179134 
L 87.175561 276.947298 
L 86.101182 276.560905 
L 85.319653 276.278748 
L 69.451903 270.551145 
L 35.587408 260.878737 
L 39.230954 222.395784 
L 39.951399 214.730824 
L 34.432181 193.01733 
L 23.188932 152.674298 
L 22.508013 107.41419 
L 22.418182 100.793389 
z
" clip-path="url(#p4668220250)" style="fill: none; stroke: #000000; stroke-width: 1.2"/>
   </g>
  </g>
 </g>
 <defs>
  <clipPath id="p4668220250">
   <rect x="7.2" y="7.2" width="334.8" height="332.355557"/>
  </clipPath>
 </defs>
</svg>
