<?xml version="1.0" encoding="utf-8" standalone="no"?>
<!DOCTYPE svg PUBLIC "-//W3C//DTD SVG 1.1//EN"
  "http://www.w3.org/Graphics/SVG/1.1/DTD/svg11.dtd">
<svg xmlns:xlink="http://www.w3.org/1999/xlink" width="349.2pt" height="280.811807pt" viewBox="0 0 349.2 280.811807" xmlns="http://www.w3.org/2000/svg" version="1.1">
 <metadata>
  <rdf:RDF xmlns:dc="http://purl.org/dc/elements/1.1/" xmlns:cc="http://creativecommons.org/ns#" xmlns:rdf="http://www.w3.org/1999/02/22-rdf-syntax-ns#">
   <cc:Work>
    <dc:type rdf:resource="http://purl.org/dc/dcmitype/StillImage"/>
    <dc:date>2026-01-20T15:33:11.081040</dc:date>
    <dc:format>image/svg+xml</dc:format>
    <dc:creator>
     <cc:Agent>
      <dc:title>Matplotlib v3.10.0, https://matplotlib.org/</dc:title>
     </cc:Agent>
    </dc:creator>
   </cc:Work>
  </rdf:RDF>
 </metadata>
 <defs>
  <style type="text/css">*{stroke-linejoin: round; stroke-linecap: butt}</style>
 </defs>
 <g id="figure_1">
  <g id="patch_1">
   <path d="M 0 280.811807 
L 349.2 280.811807 
L 349.2 0 
L 0 0 
z
" style="fill: #ffffff"/>
  </g>
  <g id="axes_1">
   <g id="PatchCollection_1">
    <path d="M 22.418182 113.145387 
L 32.923834 111.534735 
L 37.301915 110.777293 
L 41.671291 110.054675 
L 46.031964 109.410414 
L 50.24467 108.792272 
L 54.648862 108.139305 
L 59.13139 107.486337 
L 61.864426 107.077144 
L 67.104197 106.075928 
L 67.008453 104.970236 
L 74.841997 104.465275 
L 82.988882 103.855839 
L 86.94047 103.568533 
L 91.205399 103.246403 
L 100.135639 102.584729 
L 108.195485 101.983999 
L 116.707936 101.992705 
L 116.802809 98.979479 
L 116.921183 95.182691 
L 118.532281 96.199579 
L 118.6611 96.280547 
L 118.804715 96.371092 
L 121.629142 98.028758 
L 122.61791 98.609464 
L 127.141346 100.75555 
L 128.18843 101.252676 
L 162.568982 119.866598 
L 169.984737 117.045779 
L 171.386071 114.851809 
L 171.235493 111.689706 
L 171.168473 110.986242 
L 172.675124 110.55006 
L 172.702106 110.542224 
L 175.658834 109.062165 
L 180.169214 105.787751 
L 184.88936 101.047209 
L 188.490179 100.220987 
L 188.521513 100.204445 
L 191.870788 98.461458 
L 194.093773 98.248155 
L 196.153125 98.245543 
L 200.610411 97.432381 
L 204.134636 94.777852 
L 205.567304 94.41306 
L 205.005029 93.104514 
L 204.993714 91.048973 
L 205.246129 89.154497 
L 205.763142 88.269944 
L 206.279286 87.431534 
L 207.10616 86.329325 
L 209.263866 85.089557 
L 210.735702 84.350398 
L 212.572233 82.987873 
L 213.225028 80.374263 
L 214.082366 75.75996 
L 215.384475 72.835537 
L 217.995656 68.795846 
L 224.889175 62.771134 
L 227.247942 58.818505 
L 228.031296 55.127063 
L 227.596099 42.999283 
L 228.90169 38.080262 
L 232.391969 34.998256 
L 236.317444 33.85774 
L 248.015536 35.790523 
L 252.115091 34.998256 
L 255.779449 34.38882 
L 259.182688 34.737069 
L 265.292852 37.018102 
L 271.220234 38.254387 
L 278.37487 38.515574 
L 284.659113 36.495728 
L 288.41051 33.32666 
L 301.590882 19.309628 
L 304.006225 25.096659 
L 306.992546 27.911384 
L 310.284375 38.248292 
L 311.013765 49.851957 
L 310.409712 55.993333 
L 309.805659 62.133838 
L 311.238327 69.321702 
L 314.731217 78.283026 
L 319.708128 91.052455 
L 323.530898 102.874647 
L 326.781818 121.047163 
L 323.048699 132.27646 
L 317.197042 137.803175 
L 301.301912 144.562693 
L 299.910152 145.154717 
L 294.116811 151.612129 
L 293.226399 155.139023 
L 292.913927 156.377049 
L 293.789543 168.98106 
L 291.828546 173.007692 
L 291.375941 173.937517 
L 291.375941 177.931066 
L 291.375941 181.563305 
L 289.723934 188.80776 
L 285.276222 198.721546 
L 284.460663 207.182261 
L 284.133395 210.287774 
L 286.211025 217.124777 
L 286.462569 217.951869 
L 287.358204 220.90067 
L 287.538375 221.493564 
L 288.803058 225.654272 
L 291.739766 234.63562 
L 292.438692 236.772129 
L 290.832816 243.782387 
L 290.557771 244.981235 
L 287.092734 248.60738 
L 241.87839 252.305787 
L 240.988848 252.378049 
L 218.637136 254.188074 
L 216.334074 254.374388 
L 215.473255 254.439684 
L 207.39339 255.053474 
L 198.578912 255.722112 
L 192.734218 256.177448 
L 167.655564 257.644448 
L 163.726606 258.966054 
L 162.049357 259.189804 
L 158.834993 259.619021 
L 154.143571 260.211045 
L 149.478261 260.280695 
L 144.778134 260.228457 
L 140.08323 260.570612 
L 139.741166 259.316044 
L 138.264978 258.733598 
L 136.906293 258.811083 
L 135.786097 258.752751 
L 134.873924 258.705738 
L 134.653714 258.694419 
L 129.677673 259.324751 
L 129.263366 259.377859 
L 124.464885 259.691283 
L 114.517155 260.340768 
L 111.980828 260.474844 
L 109.439278 260.60979 
L 105.458097 260.828317 
L 103.34217 260.94498 
L 101.872075 261.025078 
L 95.857654 261.502179 
L 89.135603 261.431659 
L 88.629904 261.42034 
L 88.846632 259.932446 
L 89.507261 255.721242 
L 91.066136 245.78482 
L 92.606733 237.313657 
L 93.04193 231.750375 
L 93.181193 229.512874 
L 93.390088 226.300274 
L 93.163785 220.493218 
L 92.307318 214.979562 
L 92.145425 213.937426 
L 89.475057 208.849505 
L 88.438418 206.730408 
L 87.491429 204.793271 
L 85.251906 200.730073 
L 81.718108 195.645634 
L 79.701405 192.653303 
L 76.077086 187.276334 
L 75.721095 186.747866 
L 73.075098 182.864887 
L 71.308198 180.453261 
L 64.623574 172.696009 
L 62.384051 170.01536 
L 61.439674 168.932305 
L 61.350894 168.778205 
L 58.974719 165.487249 
L 56.662953 162.159728 
L 51.489333 154.752466 
L 49.4265 151.783642 
L 38.624913 136.295256 
L 31.008968 124.872681 
L 23.506174 114.399085 
L 22.418182 113.145387 
z
" clip-path="url(#pd0513cda32)" style="fill: none; stroke: #000000; stroke-width: 1.2"/>
   </g>
  </g>
 </g>
 <defs>
  <clipPath id="pd0513cda32">
   <rect x="7.2" y="7.2" width="334.8" height="266.411807"/>
  </clipPath>
 </defs>
</svg>
