<?xml version="1.0" encoding="utf-8" standalone="no"?>
<!DOCTYPE svg PUBLIC "-//W3C//DTD SVG 1.1//EN"
  "http://www.w3.org/Graphics/SVG/1.1/DTD/svg11.dtd">
<svg xmlns:xlink="http://www.w3.org/1999/xlink" width="349.2pt" height="296.673663pt" viewBox="0 0 349.2 296.673663" xmlns="http://www.w3.org/2000/svg" version="1.1">
 <metadata>
  <rdf:RDF xmlns:dc="http://purl.org/dc/elements/1.1/" xmlns:cc="http://creativecommons.org/ns#" xmlns:rdf="http://www.w3.org/1999/02/22-rdf-syntax-ns#">
   <cc:Work>
    <dc:type rdf:resource="http://purl.org/dc/dcmitype/StillImage"/>
    <dc:date>2026-01-20T15:33:09.090708</dc:date>
    <dc:format>image/svg+xml</dc:format>
    <dc:creator>
     <cc:Agent>
      <dc:title>Matplotlib v3.10.0, https://matplotlib.org/</dc:title>
     </cc:Agent>
    </dc:creator>
   </cc:Work>
  </rdf:RDF>
 </metadata>
 <defs>
  <style type="text/css">*{stroke-linejoin: round; stroke-linecap: butt}</style>
 </defs>
 <g id="figure_1">
  <g id="patch_1">
   <path d="M 0 296.673663 
L 349.2 296.673663 
L 349.2 0 
L 0 0 
z
" style="fill: #ffffff"/>
  </g>
  <g id="axes_1">
   <g id="PatchCollection_1">
    <path d="M 22.418182 146.934717 
L 37.535248 87.753495 
L 43.525708 66.228415 
L 53.1845 26.817754 
L 53.91307 20.030621 
L 82.169872 28.101401 
L 95.410047 32.880587 
L 96.062162 33.116022 
L 96.958632 33.438433 
L 97.62274 33.63188 
L 114.700648 38.598514 
L 144.233195 46.936221 
L 161.023273 51.015099 
L 188.681928 57.988181 
L 208.320323 62.831849 
L 217.464919 65.351156 
L 221.077784 66.415863 
L 229.997513 69.505014 
L 244.793769 73.074032 
L 247.522157 73.074032 
L 252.55918 72.654147 
L 254.852825 71.979333 
L 258.225831 79.417287 
L 262.288431 84.86079 
L 272.277028 91.407989 
L 284.719675 100.117594 
L 285.790042 100.865888 
L 286.957852 101.684663 
L 287.665434 102.179527 
L 288.224604 102.557423 
L 304.500485 113.537403 
L 308.228782 117.137913 
L 310.113169 119.280823 
L 312.511751 121.165805 
L 323.446289 127.39959 
L 324.231825 127.922946 
L 326.381555 129.358052 
L 326.781818 129.623479 
L 325.826883 131.271525 
L 320.965255 139.594236 
L 319.505118 140.882382 
L 318.089955 142.642898 
L 316.321 144.844292 
L 311.048616 149.35955 
L 311.009639 153.466921 
L 311.286975 168.882681 
L 311.249497 170.967107 
L 312.229918 192.601657 
L 312.268895 193.445925 
L 313.678062 217.079425 
L 314.534056 241.78363 
L 298.836832 242.18252 
L 281.85187 241.49271 
L 273.681698 244.012017 
L 270.42862 244.896774 
L 261.943634 247.521052 
L 245.213521 252.499683 
L 211.273578 262.47194 
L 197.631639 266.175921 
L 177.033812 272.039308 
L 171.157284 273.388937 
L 163.077059 275.518352 
L 157.320461 276.643042 
L 145.312557 261.887101 
L 134.264087 246.891225 
L 131.355805 242.857335 
L 128.823801 239.120362 
L 128.612426 238.808448 
L 124.858645 234.552619 
L 112.535927 218.793453 
L 114.330366 216.999946 
L 113.289981 216.022215 
L 110.494133 212.244754 
L 106.073246 206.838741 
L 97.13103 196.864984 
L 73.497497 181.24528 
L 55.272766 168.140385 
L 51.114224 164.905774 
L 40.621924 157.842717 
L 39.068842 157.170902 
L 37.772108 156.610056 
L 22.418182 146.934717 
z
" clip-path="url(#p9ddb6aad10)" style="fill: none; stroke: #000000; stroke-width: 1.2"/>
   </g>
  </g>
 </g>
 <defs>
  <clipPath id="p9ddb6aad10">
   <rect x="7.2" y="7.2" width="334.8" height="282.273663"/>
  </clipPath>
 </defs>
</svg>
