<?xml version="1.0" encoding="utf-8" standalone="no"?>
<!DOCTYPE svg PUBLIC "-//W3C//DTD SVG 1.1//EN"
  "http://www.w3.org/Graphics/SVG/1.1/DTD/svg11.dtd">
<svg xmlns:xlink="http://www.w3.org/1999/xlink" width="346.361821pt" height="347.04pt" viewBox="0 0 346.361821 347.04" xmlns="http://www.w3.org/2000/svg" version="1.1">
 <metadata>
  <rdf:RDF xmlns:dc="http://purl.org/dc/elements/1.1/" xmlns:cc="http://creativecommons.org/ns#" xmlns:rdf="http://www.w3.org/1999/02/22-rdf-syntax-ns#">
   <cc:Work>
    <dc:type rdf:resource="http://purl.org/dc/dcmitype/StillImage"/>
    <dc:date>2026-01-20T15:33:09.544852</dc:date>
    <dc:format>image/svg+xml</dc:format>
    <dc:creator>
     <cc:Agent>
      <dc:title>Matplotlib v3.10.0, https://matplotlib.org/</dc:title>
     </cc:Agent>
    </dc:creator>
   </cc:Work>
  </rdf:RDF>
 </metadata>
 <defs>
  <style type="text/css">*{stroke-linejoin: round; stroke-linecap: butt}</style>
 </defs>
 <g id="figure_1">
  <g id="patch_1">
   <path d="M 0 347.04 
L 346.361821 347.04 
L 346.361821 -0 
L 0 -0 
z
" style="fill: #ffffff"/>
  </g>
  <g id="axes_1">
   <g id="PatchCollection_1">
    <path d="M 22.289174 298.725187 
L 22.792669 285.833231 
L 24.975125 270.150442 
L 26.79464 252.553168 
L 31.551373 254.823971 
L 56.181258 261.620969 
L 56.837824 261.782757 
L 60.17649 262.60325 
L 66.37632 264.432989 
L 66.622773 264.10171 
L 73.500349 254.860565 
L 83.031144 244.787371 
L 83.295888 244.294304 
L 84.205646 242.601314 
L 84.649453 240.59149 
L 84.471353 234.984785 
L 84.38856 233.597072 
L 84.077606 232.30181 
L 83.618395 230.390214 
L 82.823199 227.951846 
L 82.714413 227.689904 
L 80.479971 222.281581 
L 77.086431 214.072794 
L 73.384824 202.624406 
L 72.048587 199.29717 
L 68.986218 190.623244 
L 71.053149 190.506719 
L 73.231754 192.82182 
L 78.326397 193.731875 
L 82.323554 194.64867 
L 86.621076 195.430643 
L 88.98067 195.399826 
L 90.333273 194.994395 
L 93.083725 193.987075 
L 95.92371 194.077599 
L 99.66575 194.978986 
L 106.335381 197.058148 
L 107.246101 193.938924 
L 113.794431 196.413887 
L 119.418563 197.857455 
L 124.355322 199.288503 
L 127.150059 200.066624 
L 133.371069 202.490546 
L 135.354245 198.638464 
L 136.717437 195.464349 
L 138.740084 192.018661 
L 140.629876 188.797358 
L 146.001779 178.040418 
L 146.590955 176.983022 
L 163.677071 146.347413 
L 165.217402 141.118212 
L 165.525468 135.118594 
L 164.486708 127.745709 
L 154.415834 111.100862 
L 153.822807 109.383796 
L 153.491636 108.423665 
L 150.863447 104.013031 
L 150.433117 102.4982 
L 148.235258 94.758404 
L 146.925977 84.444454 
L 145.481917 66.869329 
L 144.709827 59.089087 
L 144.420052 55.212929 
L 143.951214 49.55422 
L 144.028231 48.311924 
L 143.847242 46.291507 
L 143.527623 42.736035 
L 142.362748 27.231405 
L 142.025801 22.32 
L 143.219557 23.562296 
L 145.770729 33.500668 
L 185.405358 60.272639 
L 227.234958 88.132822 
L 234.618917 74.814249 
L 240.231496 63.787664 
L 241.492642 56.979109 
L 243.706867 54.841203 
L 247.759861 53.964854 
L 266.677045 44.045743 
L 280.135683 37.728328 
L 281.348693 39.047666 
L 281.58937 40.598129 
L 280.578528 42.97679 
L 279.7506 45.557685 
L 279.461788 48.234882 
L 279.702465 51.191355 
L 281.156152 53.088506 
L 282.552076 55.17826 
L 284.044271 55.322713 
L 285.257282 55.322713 
L 286.075582 56.10276 
L 286.268124 57.951759 
L 287.327101 60.089665 
L 289.117735 61.428263 
L 290.946877 61.091206 
L 294.277842 61.110467 
L 295.384955 61.938664 
L 296.261018 63.643211 
L 297.127453 66.166324 
L 297.945754 67.620485 
L 300.554689 70.836974 
L 302.026667 72.515519 
L 301.682981 72.802499 
L 301.338332 73.089479 
L 298.427107 76.374342 
L 294.181571 81.035361 
L 293.59047 83.599885 
L 293.864841 85.684824 
L 294.470383 91.638217 
L 294.520444 96.149968 
L 295.285796 99.37705 
L 296.290861 102.289224 
L 298.007367 105.832177 
L 299.678626 110.494159 
L 300.778037 113.384184 
L 304.124405 119.607222 
L 306.105655 122.248787 
L 307.569931 125.789814 
L 309.453948 128.870517 
L 310.417617 131.155764 
L 312.626066 134.867245 
L 313.755321 137.816977 
L 317.566676 142.315246 
L 318.968377 143.969715 
L 320.428803 147.418292 
L 320.759974 150.960281 
L 321.372255 154.595684 
L 322.082733 156.771147 
L 321.958544 161.650772 
L 324.072647 166.878047 
L 292.198396 180.956444 
L 101.438093 295.577073 
L 38.173832 324.72 
L 22.289174 298.725187 
z
" clip-path="url(#p5ac3a6822f)" style="fill: none; stroke: #000000; stroke-width: 1.2"/>
   </g>
  </g>
 </g>
 <defs>
  <clipPath id="p5ac3a6822f">
   <rect x="7.2" y="7.2" width="331.961821" height="332.64"/>
  </clipPath>
 </defs>
</svg>
