<?xml version="1.0" encoding="utf-8" standalone="no"?>
<!DOCTYPE svg PUBLIC "-//W3C//DTD SVG 1.1//EN"
  "http://www.w3.org/Graphics/SVG/1.1/DTD/svg11.dtd">
<svg xmlns:xlink="http://www.w3.org/1999/xlink" width="142.497147pt" height="347.04pt" viewBox="0 0 142.497147 347.04" xmlns="http://www.w3.org/2000/svg" version="1.1">
 <metadata>
  <rdf:RDF xmlns:dc="http://purl.org/dc/elements/1.1/" xmlns:cc="http://creativecommons.org/ns#" xmlns:rdf="http://www.w3.org/1999/02/22-rdf-syntax-ns#">
   <cc:Work>
    <dc:type rdf:resource="http://purl.org/dc/dcmitype/StillImage"/>
    <dc:date>2026-01-20T15:33:12.215700</dc:date>
    <dc:format>image/svg+xml</dc:format>
    <dc:creator>
     <cc:Agent>
      <dc:title>Matplotlib v3.10.0, https://matplotlib.org/</dc:title>
     </cc:Agent>
    </dc:creator>
   </cc:Work>
  </rdf:RDF>
 </metadata>
 <defs>
  <style type="text/css">*{stroke-linejoin: round; stroke-linecap: butt}</style>
 </defs>
 <g id="figure_1">
  <g id="patch_1">
   <path d="M 0 347.04 
L 142.497147 347.04 
L 142.497147 -0 
L 0 -0 
z
" style="fill: #ffffff"/>
  </g>
  <g id="axes_1">
   <g id="PatchCollection_1">
    <path d="M 13.022598 204.631095 
L 13.831513 193.708478 
L 17.108421 149.472411 
L 17.190909 148.371898 
L 29.908716 135.576947 
L 37.383205 128.058332 
L 50.742291 110.026965 
L 50.307232 81.919324 
L 36.280259 66.166164 
L 37.552173 39.032616 
L 41.290747 25.601576 
L 56.612252 24.469126 
L 67.821325 24.449165 
L 80.008281 24.489087 
L 111.393684 22.745833 
L 127.944528 22.32 
L 124.791352 29.199865 
L 123.500812 31.315723 
L 120.493987 39.286785 
L 116.342971 48.788184 
L 114.107809 54.084482 
L 112.125433 58.01013 
L 110.874807 60.498592 
L 107.269277 67.631295 
L 107.9824 90.449292 
L 108.386858 103.401269 
L 108.240508 116.615401 
L 108.277761 117.733212 
L 108.440076 122.563756 
L 108.519904 126.941851 
L 108.599731 131.319947 
L 110.036621 150.509048 
L 111.171498 165.639428 
L 111.783506 173.530646 
L 113.256319 189.446155 
L 114.701191 204.496691 
L 114.993891 207.489499 
L 115.251999 210.197531 
L 116.797986 226.327287 
L 118.580794 231.157831 
L 121.73397 260.074555 
L 123.520769 280.273678 
L 123.620553 281.404797 
L 124.90045 295.857836 
L 129.474549 311.753384 
L 101.491117 312.993623 
L 82.274043 324.72 
L 74.557412 316.798175 
L 69.950051 288.492255 
L 73.120522 265.537194 
L 58.135622 242.825656 
L 42.945832 243.149023 
L 13.022598 204.631095 
z
" clip-path="url(#p8b815a3010)" style="fill: none; stroke: #000000; stroke-width: 1.2"/>
   </g>
  </g>
 </g>
 <defs>
  <clipPath id="p8b815a3010">
   <rect x="7.2" y="7.2" width="128.097147" height="332.64"/>
  </clipPath>
 </defs>
</svg>
