<?xml version="1.0" encoding="utf-8" standalone="no"?>
<!DOCTYPE svg PUBLIC "-//W3C//DTD SVG 1.1//EN"
  "http://www.w3.org/Graphics/SVG/1.1/DTD/svg11.dtd">
<svg xmlns:xlink="http://www.w3.org/1999/xlink" width="349.2pt" height="184.863811pt" viewBox="0 0 349.2 184.863811" xmlns="http://www.w3.org/2000/svg" version="1.1">
 <metadata>
  <rdf:RDF xmlns:dc="http://purl.org/dc/elements/1.1/" xmlns:cc="http://creativecommons.org/ns#" xmlns:rdf="http://www.w3.org/1999/02/22-rdf-syntax-ns#">
   <cc:Work>
    <dc:type rdf:resource="http://purl.org/dc/dcmitype/StillImage"/>
    <dc:date>2026-01-20T15:33:10.519090</dc:date>
    <dc:format>image/svg+xml</dc:format>
    <dc:creator>
     <cc:Agent>
      <dc:title>Matplotlib v3.10.0, https://matplotlib.org/</dc:title>
     </cc:Agent>
    </dc:creator>
   </cc:Work>
  </rdf:RDF>
 </metadata>
 <defs>
  <style type="text/css">*{stroke-linejoin: round; stroke-linecap: butt}</style>
 </defs>
 <g id="figure_1">
  <g id="patch_1">
   <path d="M 0 184.863811 
L 349.2 184.863811 
L 349.2 0 
L 0 0 
z
" style="fill: #ffffff"/>
  </g>
  <g id="axes_1">
   <g id="PatchCollection_1">
    <path d="M 22.418182 93.186177 
L 27.517918 92.733756 
L 32.751932 92.317386 
L 38.213512 91.883345 
L 39.291976 91.797809 
L 42.400157 91.560994 
L 47.791771 91.187746 
L 50.801011 90.979208 
L 52.511995 90.860448 
L 56.065414 90.456803 
L 59.64993 90.366319 
L 62.82525 90.347939 
L 64.449307 90.775619 
L 79.181014 94.958397 
L 80.855248 95.194505 
L 81.886362 95.325283 
L 103.930564 94.175849 
L 114.961146 93.558011 
L 122.186714 93.17416 
L 124.730222 93.01864 
L 126.505518 92.933104 
L 129.590378 92.780412 
L 131.605961 92.666599 
L 133.680202 92.402922 
L 137.629388 91.552511 
L 139.627302 90.972846 
L 141.409666 90.463872 
L 149.465637 87.952226 
L 149.476945 87.948691 
L 150.655764 87.575443 
L 154.946299 85.885225 
L 155.94561 85.300611 
L 161.305421 82.168299 
L 166.714703 79.189386 
L 166.95711 79.077694 
L 168.22215 78.495202 
L 170.843397 77.288508 
L 180.835092 72.687947 
L 190.018998 68.740569 
L 194.990817 67.301303 
L 195.224036 67.234147 
L 196.361159 66.904727 
L 207.513297 63.676982 
L 210.525364 62.197423 
L 217.126893 57.744605 
L 222.699429 53.945678 
L 223.472588 53.339857 
L 228.004116 49.789762 
L 228.548295 49.363496 
L 229.067739 48.957023 
L 236.088356 43.456567 
L 237.964714 41.909851 
L 247.956409 33.672951 
L 251.666721 29.677504 
L 252.784762 28.019096 
L 309.755371 14.948355 
L 313.281228 22.712333 
L 317.096136 45.992249 
L 320.339302 71.942865 
L 326.781818 88.267507 
L 316.079864 99.648736 
L 313.033874 102.221884 
L 307.931311 103.861912 
L 302.122022 103.649839 
L 297.309217 102.646029 
L 292.347999 100.793928 
L 289.5847 100.511165 
L 286.609383 101.006001 
L 283.280703 101.649288 
L 273.782303 100.07995 
L 270.594968 101.006001 
L 267.760996 103.508457 
L 266.700907 107.502491 
L 267.05427 117.349729 
L 266.418216 120.347021 
L 264.502989 123.556387 
L 258.905717 128.448195 
L 256.785539 131.728251 
L 255.728276 134.102757 
L 255.032151 137.849373 
L 254.502107 139.971513 
L 253.010914 141.077825 
L 251.81584 141.67799 
L 250.063866 142.684628 
L 249.392476 143.579574 
L 248.973388 144.260327 
L 248.553592 144.978547 
L 248.348642 146.51678 
L 248.357829 148.185791 
L 248.814374 149.248275 
L 247.651103 149.54447 
L 244.789569 151.699834 
L 241.170424 152.360087 
L 239.49831 152.362207 
L 237.693332 152.5354 
L 234.973849 153.950631 
L 234.948407 153.964062 
L 232.024681 154.634919 
L 228.192105 158.484036 
L 224.52985 161.14272 
L 222.129101 162.344465 
L 222.107193 162.350827 
L 220.88385 162.704988 
L 220.938268 163.27617 
L 221.060531 165.843662 
L 219.922702 167.625072 
L 213.901395 169.915456 
L 185.985712 154.801749 
L 185.13552 154.398104 
L 181.462664 152.655575 
L 180.659823 152.184067 
L 178.366497 150.838112 
L 178.249887 150.764594 
L 178.145292 150.698851 
L 176.837142 149.873182 
L 176.741027 152.956011 
L 176.663994 155.402622 
L 169.752212 155.395553 
L 163.207928 155.883319 
L 155.956917 156.42057 
L 152.493959 156.682126 
L 149.285422 156.915406 
L 142.670465 157.410242 
L 136.30993 157.820249 
L 136.38767 158.718023 
L 132.133178 159.530968 
L 129.914058 159.863215 
L 126.274418 160.393397 
L 122.698384 160.923578 
L 119.277829 161.425483 
L 115.737131 161.948596 
L 112.189366 162.53533 
L 108.634533 163.15034 
L 100.104349 164.458121 
L 98.073924 161.370344 
L 97.907844 161.089702 
L 97.506423 160.70373 
L 95.539604 157.654126 
L 89.39038 148.489055 
L 85.015745 142.374295 
L 82.414993 139.108377 
L 81.066559 136.772751 
L 76.959067 130.738579 
L 74.478458 127.352486 
L 71.538477 124.249157 
L 69.863536 123.096896 
L 67.60908 121.555835 
L 66.794931 121.049689 
L 63.722086 119.138208 
L 59.835092 116.72058 
L 56.223721 114.486749 
L 54.810269 113.617251 
L 53.743112 112.761892 
L 51.898557 111.439972 
L 50.732459 110.669442 
L 46.873734 108.301298 
L 43.764139 106.321954 
L 41.446077 104.64658 
L 40.598006 104.158813 
L 36.774617 101.960327 
L 30.187929 97.810774 
L 22.418182 93.186177 
z
" clip-path="url(#p355a342112)" style="fill: none; stroke: #000000; stroke-width: 1.2"/>
   </g>
  </g>
 </g>
 <defs>
  <clipPath id="p355a342112">
   <rect x="7.2" y="7.2" width="334.8" height="170.463811"/>
  </clipPath>
 </defs>
</svg>
