<?xml version="1.0" encoding="utf-8" standalone="no"?>
<!DOCTYPE svg PUBLIC "-//W3C//DTD SVG 1.1//EN"
  "http://www.w3.org/Graphics/SVG/1.1/DTD/svg11.dtd">
<svg xmlns:xlink="http://www.w3.org/1999/xlink" width="293.696779pt" height="347.04pt" viewBox="0 0 293.696779 347.04" xmlns="http://www.w3.org/2000/svg" version="1.1">
 <metadata>
  <rdf:RDF xmlns:dc="http://purl.org/dc/elements/1.1/" xmlns:cc="http://creativecommons.org/ns#" xmlns:rdf="http://www.w3.org/1999/02/22-rdf-syntax-ns#">
   <cc:Work>
    <dc:type rdf:resource="http://purl.org/dc/dcmitype/StillImage"/>
    <dc:date>2026-01-20T15:33:11.352790</dc:date>
    <dc:format>image/svg+xml</dc:format>
    <dc:creator>
     <cc:Agent>
      <dc:title>Matplotlib v3.10.0, https://matplotlib.org/</dc:title>
     </cc:Agent>
    </dc:creator>
   </cc:Work>
  </rdf:RDF>
 </metadata>
 <defs>
  <style type="text/css">*{stroke-linejoin: round; stroke-linecap: butt}</style>
 </defs>
 <g id="figure_1">
  <g id="patch_1">
   <path d="M 0 347.04 
L 293.696779 347.04 
L 293.696779 -0 
L 0 -0 
z
" style="fill: #ffffff"/>
  </g>
  <g id="axes_1">
   <g id="PatchCollection_1">
    <path d="M 19.895308 108.18726 
L 27.724707 100.530011 
L 53.850873 78.556028 
L 68.430953 65.895049 
L 77.196566 59.122859 
L 115.203534 22.32 
L 121.447169 29.791618 
L 129.892977 39.807366 
L 129.909547 39.825598 
L 184.521469 95.35391 
L 225.855724 137.382593 
L 231.431581 142.089646 
L 247.405212 157.636181 
L 256.883342 167.796124 
L 262.997729 175.088742 
L 268.996126 181.287467 
L 273.801471 186.607763 
L 257.024188 212.102092 
L 255.206442 214.702573 
L 251.045676 220.657658 
L 240.218735 237.130688 
L 239.519475 239.131185 
L 236.62964 242.628327 
L 234.583225 244.406731 
L 232.238548 247.010527 
L 226.457221 259.578691 
L 222.447243 264.337124 
L 216.311314 273.72637 
L 215.903688 274.351215 
L 215.491091 274.995948 
L 201.348463 297.145618 
L 193.096525 309.707152 
L 179.898395 324.72 
L 177.310137 322.885244 
L 172.300978 318.451663 
L 166.799687 313.582184 
L 159.957869 307.527653 
L 157.460746 305.318322 
L 155.527009 303.284676 
L 149.810305 296.640107 
L 137.485423 283.523339 
L 130.65189 276.688167 
L 125.962536 271.599909 
L 122.714785 268.815455 
L 120.196122 266.395632 
L 118.754518 264.953682 
L 118.129823 264.313921 
L 114.313716 260.41237 
L 111.911044 258.423474 
L 107.702224 253.815866 
L 101.546411 247.487862 
L 92.325119 238.66711 
L 84.653136 230.92699 
L 77.793092 224.032152 
L 70.717635 217.00472 
L 63.221296 209.871214 
L 33.020529 180.541631 
L 36.25171 177.375972 
L 43.956832 169.238073 
L 49.623826 163.503424 
L 54.727434 157.984238 
L 57.014115 155.580989 
L 63.990151 148.68615 
L 35.373491 125.963016 
L 34.873073 125.387894 
L 19.895308 108.18726 
z
" clip-path="url(#p1c9e4dc1a6)" style="fill: none; stroke: #000000; stroke-width: 1.2"/>
   </g>
  </g>
 </g>
 <defs>
  <clipPath id="p1c9e4dc1a6">
   <rect x="7.2" y="7.2" width="279.296779" height="332.64"/>
  </clipPath>
 </defs>
</svg>
