<?xml version="1.0" encoding="utf-8" standalone="no"?>
<!DOCTYPE svg PUBLIC "-//W3C//DTD SVG 1.1//EN"
  "http://www.w3.org/Graphics/SVG/1.1/DTD/svg11.dtd">
<svg xmlns:xlink="http://www.w3.org/1999/xlink" width="167.370061pt" height="347.04pt" viewBox="0 0 167.370061 347.04" xmlns="http://www.w3.org/2000/svg" version="1.1">
 <metadata>
  <rdf:RDF xmlns:dc="http://purl.org/dc/elements/1.1/" xmlns:cc="http://creativecommons.org/ns#" xmlns:rdf="http://www.w3.org/1999/02/22-rdf-syntax-ns#">
   <cc:Work>
    <dc:type rdf:resource="http://purl.org/dc/dcmitype/StillImage"/>
    <dc:date>2026-01-20T15:33:09.734122</dc:date>
    <dc:format>image/svg+xml</dc:format>
    <dc:creator>
     <cc:Agent>
      <dc:title>Matplotlib v3.10.0, https://matplotlib.org/</dc:title>
     </cc:Agent>
    </dc:creator>
   </cc:Work>
  </rdf:RDF>
 </metadata>
 <defs>
  <style type="text/css">*{stroke-linejoin: round; stroke-linecap: butt}</style>
 </defs>
 <g id="figure_1">
  <g id="patch_1">
   <path d="M 0 347.04 
L 167.370061 347.04 
L 167.370061 -0 
L 0 -0 
z
" style="fill: #ffffff"/>
  </g>
  <g id="axes_1">
   <g id="PatchCollection_1">
    <path d="M 14.153185 231.81583 
L 16.241971 224.828792 
L 18.426504 218.375499 
L 20.480895 212.312752 
L 22.57247 205.236446 
L 23.213886 198.429803 
L 23.009377 191.595264 
L 21.931054 176.791745 
L 21.410484 167.08391 
L 21.178087 164.740639 
L 20.192723 142.870114 
L 19.727928 136.323834 
L 19.495531 130.298281 
L 19.097667 117.838033 
L 19.086512 117.484682 
L 18.854115 113.104998 
L 18.791833 108.316171 
L 18.486927 91.612929 
L 18.089063 79.462327 
L 17.931033 74.654903 
L 16.903838 45.992612 
L 16.901049 37.47501 
L 37.622512 28.480384 
L 51.814544 22.32 
L 52.804556 45.641122 
L 53.031376 59.520351 
L 53.706257 76.728512 
L 54.118065 86.073698 
L 53.54172 94.59502 
L 53.822456 95.201295 
L 54.956554 97.65615 
L 56.834323 101.716889 
L 56.943085 101.961444 
L 59.615653 107.994436 
L 59.889882 108.611869 
L 60.268224 109.67192 
L 60.363972 109.940653 
L 61.718383 113.73266 
L 62.307742 115.384107 
L 66.933376 128.514792 
L 67.025405 128.777945 
L 69.023091 134.446428 
L 69.145797 134.795129 
L 71.24202 140.744432 
L 73.585513 147.648712 
L 75.052404 151.967955 
L 75.3099 152.728588 
L 77.011048 157.737794 
L 77.280628 158.530972 
L 79.042199 163.719643 
L 80.549063 167.811068 
L 81.676654 171.108384 
L 81.892318 171.739765 
L 84.30739 178.800263 
L 84.418941 179.125717 
L 84.529562 179.451171 
L 84.754522 180.106729 
L 86.676912 185.727789 
L 145.798758 169.14822 
L 152.333767 189.484461 
L 153.216876 198.234531 
L 151.236852 203.153539 
L 151.236852 212.628907 
L 150.660507 217.073682 
L 143.344643 225.84235 
L 143.549153 276.324953 
L 143.589125 288.979544 
L 143.469208 298.734803 
L 145.197314 305.466127 
L 145.751349 309.434809 
L 144.145019 312.876255 
L 142.035782 315.488258 
L 138.639994 318.151403 
L 132.675753 321.133494 
L 122.649208 317.790614 
L 118.777471 316.923046 
L 115.305457 318.792083 
L 113.102332 321.462668 
L 99.749719 318.725133 
L 97.947246 319.560155 
L 98.130375 323.615315 
L 93.996494 322.816558 
L 91.463364 323.862661 
L 87.739432 324.72 
L 85.674815 324.343403 
L 83.204898 322.449259 
L 82.156322 321.065614 
L 82.142378 314.231074 
L 82.142378 314.036732 
L 82.141448 313.802405 
L 81.528849 309.610554 
L 81.553948 309.21257 
L 81.652484 307.64481 
L 76.567634 306.750276 
L 53.832681 302.749978 
L 36.547908 299.708376 
L 28.689164 298.32566 
L 20.473459 273.663667 
L 22.227593 262.911589 
L 21.934772 261.294546 
L 22.522272 261.156925 
L 23.177632 261.133679 
L 23.458368 260.689201 
L 23.812541 258.13857 
L 23.866458 256.016608 
L 23.90643 254.050864 
L 22.637541 253.863031 
L 22.525061 253.383218 
L 21.097213 253.046606 
L 20.175061 252.87365 
L 16.789498 252.441261 
L 18.607774 242.41355 
L 19.528996 232.209165 
L 17.57686 232.065965 
L 14.153185 231.81583 
z
" clip-path="url(#p0edb961ee1)" style="fill: none; stroke: #000000; stroke-width: 1.2"/>
   </g>
  </g>
 </g>
 <defs>
  <clipPath id="p0edb961ee1">
   <rect x="7.2" y="7.2" width="152.970061" height="332.64"/>
  </clipPath>
 </defs>
</svg>
